<svg width="382" height="381" viewBox="0 0 382 381" fill="none" xmlns="http://www.w3.org/2000/svg">
<path d="M212.67 352.088C199.537 345.87 194.297 331.091 192.445 317.323C192.136 315.024 191.478 312.658 192.225 310.468C192.974 308.28 195.278 306.481 197.487 307.097C199.319 307.609 200.392 309.458 201.618 310.93C203.249 312.889 205.435 314.368 207.844 315.143C209.427 315.652 211.305 315.809 212.608 314.774C214.395 313.353 214.167 310.59 213.768 308.32C213.024 304.088 212.282 299.856 211.539 295.625C211.14 293.355 210.741 291.036 211.082 288.759C211.425 286.482 212.648 284.215 214.707 283.243C216.767 282.271 219.651 283.066 220.484 285.214C220.831 286.107 220.805 287.1 221.027 288.033C221.25 288.966 221.866 289.936 222.807 290.046C223.759 290.159 224.559 289.361 225.126 288.581C227.084 285.889 228.176 282.664 229.166 279.472C230.157 276.281 231.091 273.026 232.796 270.163C234.502 267.3 237.11 264.819 240.333 264.083C243.557 263.349 247.365 264.771 248.728 267.827C250.095 270.892 248.776 274.459 247.181 277.397C244.814 281.756 241.819 285.763 238.321 289.253C237.691 289.882 237.007 290.564 236.875 291.451C236.638 293.05 238.329 294.312 239.909 294.557C241.698 294.835 243.507 294.348 245.315 294.257C247.122 294.166 249.174 294.623 250.128 296.184C251.452 298.35 249.921 301.113 248.28 303.031C244.992 306.873 241.047 310.135 236.673 312.632C235.105 313.526 233.437 314.361 232.287 315.764C231.137 317.167 230.669 319.347 231.754 320.81C232.841 322.274 235.018 322.433 236.714 321.812C238.409 321.191 239.817 319.974 241.379 319.063C244.303 317.355 248.372 316.888 250.83 319.25C252.445 320.802 252.979 323.253 252.672 325.481C252.365 327.708 251.324 329.758 250.176 331.68C246.163 338.4 240.555 344.213 233.734 347.951C226.915 351.688 220.316 353.504 212.67 352.088Z" fill="#F5F5F5"/>
<path d="M214.751 342.908C215.597 335.659 217.185 327.789 219.126 319.615C219.619 317.573 220.107 315.556 220.587 313.568C221.071 311.584 221.551 309.617 222.138 307.722C223.298 303.926 224.703 300.365 226.142 297.027C227.58 293.686 229.066 290.569 230.477 287.664C231.895 284.761 233.267 282.08 234.622 279.691C237.318 274.898 239.945 271.298 241.85 268.899C242.799 267.696 243.566 266.788 244.095 266.179C244.351 265.889 244.549 265.661 244.7 265.49C244.838 265.337 244.912 265.261 244.918 265.265C244.924 265.27 244.861 265.356 244.734 265.518C244.591 265.696 244.402 265.933 244.161 266.234C243.654 266.861 242.908 267.786 241.979 269.003C240.118 271.43 237.538 275.044 234.883 279.841C233.548 282.234 232.195 284.916 230.793 287.822C229.397 290.732 227.924 293.849 226.499 297.186C225.074 300.521 223.683 304.072 222.535 307.848C221.953 309.733 221.48 311.684 220.996 313.672C220.517 315.659 220.031 317.676 219.538 319.716C217.598 327.884 216.004 335.732 215.139 342.957" fill="#E0E0E0"/>
<path d="M222.256 307.686C222.229 307.695 222.093 307.363 221.87 306.754C221.644 306.146 221.347 305.256 220.996 304.151C220.292 301.943 219.423 298.859 218.479 295.456C217.534 292.052 216.624 288.99 215.889 286.798C215.524 285.701 215.22 284.816 215.002 284.207C214.787 283.597 214.681 283.253 214.708 283.242C214.734 283.23 214.892 283.552 215.155 284.146C215.421 284.737 215.769 285.61 216.171 286.697C216.982 288.871 217.942 291.933 218.887 295.341C219.811 298.701 220.646 301.741 221.284 304.064C221.579 305.112 221.828 305.994 222.028 306.703C222.2 307.327 222.284 307.677 222.256 307.686Z" fill="#E0E0E0"/>
<path d="M250.553 297.281C250.558 297.31 250.151 297.429 249.41 297.618C248.672 297.812 247.602 298.086 246.291 298.468C243.663 299.209 240.07 300.361 236.161 301.805C232.252 303.257 228.772 304.721 226.286 305.852C225.038 306.409 224.04 306.887 223.348 307.214C222.658 307.543 222.269 307.712 222.256 307.686C222.242 307.66 222.606 307.44 223.274 307.065C223.944 306.693 224.924 306.172 226.159 305.577C228.62 304.372 232.095 302.858 236.014 301.402C239.934 299.954 243.557 298.844 246.212 298.176C247.537 297.831 248.622 297.601 249.374 297.457C250.127 297.316 250.546 297.252 250.553 297.281Z" fill="#E0E0E0"/>
<path d="M215.02 342.31C215.008 342.319 214.918 342.207 214.759 341.988C214.575 341.725 214.351 341.404 214.081 341.016C213.496 340.168 212.68 338.92 211.694 337.366C209.718 334.257 207.123 329.876 204.326 325.004C201.526 320.129 198.977 315.731 197.068 312.585C196.135 311.057 195.367 309.8 194.797 308.866C194.552 308.46 194.35 308.125 194.184 307.85C194.049 307.616 193.982 307.489 193.995 307.48C194.007 307.472 194.096 307.584 194.256 307.803C194.44 308.066 194.663 308.386 194.934 308.775C195.519 309.622 196.335 310.87 197.321 312.425C199.297 315.534 201.892 319.914 204.691 324.789C207.489 329.662 210.039 334.059 211.947 337.206C212.881 338.733 213.648 339.991 214.218 340.924C214.463 341.33 214.665 341.666 214.831 341.94C214.966 342.175 215.033 342.302 215.02 342.31Z" fill="#E0E0E0"/>
<path d="M251.733 323.227C251.739 323.24 251.616 323.317 251.375 323.451C251.088 323.604 250.737 323.791 250.311 324.019C249.327 324.533 247.998 325.227 246.381 326.07C243.062 327.802 238.507 330.248 233.477 332.957C228.445 335.667 223.863 338.073 220.508 339.737C218.831 340.57 217.467 341.23 216.515 341.666C216.074 341.865 215.711 342.029 215.416 342.163C215.163 342.272 215.026 342.323 215.02 342.309C215.014 342.296 215.138 342.22 215.378 342.085C215.664 341.932 216.015 341.745 216.442 341.517C217.426 341.003 218.754 340.31 220.371 339.466C223.69 337.734 228.246 335.288 233.277 332.579C238.307 329.869 242.889 327.463 246.244 325.799C247.921 324.966 249.285 324.306 250.238 323.87C250.678 323.671 251.041 323.506 251.337 323.373C251.59 323.264 251.726 323.214 251.733 323.227Z" fill="#E0E0E0"/>
<path d="M117.39 188.527C117.39 188.527 108.335 189.785 113.419 209.615C118.502 229.444 122.813 239.664 122.813 239.664C122.813 239.664 123.496 244.156 119.876 244.017C116.255 243.878 108.873 240.938 106.37 244.845C103.773 248.897 106.043 253.78 111.722 258.889C117.4 264 129.431 275.653 130.515 276.71C131.58 277.749 132.386 279.949 129.905 280.25C127.423 280.551 109.799 278.482 109.318 286.904C108.838 295.325 126.997 306.963 128.958 308.272C130.919 309.583 131.228 310.608 130.789 311.747C130.349 312.886 124.491 311.633 119.455 311.25C114.418 310.866 108.511 311.305 108.64 316.187C108.77 321.069 118.305 333.405 146.122 342.578L159.29 345.985L169.025 336.399C188.607 314.615 190.751 299.172 188.438 294.871C186.124 290.57 180.78 293.125 176.599 295.96C172.419 298.795 167.958 302.794 167.011 302.024C166.063 301.254 165.822 300.21 166.873 298.1C167.923 295.988 177.899 276.865 173.297 269.797C168.695 262.728 154.429 273.281 152.126 274.253C149.823 275.225 149.43 272.915 149.838 271.485C150.252 270.028 154.902 253.937 157.291 246.681C159.679 239.424 159.223 234.059 154.956 231.834C150.841 229.688 145.897 235.907 142.824 237.827C139.75 239.747 138.111 235.51 138.111 235.51C138.111 235.51 136.774 224.498 131.331 204.765C125.888 185.03 117.21 188.567 117.21 188.567" fill="#EBEBEB"/>
<path d="M159.276 349.26C155.336 334.751 148.766 308.847 143.009 286.636C137.256 264.433 132.027 244.335 128.161 229.809C126.224 222.56 124.654 216.688 123.565 212.609C123.027 210.592 122.608 209.019 122.318 207.932C122.183 207.409 122.079 207.003 122.004 206.712C121.936 206.437 121.911 206.293 121.911 206.293C121.911 206.293 121.964 206.43 122.046 206.701C122.131 206.989 122.249 207.391 122.4 207.909C122.708 208.991 123.153 210.557 123.723 212.566C124.868 216.611 126.482 222.477 128.45 229.732C132.39 244.24 137.665 264.327 143.419 286.53C149.175 308.741 155.698 334.655 159.565 349.182" fill="#E0E0E0"/>
<path d="M116.529 249.374C116.545 249.349 116.853 249.516 117.397 249.839C117.942 250.16 118.716 250.647 119.667 251.257C121.567 252.482 124.148 254.24 126.961 256.231C129.728 258.204 132.23 259.989 134.144 261.355C135.01 261.964 135.741 262.479 136.328 262.893C136.846 263.254 137.126 263.465 137.11 263.49C137.095 263.515 136.786 263.35 136.239 263.032C135.695 262.709 134.92 262.222 133.975 261.602C132.087 260.359 129.53 258.568 126.718 256.577C123.939 254.624 121.425 252.858 119.502 251.506C118.632 250.901 117.898 250.389 117.307 249.979C116.792 249.611 116.514 249.398 116.529 249.374Z" fill="#E0E0E0"/>
<path d="M138.207 262.844C138.109 262.781 141.499 257.301 145.778 250.605C150.058 243.906 153.606 238.529 153.705 238.591C153.803 238.654 150.414 244.133 146.133 250.832C141.854 257.529 138.305 262.908 138.207 262.844Z" fill="#E0E0E0"/>
<path d="M145.507 297.345C145.489 297.323 145.747 297.075 146.23 296.647C146.781 296.166 147.468 295.564 148.284 294.85C150.016 293.33 152.399 291.221 154.942 288.798C157.493 286.379 159.724 284.111 161.326 282.456C162.082 281.677 162.717 281.022 163.227 280.496C163.678 280.036 163.939 279.79 163.96 279.809C163.982 279.829 163.763 280.112 163.349 280.607C162.933 281.102 162.322 281.807 161.544 282.66C159.995 284.371 157.791 286.68 155.233 289.104C152.682 291.534 150.261 293.614 148.477 295.078C147.581 295.806 146.851 296.388 146.333 296.774C145.819 297.164 145.526 297.368 145.507 297.345Z" fill="#E0E0E0"/>
<path d="M123.218 289.477C123.227 289.45 123.548 289.529 124.121 289.696C124.777 289.898 125.582 290.148 126.532 290.442C128.562 291.089 131.357 292.011 134.435 293.054C137.515 294.097 140.295 295.063 142.301 295.783C143.234 296.128 144.024 296.419 144.669 296.657C145.225 296.871 145.528 297.004 145.519 297.031C145.51 297.059 145.189 296.98 144.616 296.813C143.96 296.61 143.155 296.361 142.205 296.067C140.175 295.42 137.38 294.498 134.3 293.455C131.221 292.411 128.442 291.445 126.436 290.726C125.503 290.382 124.712 290.09 124.068 289.853C123.511 289.636 123.208 289.504 123.218 289.477Z" fill="#E0E0E0"/>
<path d="M125.793 320.753C125.802 320.726 126.212 320.831 126.945 321.045C127.751 321.291 128.79 321.609 130.039 321.989C132.645 322.804 136.237 323.957 140.195 325.257C144.155 326.556 147.732 327.754 150.315 328.642C151.545 329.075 152.571 329.435 153.366 329.714C154.084 329.977 154.476 330.134 154.467 330.162C154.458 330.19 154.048 330.085 153.315 329.871C152.508 329.625 151.469 329.308 150.221 328.927C147.614 328.113 144.023 326.959 140.063 325.66C136.104 324.361 132.527 323.163 129.945 322.275C128.714 321.842 127.688 321.482 126.893 321.203C126.176 320.939 125.783 320.781 125.793 320.753Z" fill="#E0E0E0"/>
<path d="M153.845 329.743C153.825 329.72 154.144 329.399 154.738 328.835C155.388 328.223 156.237 327.425 157.26 326.462C159.387 324.457 162.315 321.675 165.46 318.514C168.611 315.356 171.387 312.423 173.382 310.286C174.34 309.26 175.136 308.408 175.746 307.756C176.307 307.161 176.628 306.841 176.65 306.86C176.672 306.879 176.393 307.236 175.869 307.866C175.346 308.495 174.575 309.393 173.603 310.487C171.662 312.678 168.915 315.649 165.759 318.812C162.609 321.979 159.644 324.731 157.463 326.682C156.369 327.655 155.477 328.433 154.848 328.957C154.22 329.484 153.864 329.765 153.845 329.743Z" fill="#E0E0E0"/>
<path d="M78.0705 70.2861L70.6342 67.9658C70.6342 67.9658 68.6865 74.2097 62.163 72.297C58.7752 71.3042 57.7167 68.551 57.5339 66.6384C57.322 64.4172 58.27 62.2569 59.9425 60.7809C61.8529 59.0946 65.2064 58.0667 69.9423 60.5135L75.1734 43.7464L67.8201 41.4528L64.7561 51.2742C64.7561 51.2742 53.6118 50.7225 50.0663 62.0878C46.6738 72.9615 55.6372 78.5294 59.8115 79.8317C63.0035 80.8276 74.118 83.4481 78.0705 70.2861Z" fill="#F5F5F5"/>
<path d="M68.8105 37.972L76.2729 40.3L78.4471 33.3308L70.9847 31.0027L68.8105 37.972Z" fill="#F5F5F5"/>
<path d="M98.5957 51.355L101.574 50.5694C101.574 50.5694 100.914 48.0692 103.501 47.3385C104.844 46.959 105.777 47.6585 106.24 48.2605C106.777 48.96 106.914 49.8828 106.665 50.7286C106.38 51.6948 105.472 52.7434 103.372 52.9194L105.143 59.6341L108.087 58.8576L107.05 54.9242C107.05 54.9242 110.898 52.767 109.698 48.2163C108.55 43.8615 104.378 43.8805 102.706 44.3217C101.427 44.6585 97.154 46.117 98.5957 51.355Z" fill="#EBEBEB"/>
<path d="M108.486 60.2257L105.498 61.0142L106.234 63.8051L109.223 63.0166L108.486 60.2257Z" fill="#EBEBEB"/>
<path d="M344.576 128.478L347.471 129.527C347.471 129.527 348.352 127.095 350.894 127.968C352.215 128.421 352.584 129.527 352.622 130.285C352.666 131.166 352.253 132.003 351.566 132.556C350.781 133.188 349.438 133.534 347.611 132.483L345.246 139.012L348.109 140.049L349.494 136.224C349.494 136.224 353.886 136.641 355.489 132.215C357.023 127.981 353.582 125.622 351.956 125.034C350.715 124.583 346.372 123.35 344.576 128.478Z" fill="#EBEBEB"/>
<path d="M347.658 141.401L344.752 140.348L343.769 143.062L346.675 144.115L347.658 141.401Z" fill="#EBEBEB"/>
<path d="M37.2701 161.642L43.3981 159.282C43.3981 159.282 41.4162 154.136 46.7273 151.984C49.4857 150.866 51.627 152.13 52.7486 153.299C54.0516 154.656 54.5561 156.58 54.2246 158.43C53.8451 160.545 52.168 162.98 47.7575 163.843L53.0809 177.66L59.1403 175.326L56.0222 167.232C56.0222 167.232 63.6742 161.76 60.0661 152.395C56.6135 143.434 47.7758 144.448 44.3361 145.774C41.7057 146.788 32.99 150.876 37.2701 161.642Z" fill="#F5F5F5"/>
<path d="M60.3088 178.136L54.1592 180.505L56.3721 186.249L62.5217 183.879L60.3088 178.136Z" fill="#F5F5F5"/>
<path d="M346.959 184.891L342.616 186.564C342.616 186.564 344.02 190.21 340.257 191.736C338.302 192.528 336.785 191.632 335.99 190.804C335.066 189.842 334.709 188.479 334.944 187.168C335.213 185.67 336.402 183.944 339.527 183.332L335.755 173.54L331.461 175.194L333.671 180.93C333.671 180.93 328.248 184.807 330.805 191.444C333.251 197.795 339.515 197.075 341.952 196.137C343.815 195.417 349.992 192.52 346.959 184.891Z" fill="#F5F5F5"/>
<path d="M330.647 173.207L335.004 171.528L333.436 167.458L329.079 169.137L330.647 173.207Z" fill="#F5F5F5"/>
<path d="M359.228 353.394C359.228 353.504 283.903 353.592 191.008 353.592C98.0797 353.592 22.772 353.503 22.772 353.394C22.772 353.285 98.0797 353.196 191.008 353.196C283.904 353.195 359.228 353.285 359.228 353.394Z" fill="#263238"/>
<path d="M71.0892 333.604C71.8123 330.802 69.9751 327.988 67.9154 325.955C65.8558 323.922 63.393 322.1 62.3216 319.413C60.5858 315.057 62.9198 309.418 59.9571 305.784C58.2144 303.646 55.0887 302.932 53.5426 300.648C52.7311 299.45 52.4689 297.978 52.1504 296.567C50.5243 289.369 46.9216 282.627 41.8413 277.276C41.4878 283.686 42.902 290.184 45.886 295.868C47.0854 298.152 48.5591 300.38 48.9569 302.929C49.6023 307.07 47.2911 311.335 48.3084 315.4C49.4712 320.049 54.694 323.161 54.9416 327.947C55.1512 331.993 51.6246 335.545 51.8875 339.588C51.9995 341.31 52.7989 342.908 53.6881 344.387C56.8169 349.588 61.4125 353.17 68.3787 353.054L76.9108 353.352L71.0892 333.604Z" fill="#3B37FF"/>
<g opacity="0.3">
<path d="M71.0892 333.604C71.8123 330.802 69.9751 327.988 67.9154 325.955C65.8558 323.922 63.393 322.1 62.3216 319.413C60.5858 315.057 62.9198 309.418 59.9571 305.784C58.2144 303.646 55.0887 302.932 53.5426 300.648C52.7311 299.45 52.4689 297.978 52.1504 296.567C50.5243 289.369 46.9216 282.627 41.8413 277.276C41.4878 283.686 42.902 290.184 45.886 295.868C47.0854 298.152 48.5591 300.38 48.9569 302.929C49.6023 307.07 47.2911 311.335 48.3084 315.4C49.4712 320.049 54.694 323.161 54.9416 327.947C55.1512 331.993 51.6246 335.545 51.8875 339.588C51.9995 341.31 52.7989 342.908 53.6881 344.387C56.8169 349.588 61.4125 353.17 68.3787 353.054L76.9108 353.352L71.0892 333.604Z" fill="black"/>
</g>
<path d="M78.6376 353.577C78.6376 353.577 79.4514 353.766 80.9869 353.526C81.7519 353.414 82.693 353.211 83.7598 352.828C84.8205 352.44 86.0275 351.888 87.1842 350.953C87.7397 350.467 88.2944 349.869 88.5924 349.076C88.8865 348.287 88.9399 347.418 88.994 346.527C89.0397 345.635 89.0404 344.707 89.1928 343.767C89.3369 342.828 89.7057 341.905 90.2353 341.023C91.2419 339.256 92.9114 337.583 93.4517 335.183C94.0354 332.823 93.617 330.269 93.22 327.704C92.8238 325.145 92.4405 322.355 93.4189 319.689C94.3341 317.02 96.2055 314.612 97.1405 311.603C98.0717 308.565 97.6381 305.297 97.8347 302.074C97.9246 300.454 98.2378 298.836 98.9464 297.336C99.6368 295.826 100.595 294.402 101.342 292.811C102.856 289.597 103.124 285.954 103.538 282.383C103.74 280.584 103.944 278.767 104.15 276.931C104.354 275.087 104.517 273.25 105.098 271.475C105.624 269.686 106.385 267.957 107.139 266.194C107.508 265.308 107.899 264.421 108.129 263.436C108.296 262.431 108.344 261.489 108.404 260.502C108.5 258.546 108.42 256.563 108.177 254.596C107.946 252.627 107.591 250.674 107.379 248.701C107.366 248.584 107.353 248.468 107.341 248.36L107.296 247.967L106.947 248.141C105.119 249.057 103.555 250.419 102.353 252.018C101.131 253.606 100.242 255.397 99.5309 257.218C98.106 260.884 97.5924 264.726 96.8738 268.392C96.172 272.058 95.2477 275.664 93.3678 278.711C92.4329 280.231 91.3013 281.618 90.3115 283.101C89.3239 284.572 88.4552 286.189 88.1939 287.964C87.6894 291.573 89.6775 294.743 89.2637 297.939C89.1159 299.527 88.4842 301.012 87.7069 302.367C86.932 303.73 86.0214 304.994 85.1573 306.265C84.2939 307.536 83.4717 308.824 82.8667 310.202C82.251 311.575 81.9119 313.043 81.8182 314.479C81.6102 317.356 82.0186 320.086 81.8075 322.663C81.6346 325.244 80.7278 327.584 79.7021 329.675C78.6704 331.775 77.5221 333.673 76.5604 335.514C76.0765 336.434 75.6308 337.331 75.2673 338.233C74.8825 339.132 74.6935 340.054 74.5182 340.93C74.2378 342.7 74.2653 344.347 74.455 345.801C74.8261 348.724 75.9158 350.829 76.8964 352.011C77.1212 352.327 77.3818 352.55 77.5868 352.759C77.7872 352.974 77.9853 353.12 78.1469 353.234C78.4677 353.47 78.6376 353.577 78.6376 353.577C78.675 353.534 77.9351 353.142 76.9856 351.943C76.0461 350.754 75.0036 348.665 74.6691 345.774C74.4977 344.338 74.4878 342.711 74.7781 340.974C74.9579 340.116 75.1507 339.213 75.5325 338.34C75.8952 337.46 76.3463 336.566 76.834 335.657C77.8032 333.833 78.9638 331.942 80.0176 329.829C81.0638 327.728 82.0057 325.341 82.1969 322.693C82.4209 320.061 82.0247 317.322 82.2426 314.512C82.3409 313.107 82.6709 311.707 83.2713 310.379C83.8627 309.046 84.6727 307.782 85.536 306.521C86.3994 305.259 87.3206 303.989 88.1177 302.598C88.9147 301.216 89.5837 299.669 89.7461 297.988C90.1575 294.584 88.184 291.393 88.6968 288.038C88.9429 286.378 89.7682 284.831 90.7428 283.386C91.7166 281.932 92.8542 280.543 93.8174 278.985C95.7567 275.85 96.6963 272.175 97.4049 268.494C98.1303 264.805 98.6439 261.004 100.044 257.413C100.74 255.629 101.611 253.882 102.791 252.349C103.954 250.805 105.451 249.505 107.191 248.632L106.798 248.414C106.81 248.522 106.823 248.641 106.837 248.759C107.051 250.755 107.408 252.711 107.637 254.657C107.877 256.603 107.956 258.546 107.863 260.474C107.808 261.425 107.75 262.423 107.601 263.32C107.392 264.217 107.01 265.102 106.644 265.98C105.895 267.736 105.123 269.491 104.588 271.318C103.995 273.137 103.825 275.043 103.627 276.866C103.423 278.703 103.221 280.522 103.022 282.322C102.614 285.907 102.346 289.491 100.888 292.595C100.167 294.14 99.2109 295.568 98.5007 297.128C97.7676 298.685 97.4423 300.395 97.3569 302.041C97.171 305.333 97.5992 308.552 96.7085 311.469C95.8238 314.372 93.963 316.794 93.0219 319.547C92.0153 322.329 92.4321 325.21 92.839 327.761C93.2513 330.33 93.665 332.831 93.1149 335.099C92.6218 337.392 90.9995 339.049 89.9724 340.867C89.4382 341.769 89.0549 342.745 88.9139 343.721C88.7646 344.692 88.7722 345.629 88.7349 346.514C88.6907 347.393 88.6404 348.255 88.3706 348.994C88.1024 349.731 87.5805 350.314 87.0471 350.79C85.933 351.712 84.7473 352.276 83.7049 352.675C82.6556 353.07 81.7268 353.288 80.9716 353.416C80.2157 353.554 79.629 353.573 79.2358 353.584C78.8411 353.57 78.6376 353.577 78.6376 353.577Z" fill="#263238"/>
<path d="M105.598 253.058C105.588 253.056 105.56 253.143 105.515 253.315C105.465 253.52 105.403 253.772 105.327 254.084C105.159 254.756 104.959 255.77 104.637 257.038C104.302 258.301 103.528 259.732 102.867 261.494C102.178 263.243 101.48 265.269 100.839 267.547C100.188 269.822 99.6112 272.349 99.0085 275.055C98.3867 277.757 97.7657 280.655 96.2775 283.389C95.578 284.775 94.7908 286.177 94.1652 287.712C93.5244 289.247 93.1784 290.925 92.9369 292.608C92.5269 295.988 91.9067 299.42 91.0974 302.931C89.3867 309.923 87.7568 316.583 86.2732 322.647C84.7538 328.69 83.3845 334.136 82.23 338.727C81.1068 343.276 80.194 346.972 79.5501 349.579C79.2536 350.83 79.019 351.818 78.8483 352.536C78.7797 352.849 78.7241 353.103 78.6791 353.309C78.644 353.484 78.6303 353.574 78.6395 353.577C78.6486 353.579 78.6806 353.493 78.7332 353.323C78.7919 353.121 78.865 352.872 78.9549 352.564C79.1493 351.852 79.4175 350.873 79.7566 349.632C80.4408 347.035 81.4109 343.354 82.6049 338.823C83.7921 334.241 85.1995 328.805 86.7624 322.773C88.2605 316.707 89.9049 310.046 91.6323 303.051C92.4423 299.544 93.0687 296.049 93.4688 292.686C93.7057 291.013 94.0357 289.396 94.6514 287.908C95.2541 286.412 96.0298 285.017 96.7294 283.616C98.2305 280.831 98.8553 277.845 99.4535 275.154C100.037 272.441 100.59 269.921 101.214 267.65C101.829 265.378 102.497 263.355 103.155 261.604C103.782 259.847 104.531 258.4 104.845 257.094C105.141 255.796 105.303 254.791 105.437 254.107C105.492 253.791 105.537 253.535 105.572 253.328C105.598 253.151 105.607 253.059 105.598 253.058Z" fill="#263238"/>
<path d="M80.1434 353.603C85.7167 350.29 87.3162 340.235 84.9913 334.183C82.6664 328.13 78.5974 322.6 77.9695 316.148C77.4871 311.187 79.1117 306.096 77.9565 301.248C76.3975 294.705 70.0096 289.637 70.0828 282.912C70.1239 279.138 72.2712 275.587 72.0998 271.817C71.8902 267.192 68.3408 263.524 66.1425 259.45C62.7775 253.215 62.5565 245.843 61.4059 238.851C60.2553 231.86 57.5913 224.372 51.3947 220.937C50.4796 226.872 48.9175 230.937 49.4082 238.978C49.5842 241.866 52.9393 247.395 53.3957 253.724C53.6685 257.506 53.8575 261.295 54.0884 265.081C54.3132 268.765 54.5517 272.516 55.8722 275.962C56.8842 278.603 58.5103 281.003 59.2616 283.729C60.6751 288.859 58.8181 294.415 59.9596 299.612C60.9266 304.015 63.9738 307.805 64.5964 312.27C65.4711 318.543 61.4112 325.062 63.4892 331.045C64.5209 334.014 66.9631 336.398 67.6558 339.464C68.1938 341.843 67.607 344.362 68.0947 346.751C68.8796 350.602 76.223 353.592 80.145 353.353" fill="#3B37FF"/>
<path d="M52.9308 226.828C52.9217 226.83 52.9301 226.943 52.9552 227.164C52.9872 227.413 53.0291 227.734 53.081 228.139C53.209 228.996 53.3522 230.255 53.6425 231.883C53.9542 233.519 54.797 235.362 55.4713 237.584C56.1823 239.799 56.8902 242.355 57.515 245.215C58.1513 248.075 58.6832 251.24 59.2417 254.646C59.8193 258.027 60.4091 261.763 62.0985 265.309C62.8803 267.091 63.7573 268.874 64.4157 270.774C65.0901 272.666 65.401 274.703 65.5915 276.796C65.8795 281 66.4396 285.373 67.226 289.779C68.9328 298.574 70.5589 306.95 72.0388 314.575C73.5986 322.17 75.0037 329.012 76.1871 334.772C77.3819 340.49 78.3512 345.129 79.0301 348.378C79.3715 349.954 79.6397 351.191 79.8302 352.072C79.9224 352.469 79.9956 352.785 80.0519 353.03C80.1045 353.245 80.1365 353.355 80.1457 353.352C80.1548 353.35 80.1419 353.237 80.1068 353.019C80.0634 352.771 80.0077 352.452 79.9384 352.05C79.7715 351.165 79.5376 349.92 79.2389 348.336C78.6011 345.079 77.6897 340.427 76.5666 334.695C75.4159 328.928 74.0504 322.078 72.534 314.474C71.068 306.852 69.4579 298.478 67.7662 289.686C66.9798 285.275 66.4236 280.967 66.1264 276.745C65.9321 274.64 65.6082 272.543 64.911 270.602C64.2328 268.662 63.3436 266.871 62.561 265.105C60.8808 261.611 60.291 257.963 59.6898 254.57C59.1122 251.17 58.5559 247.996 57.8937 245.13C57.2415 242.263 56.5046 239.702 55.7632 237.488C55.0553 235.258 54.1859 233.432 53.8513 231.837C53.5336 230.239 53.353 228.967 53.1907 228.121C53.1168 227.721 53.0573 227.402 53.0116 227.154C52.9674 226.937 52.9407 226.827 52.9308 226.828Z" fill="#263238"/>
<path d="M321.663 67.645H318.629C318.629 67.645 318.629 70.1916 315.982 70.2374C314.608 70.261 313.895 69.3603 313.606 68.6707C313.269 67.8698 313.371 66.9569 313.822 66.214C314.336 65.3659 315.464 64.5947 317.508 64.9552V58.1155H314.509V62.1221C314.509 62.1221 310.302 63.2094 310.302 67.8454C310.302 72.281 314.28 73.3113 315.983 73.3113C317.284 73.3113 321.72 72.9966 321.663 67.645Z" fill="#3B37FF"/>
<path d="M314.472 56.7071H317.517V53.8641H314.472V56.7071Z" fill="#3B37FF"/>
<path d="M338.276 63.5859C338.285 63.5859 338.287 63.4563 338.282 63.2018C338.275 62.9229 338.264 62.5495 338.25 62.074C338.239 61.8264 338.239 61.5475 338.214 61.2427C338.171 60.9371 338.124 60.6057 338.074 60.2475C338.022 59.8863 337.967 59.4993 337.907 59.0862C337.807 58.6786 337.699 58.2465 337.586 57.7893C337.117 55.9666 336.316 53.7583 334.844 51.5005C333.396 49.2443 331.325 46.8996 328.51 44.9969C325.692 43.1292 322.146 41.689 318.165 41.3073C317.168 41.2699 316.155 41.1495 315.124 41.2455C314.61 41.2814 314.087 41.2707 313.569 41.3461C313.051 41.4238 312.529 41.5031 312.003 41.5823C309.926 42.0068 307.798 42.6248 305.815 43.6954C303.828 44.7408 301.937 46.0896 300.254 47.737C298.604 49.4165 297.173 51.3771 296.07 53.5602C294.959 55.7365 294.191 58.1482 293.892 60.6582C293.768 61.28 293.769 61.9163 293.731 62.5511C293.689 63.1866 293.666 63.8244 293.696 64.4652C293.748 65.7454 293.909 67.0293 294.18 68.2981C294.767 71.055 295.889 73.6503 297.391 75.9295L297.367 75.6978C296.306 78.3428 295.264 80.9381 294.248 83.471L294.063 83.9313L294.541 83.8002C297.393 83.0161 300.168 82.2533 302.851 81.5157L302.646 81.4761C305.544 83.6577 308.855 85.0476 312.142 85.6237C313.784 85.9125 315.423 86.0351 317.006 85.9262C317.8 85.8926 318.582 85.8545 319.343 85.7052C319.724 85.6458 320.103 85.5871 320.48 85.5284C320.854 85.4591 321.216 85.3448 321.58 85.2564C327.429 83.7545 331.75 80.1517 334.222 76.584C335.48 74.7979 336.383 73.0362 336.945 71.423C337.089 71.0207 337.228 70.6336 337.361 70.2602C337.459 69.8769 337.551 69.5089 337.641 69.1568C337.728 68.8048 337.812 68.468 337.891 68.1472C337.954 67.8233 337.987 67.5109 338.032 67.2183C338.106 66.6308 338.208 66.1142 338.23 65.6615C338.245 65.2165 338.257 64.8363 338.268 64.5193C338.274 64.2297 338.279 64.0004 338.283 63.8221C338.285 63.6659 338.283 63.5859 338.276 63.5859C338.269 63.5859 338.259 63.6651 338.244 63.8213C338.23 63.9989 338.212 64.2282 338.189 64.5163C338.168 64.831 338.143 65.2089 338.112 65.6509C338.077 66.0997 337.964 66.611 337.878 67.1932C337.459 69.4807 336.546 72.9104 333.985 76.4141C331.512 79.9125 327.232 83.4238 321.482 84.8685C321.124 84.9531 320.768 85.0644 320.401 85.1299C320.032 85.1855 319.659 85.2411 319.284 85.2975C318.537 85.4408 317.769 85.4735 316.99 85.5033C315.435 85.6038 313.828 85.4773 312.22 85.1886C309.002 84.6125 305.765 83.2409 302.932 81.0974L302.839 81.0273L302.726 81.0578C300.041 81.79 297.265 82.5475 294.412 83.3255L294.704 83.6539C295.724 81.1218 296.768 78.5279 297.833 75.8845L297.882 75.7626L297.809 75.6521C296.343 73.4225 295.247 70.8851 294.673 68.1914C294.408 66.9516 294.25 65.6958 294.199 64.4446C294.169 63.8183 294.192 63.1942 294.233 62.5732C294.27 61.9521 294.268 61.3296 294.389 60.7223C294.679 58.2679 295.427 55.9102 296.512 53.7812C297.588 51.6453 298.984 49.7243 300.594 48.0776C302.238 46.463 304.086 45.1378 306.028 44.1084C307.966 43.0538 310.049 42.4426 312.083 42.0182C312.598 41.939 313.11 41.8597 313.618 41.7812C314.126 41.705 314.639 41.7142 315.143 41.6768C316.153 41.577 317.148 41.6928 318.127 41.7241C322.036 42.0807 325.526 43.4752 328.312 45.2933C331.094 47.1472 333.155 49.4401 334.607 51.6537C336.083 53.8681 336.902 56.0413 337.396 57.8404C337.516 58.2922 337.63 58.719 337.737 59.1213C337.804 59.5297 337.867 59.913 337.926 60.2704C337.984 60.6247 338.038 60.9539 338.088 61.2564C338.121 61.5589 338.129 61.8355 338.149 62.0817C338.183 62.5556 338.211 62.9267 338.23 63.2041C338.252 63.4563 338.267 63.5859 338.276 63.5859Z" fill="#263238"/>
<path d="M111.041 153.455H155.049C155.049 153.455 155.049 116.504 193.449 115.843C213.391 115.499 223.731 128.562 227.932 138.57C232.811 150.192 231.335 163.437 224.798 174.213C217.334 186.52 201.258 198.886 171.6 193.661L171.319 291.707H214.834V233.583C214.834 233.583 275.864 217.806 275.864 150.548C275.864 86.1967 223.825 72.2955 195.858 71.4025C180.295 70.9056 174.654 70.2366 155.406 72.9691C130.877 76.4515 110.523 104.932 111.041 153.455Z" fill="#3B37FF"/>
<path d="M215.36 312.148H171.197V353.394H215.36V312.148Z" fill="#3B37FF"/>
<path opacity="0.1" d="M215.36 312.148H171.197V353.394H215.36V312.148Z" fill="black"/>
<path opacity="0.1" d="M111.041 153.455H155.049C155.049 153.455 155.049 116.504 193.449 115.843C213.391 115.499 223.731 128.562 227.932 138.57C232.811 150.192 231.335 163.437 224.798 174.213C217.334 186.52 201.258 198.886 171.6 193.661L171.319 291.707H214.834V233.583C214.834 233.583 275.864 217.806 275.864 150.548C275.864 86.1967 223.825 72.2955 195.858 71.4025C180.295 70.9056 174.654 70.2366 155.406 72.9691C130.877 76.4515 110.523 104.932 111.041 153.455Z" fill="black"/>
<path d="M92.8117 153.455H136.819C136.819 153.455 136.819 116.504 175.219 115.843C195.161 115.499 205.502 128.562 209.702 138.57C214.581 150.192 213.105 163.437 206.568 174.213C199.104 186.52 182.747 197.706 153.09 192.48V291.706H196.604V233.582C196.604 233.582 257.635 217.805 257.635 150.548C257.635 86.1959 199.926 71.25 175.223 71.25C156.333 71.2516 91.9818 75.8182 92.8117 153.455Z" fill="#3B37FF"/>
<path opacity="0.3" d="M92.8117 153.455H136.819C136.819 153.455 136.819 116.504 175.219 115.843C195.161 115.499 205.502 128.562 209.702 138.57C214.581 150.192 213.105 163.437 206.568 174.213C199.104 186.52 182.747 197.706 153.09 192.48V291.706H196.604V233.582C196.604 233.582 257.635 217.805 257.635 150.548C257.635 86.1959 199.926 71.25 175.223 71.25C156.333 71.2516 91.9818 75.8182 92.8117 153.455Z" fill="black"/>
<path d="M197.131 312.148H152.968V353.394H197.131V312.148Z" fill="#3B37FF"/>
<path opacity="0.3" d="M197.131 312.148H152.968V353.394H197.131V312.148Z" fill="black"/>
<path d="M180.19 116.048C180.187 116.062 179.96 116.047 179.531 116.008C179.101 115.986 178.474 115.864 177.656 115.855C176.026 115.747 173.653 115.789 170.755 116.142C167.86 116.504 164.44 117.222 160.794 118.485C158.981 119.139 157.096 119.889 155.243 120.872C153.375 121.819 151.525 122.978 149.815 124.387C148.096 125.782 146.641 127.409 145.373 129.081C144.1 130.748 142.999 132.45 142.044 134.126C140.172 137.5 138.894 140.755 138.103 143.563C137.293 146.37 136.94 148.716 136.779 150.34C136.685 151.153 136.661 151.787 136.638 152.217C136.613 152.647 136.593 152.873 136.579 152.873C136.566 152.873 136.559 152.647 136.558 152.215C136.555 151.783 136.554 151.145 136.625 150.327C136.739 148.691 137.052 146.322 137.832 143.487C138.594 140.649 139.855 137.36 141.725 133.947C142.679 132.252 143.783 130.531 145.064 128.844C146.337 127.157 147.811 125.502 149.563 124.08C151.301 122.648 153.175 121.479 155.064 120.526C156.939 119.538 158.843 118.788 160.673 118.139C164.354 116.885 167.804 116.192 170.721 115.863C173.641 115.544 176.03 115.545 177.665 115.701C178.486 115.734 179.113 115.88 179.541 115.928C179.969 115.994 180.192 116.034 180.19 116.048Z" fill="#263238"/>
<path d="M246.496 108.191C246.49 108.195 246.442 108.136 246.353 108.018C246.253 107.881 246.126 107.706 245.967 107.488C245.62 106.995 245.135 106.307 244.519 105.433C244.202 104.99 243.871 104.481 243.471 103.952C243.047 103.438 242.588 102.882 242.097 102.286C241.604 101.686 241.078 101.047 240.522 100.368C239.948 99.7039 239.281 99.0554 238.614 98.3452C237.931 97.6495 237.252 96.8845 236.479 96.1545C235.689 95.4405 234.868 94.6983 234.018 93.9302C233.589 93.5507 233.17 93.1446 232.714 92.7674C232.248 92.4009 231.776 92.029 231.296 91.6511C230.329 90.9066 229.368 90.0935 228.32 89.3437C224.144 86.3186 219.259 83.4108 213.901 80.8276C212.545 80.2142 211.205 79.6084 209.885 79.0118C208.534 78.4875 207.203 77.9709 205.895 77.4634C204.598 76.9254 203.272 76.5429 201.991 76.12C200.702 75.7199 199.461 75.2566 198.204 74.9633C196.958 74.6356 195.741 74.3163 194.56 74.0054C193.378 73.6923 192.205 73.5071 191.085 73.2625C189.958 73.0522 188.883 72.7718 187.826 72.6399C186.773 72.4875 185.762 72.3412 184.795 72.2018C182.87 71.8718 181.103 71.8063 179.56 71.6509C178.788 71.5899 178.07 71.5076 177.407 71.4764C176.746 71.4588 176.14 71.4421 175.591 71.4276C174.522 71.3933 173.681 71.3659 173.077 71.3468C172.808 71.3339 172.593 71.324 172.423 71.3156C172.276 71.3064 172.2 71.2981 172.2 71.2912C172.2 71.2843 172.276 71.279 172.423 71.2752C172.593 71.2729 172.808 71.2706 173.077 71.2668C173.682 71.2683 174.524 71.2706 175.595 71.2729C176.144 71.2775 176.752 71.2821 177.415 71.2874C178.081 71.3072 178.801 71.3788 179.576 71.4291C181.123 71.564 182.897 71.6105 184.83 71.9229C185.8 72.0547 186.816 72.1934 187.874 72.3374C188.935 72.4616 190.016 72.7352 191.148 72.9394C192.274 73.1779 193.453 73.357 194.64 73.6656C195.827 73.9719 197.049 74.2874 198.302 74.6105C199.564 74.9008 200.812 75.361 202.106 75.7588C203.394 76.1802 204.726 76.5612 206.03 77.0984C207.344 77.6059 208.681 78.1225 210.038 78.6475C211.364 79.2465 212.71 79.8538 214.071 80.4695C219.451 83.0633 224.353 85.994 228.536 89.0488C229.585 89.8063 230.547 90.6269 231.514 91.3798C231.994 91.7616 232.467 92.138 232.932 92.5083C233.388 92.8893 233.807 93.3 234.235 93.6841C235.083 94.4613 235.903 95.2127 236.691 95.935C237.462 96.6742 238.138 97.4491 238.817 98.1532C239.48 98.8733 240.144 99.5302 240.712 100.204C241.263 100.891 241.782 101.54 242.269 102.148C242.753 102.753 243.205 103.318 243.622 103.84C244.014 104.377 244.337 104.895 244.645 105.347C245.236 106.24 245.701 106.944 246.034 107.447C246.179 107.674 246.296 107.856 246.387 107.998C246.465 108.122 246.501 108.188 246.496 108.191Z" fill="#263238"/>
<path d="M241.911 202.675C241.922 202.684 241.807 202.841 241.578 203.132C241.322 203.451 240.984 203.871 240.563 204.395C240.123 204.944 239.574 205.607 238.902 206.347C238.234 207.091 237.496 207.959 236.61 208.854C235.743 209.766 234.787 210.759 233.708 211.773C232.659 212.817 231.468 213.859 230.229 214.971C227.708 217.144 224.836 219.421 221.679 221.612C218.507 223.784 215.358 225.659 212.429 227.243C210.949 228.006 209.553 228.749 208.202 229.358C206.871 230.006 205.602 230.546 204.442 231.033C203.291 231.543 202.217 231.923 201.285 232.283C200.355 232.648 199.54 232.926 198.87 233.142C198.231 233.349 197.719 233.515 197.329 233.641C196.976 233.751 196.788 233.803 196.784 233.79C196.779 233.777 196.958 233.7 197.303 233.566C197.686 233.422 198.189 233.233 198.818 232.997C199.478 232.759 200.284 232.461 201.204 232.077C202.127 231.698 203.191 231.301 204.331 230.776C205.482 230.275 206.739 229.721 208.061 229.063C209.4 228.442 210.786 227.692 212.255 226.923C215.163 225.327 218.294 223.451 221.454 221.288C224.598 219.105 227.464 216.847 229.989 214.697C231.231 213.597 232.426 212.568 233.481 211.537C234.566 210.537 235.531 209.558 236.409 208.662C237.305 207.782 238.054 206.929 238.736 206.202C239.423 205.478 239.988 204.831 240.445 204.298C240.889 203.794 241.246 203.391 241.515 203.084C241.765 202.806 241.9 202.666 241.911 202.675Z" fill="#263238"/>
<path d="M195.835 288.252C195.726 288.252 195.637 276.012 195.637 260.916C195.637 245.816 195.726 233.579 195.835 233.579C195.945 233.579 196.033 245.816 196.033 260.916C196.033 276.012 195.945 288.252 195.835 288.252Z" fill="#263238"/>
<path d="M197.514 350.597C197.404 350.597 197.315 342.008 197.315 331.414C197.315 320.818 197.405 312.23 197.514 312.23C197.623 312.23 197.712 320.818 197.712 331.414C197.712 342.008 197.623 350.597 197.514 350.597Z" fill="#263238"/>
<path d="M240.834 147.606C240.065 149.141 242.913 150.378 244.556 150.874C246.199 151.371 247.951 151.319 249.665 151.227C251.936 151.104 254.289 150.892 256.264 149.764C258.019 148.762 259.327 147.105 260.242 145.303C261.156 143.501 261.711 141.542 262.261 139.597C262.261 139.597 244.257 140.776 240.834 147.606Z" fill="#3B37FF"/>
<g opacity="0.4">
<path d="M240.834 147.606C240.065 149.141 242.913 150.378 244.556 150.874C246.199 151.371 247.951 151.319 249.665 151.227C251.936 151.104 254.289 150.892 256.264 149.764C258.019 148.762 259.327 147.105 260.242 145.303C261.156 143.501 261.711 141.542 262.261 139.597C262.261 139.597 244.257 140.776 240.834 147.606Z" fill="black"/>
</g>
<path d="M291.694 142.727C294.631 144.826 298.246 145.961 301.856 145.918C303.585 145.897 305.418 145.563 306.695 144.396C307.283 143.86 307.721 143.173 308.326 142.656C308.736 142.305 309.217 142.038 309.603 141.661C309.989 141.284 310.28 140.743 310.164 140.216C310.045 139.676 309.592 138.806 309.111 138.533C307.043 137.36 304.577 137.402 302.2 137.456C299.823 137.511 297.481 138.065 295.228 138.823C293.385 139.444 291.454 140.318 290.519 142.024" fill="#3B37FF"/>
<g opacity="0.4">
<path d="M310.164 140.215C310.045 139.675 309.293 138.957 308.813 138.684C306.745 137.511 304.577 137.402 302.2 137.456C299.823 137.511 297.481 138.065 295.228 138.823C293.385 139.444 291.454 140.318 290.519 142.024L291.694 142.728C294.631 144.826 298.246 145.962 301.856 145.918C303.585 145.898 305.418 145.563 306.694 144.397C307.282 143.86 307.72 143.174 308.325 142.656C308.736 142.306 309.216 142.039 309.602 141.662C309.988 141.283 310.28 140.742 310.164 140.215Z" fill="black"/>
</g>
<path d="M256.547 170.081L294.534 170.578C294.868 170.583 295.107 170.259 295.005 169.941L290.549 156.042C290.549 156.042 291.205 149.097 292.113 140.739C293.49 128.056 295.323 112.108 295.346 112.152C292.752 104.871 277.422 103.629 277.422 103.629L259.948 104.668L259.333 103.643L254.305 105.98C253.208 106.491 252.156 107.086 251.15 107.76C247.832 109.983 239.826 115.075 238.367 120.757C234.993 133.896 240.708 148.565 240.708 148.565L244.375 145.698C245.334 144.97 246.245 144.345 247.286 143.753L254.648 163.477C254.648 163.477 253.115 164.411 253.051 166.009C252.987 167.607 253.844 169.534 256.547 170.081Z" fill="#3B37FF"/>
<g opacity="0.3">
<path d="M272.831 146.823C274.036 140.347 273.4 133.688 272.759 127.134C270.65 132.497 270.727 138.541 268.495 143.853C268.254 144.426 267.984 144.998 267.9 145.614C267.816 146.229 267.95 146.912 268.408 147.332C269.014 147.887 269.919 147.588 270.735 147.49C271.598 147.386 272.053 147.09 272.831 146.823Z" fill="black"/>
</g>
<g opacity="0.4">
<path d="M258.839 161.815C261.906 162.878 265.131 160.905 268.358 160.555C270.49 160.323 272.625 160.812 274.741 161.156C279.019 161.85 283.39 161.958 287.696 161.474C288.353 161.4 289.027 161.307 289.602 160.982C290.177 160.658 290.641 159.75 290.598 159.091C283.424 158.355 276.25 157.916 269.076 157.18C267.278 156.996 265.421 156.817 263.695 157.351C261.526 158.024 259.855 159.727 258.327 161.405" fill="black"/>
</g>
<path d="M309.067 137.705C305.961 130.723 295.027 111.397 295.027 111.397L286.559 122.014L288.535 142.855C288.535 142.855 293.007 137.863 305.51 137.764C308.423 137.741 310.163 140.215 310.163 140.215L309.067 137.705Z" fill="#3B37FF"/>
<path d="M258.23 134.016C258.124 134.044 257.485 132.004 256.803 129.458C256.12 126.911 255.653 124.825 255.759 124.797C255.865 124.768 256.503 126.809 257.186 129.355C257.868 131.901 258.335 133.988 258.23 134.016Z" fill="#263238"/>
<path d="M285.919 120.601C285.938 120.581 286.216 120.818 286.703 121.267C287.178 121.726 287.85 122.412 288.589 123.34C290.068 125.171 291.877 128.033 292.632 131.615C293.011 133.396 293.073 135.154 292.876 136.72C292.679 138.279 292.38 139.649 292.189 140.811C291.987 141.969 291.869 142.912 291.808 143.566C291.749 144.22 291.733 144.585 291.702 144.585C291.678 144.586 291.642 144.22 291.654 143.557C291.668 142.895 291.745 141.937 291.912 140.767C292.069 139.597 292.34 138.214 292.513 136.677C292.686 135.148 292.615 133.437 292.245 131.698C291.509 128.2 289.774 125.367 288.368 123.513C286.959 121.635 285.861 120.659 285.919 120.601Z" fill="#263238"/>
<path d="M278.164 168.42C278.17 168.446 277.876 168.53 277.337 168.66C277.068 168.73 276.736 168.803 276.345 168.853C275.955 168.908 275.512 168.993 275.015 169.015C274.025 169.11 272.837 169.107 271.526 168.995C270.218 168.858 268.789 168.598 267.334 168.155C265.884 167.696 264.559 167.101 263.403 166.473C262.258 165.823 261.278 165.151 260.517 164.513C260.12 164.213 259.803 163.892 259.512 163.627C259.218 163.364 258.986 163.116 258.804 162.906C258.433 162.494 258.239 162.259 258.259 162.24C258.316 162.185 259.133 163.099 260.69 164.293C261.463 164.895 262.444 165.53 263.578 166.152C264.724 166.751 266.029 167.325 267.452 167.776C268.88 168.211 270.28 168.477 271.564 168.631C272.85 168.761 274.019 168.793 274.997 168.734C276.955 168.633 278.148 168.342 278.164 168.42Z" fill="#263238"/>
<path d="M289.895 164.074C289.94 164.064 290.089 164.48 290.188 165.186C290.279 165.887 290.298 166.9 289.983 167.963C289.681 169.031 289.046 169.869 288.49 170.323C287.933 170.787 287.505 170.933 287.486 170.894C287.452 170.837 287.823 170.606 288.298 170.118C288.775 169.636 289.319 168.849 289.602 167.85C290.18 165.837 289.745 164.083 289.895 164.074Z" fill="#263238"/>
<path d="M287.829 166.758C287.928 166.735 288.13 167.847 287.636 169.103C287.154 170.363 286.254 171.049 286.197 170.965C286.113 170.882 286.824 170.124 287.266 168.96C287.724 167.802 287.711 166.762 287.829 166.758Z" fill="#263238"/>
<path d="M281.027 141.685C281.108 141.767 280.404 142.563 279.672 143.635C278.934 144.705 278.445 145.647 278.34 145.601C278.242 145.564 278.581 144.518 279.345 143.411C280.103 142.3 280.957 141.608 281.027 141.685Z" fill="#263238"/>
<path d="M254.957 123.231C254.915 123.281 254.312 122.794 253.272 122.115C252.234 121.435 250.733 120.595 248.962 119.931C247.189 119.272 245.503 118.922 244.273 118.756C243.042 118.588 242.269 118.56 242.269 118.496C242.268 118.451 243.046 118.378 244.304 118.477C245.559 118.574 247.29 118.887 249.1 119.56C250.907 120.238 252.42 121.136 253.431 121.885C254.446 122.633 254.987 123.198 254.957 123.231Z" fill="#263238"/>
<path d="M295.032 111.144C295.105 111.248 293.051 112.503 291.182 114.747C289.29 116.971 288.405 119.21 288.289 119.155C288.244 119.137 288.406 118.557 288.82 117.676C289.232 116.797 289.922 115.63 290.879 114.491C291.839 113.353 292.87 112.474 293.666 111.919C294.463 111.362 295.008 111.103 295.032 111.144Z" fill="#263238"/>
<path d="M279.345 104.865C279.358 104.86 279.415 104.981 279.516 105.218C279.629 105.451 279.745 105.811 279.871 106.286C280.112 107.232 280.241 108.688 279.857 110.413C279.46 112.117 278.509 114.102 276.748 115.665C275.001 117.238 272.43 118.171 269.737 118.162C267.038 118.144 264.505 117.221 262.659 115.796C260.789 114.389 259.552 112.631 258.764 111.074C257.989 109.499 257.628 108.114 257.466 107.153C257.388 106.671 257.34 106.296 257.329 106.038C257.311 105.782 257.308 105.648 257.322 105.647C257.362 105.642 257.409 106.179 257.618 107.123C257.824 108.065 258.221 109.416 259.013 110.946C259.818 112.457 261.051 114.154 262.877 115.502C264.678 116.866 267.127 117.745 269.739 117.764C272.343 117.772 274.819 116.883 276.507 115.389C278.213 113.903 279.164 111.995 279.583 110.347C279.992 108.679 279.91 107.258 279.72 106.319C279.532 105.373 279.298 104.882 279.345 104.865Z" fill="#263238"/>
<g opacity="0.3">
<path d="M282.01 143.036C281.999 142.655 281.949 142.207 281.619 142.016C281.411 141.897 281.143 141.923 280.928 142.028C280.713 142.133 280.54 142.307 280.377 142.483C279.454 143.482 278.809 144.459 278.34 145.736L282.075 145.414C282.052 144.627 282.035 143.824 282.01 143.036Z" fill="black"/>
</g>
<g opacity="0.3">
<path d="M294.41 135.178C294.123 133.041 293.032 131.087 291.702 129.391C293.311 134.664 292.773 137.639 291.868 141.25L292.063 140.746C293.1 138.635 294.696 137.314 294.41 135.178Z" fill="black"/>
</g>
<path d="M286.949 312.313L284.67 346.491L269.81 346.317L267.471 310.783L286.949 312.313Z" fill="#FFBE9D"/>
<path d="M285.094 341.992L285.097 342.981C285.097 342.981 301.847 349.722 302.023 352.901L268.754 352.706L269.272 341.638C274.204 343.958 279.38 344.246 285.094 341.992Z" fill="#3B37FF"/>
<path d="M272.619 345.197C271.975 345.37 271.525 346.091 271.671 346.742C271.816 347.394 272.545 347.857 273.194 347.695C273.841 347.534 274.408 346.685 274.19 346.054C273.973 345.423 273.086 344.926 272.496 345.238" fill="white"/>
<path d="M268.754 352.706L268.879 350.045L300.719 351.206C300.719 351.206 302.196 351.859 302.023 352.901L268.754 352.706Z" fill="#263238"/>
<path d="M285.213 343.074C285.207 343.237 284.394 343.305 283.591 343.824C282.775 344.32 282.359 345.021 282.211 344.956C282.061 344.924 282.309 343.954 283.291 343.344C284.268 342.726 285.249 342.926 285.213 343.074Z" fill="#263238"/>
<path d="M288.694 344.538C288.731 344.696 288.025 344.968 287.469 345.652C286.893 346.32 286.75 347.062 286.589 347.054C286.435 347.078 286.329 346.126 287.036 345.289C287.735 344.446 288.692 344.384 288.694 344.538Z" fill="#263238"/>
<path d="M290.651 348.726C290.504 348.761 290.283 347.947 290.705 347.06C291.121 346.169 291.889 345.823 291.957 345.959C292.047 346.093 291.551 346.567 291.216 347.301C290.863 348.026 290.813 348.711 290.651 348.726Z" fill="#263238"/>
<path d="M284.239 62.3728C285.096 60.2353 284.058 57.6514 282.202 56.2874C280.347 54.9234 277.875 54.6293 275.601 54.9897C273.326 55.3494 271.194 56.2989 269.092 57.2384C267.186 55.3227 264.172 54.5973 261.602 55.4363C259.033 56.2752 257.028 58.6397 256.62 61.3113C254.982 60.896 253.136 61.4553 252.004 62.7096C250.873 63.9638 250.505 65.8581 251.087 67.4446L261.387 71.0626L272.636 90.8495C275.925 93.6559 281.303 93.5805 284.511 90.6818C287.719 87.7832 288.339 82.44 285.878 78.8845C286.514 78.329 287.036 77.6585 287.459 76.93C289.242 75.8282 290.637 74.1083 291.099 72.0547C292.078 67.7045 288.668 62.8917 284.239 62.3728Z" fill="#263238"/>
<path d="M277.421 103.628C276.782 100.407 276.336 98.2012 276.342 98.2241C276.342 98.2241 282.415 95.8596 281.997 87.3762C281.789 83.1578 280.179 76.5063 278.687 71.1068C277.343 66.2468 272.812 60.8884 268.014 62.4375L253.502 69.5249C252.045 69.995 251.789 71.3643 252.133 72.8571L252.157 73.5848L257.803 96.9462L260.188 107.387C261.244 111.83 265.515 114.732 270.034 114.077C275.035 113.354 278.405 108.585 277.421 103.628Z" fill="#FFBE9D"/>
<path d="M278.591 76.7509C278.727 77.3026 278.372 77.8733 277.798 78.0265C277.226 78.1789 276.65 77.8566 276.514 77.3049C276.377 76.7532 276.732 76.1817 277.305 76.0293C277.878 75.8761 278.454 76.1992 278.591 76.7509Z" fill="#263238"/>
<path d="M277.965 75.1286C277.863 75.2932 276.942 74.8703 275.809 75.1111C274.675 75.3351 273.965 76.0925 273.814 75.9798C273.741 75.931 273.821 75.6552 274.128 75.3161C274.429 74.9793 274.984 74.596 275.691 74.4512C276.397 74.3072 277.045 74.4421 277.442 74.6364C277.846 74.8299 278.016 75.0539 277.965 75.1286Z" fill="#263238"/>
<path d="M267.564 79.2785C267.701 79.8302 267.346 80.4009 266.772 80.5541C266.199 80.7065 265.624 80.3841 265.487 79.8324C265.351 79.2808 265.706 78.7093 266.278 78.5569C266.853 78.4037 267.428 78.7268 267.564 79.2785Z" fill="#263238"/>
<path d="M267.009 77.8147C266.907 77.9793 265.985 77.5564 264.853 77.7971C263.718 78.0212 263.009 78.7786 262.857 78.6658C262.784 78.6171 262.863 78.342 263.172 78.0021C263.473 77.6646 264.028 77.282 264.734 77.1365C265.441 76.9925 266.089 77.1281 266.486 77.3217C266.889 77.5167 267.06 77.74 267.009 77.8147Z" fill="#263238"/>
<path d="M272.747 84.982C272.728 84.9188 273.406 84.6491 274.517 84.2642C274.8 84.1736 275.062 84.0585 275.07 83.8512C275.094 83.628 274.908 83.3415 274.697 83.0344C274.278 82.3912 273.84 81.7176 273.38 81.0113C271.533 78.124 270.132 75.7253 270.25 75.6521C270.366 75.579 271.958 77.8596 273.803 80.7469C274.252 81.4601 274.68 82.1406 275.088 82.7913C275.267 83.0969 275.533 83.4306 275.477 83.8954C275.444 84.1278 275.265 84.329 275.09 84.4182C274.916 84.5134 274.754 84.5508 274.613 84.5896C273.476 84.8906 272.765 85.0453 272.747 84.982Z" fill="#263238"/>
<path d="M276.342 98.2248C276.342 98.2248 270.893 99.7397 264.732 97.5985C264.732 97.5985 268.721 102.811 276.776 100.319L276.342 98.2248Z" fill="#EB996E"/>
<path d="M267.223 76.1992C267.147 76.5254 265.982 76.517 264.654 76.8439C263.319 77.1441 262.28 77.6714 262.067 77.4131C261.971 77.2889 262.125 76.9719 262.527 76.616C262.927 76.261 263.587 75.8891 264.385 75.7001C265.184 75.5134 265.94 75.5515 266.456 75.691C266.975 75.8304 267.254 76.0453 267.223 76.1992Z" fill="#263238"/>
<path d="M277.535 71.5251C277.353 71.8314 276.374 71.7583 275.261 71.9793C274.142 72.1667 273.248 72.582 272.974 72.3588C272.852 72.2475 272.946 71.9595 273.305 71.6295C273.659 71.3019 274.294 70.9612 275.062 70.821C275.829 70.6816 276.539 70.7761 276.981 70.959C277.428 71.1396 277.612 71.3781 277.535 71.5251Z" fill="#263238"/>
<path d="M257.072 64.0674C257.406 65.7126 258.503 67.1863 259.982 67.9803C261.462 68.7743 263.296 68.8718 264.852 68.2409C266.059 67.7509 267.303 66.832 268.528 67.2747C269.817 67.741 270.221 69.4532 271.417 70.1223C273.125 71.0786 275.184 69.422 277.134 69.5858C278.641 69.7123 279.809 70.885 280.989 71.8307C282.169 72.7763 283.807 73.5688 285.139 72.8525C284.784 71.5952 284.424 70.325 283.79 69.182C283.157 68.039 282.216 67.0186 280.999 66.5424C280.332 66.2818 279.602 66.1896 278.965 65.8627C277.589 65.1563 276.973 63.5569 275.969 62.3796C274.676 60.8625 272.615 60.0364 270.632 60.2407C268.982 60.4106 267.418 61.2412 265.761 61.1703C264.535 61.1185 263.362 60.5737 262.136 60.5942C259.748 60.6338 257.955 62.7255 256.63 64.7121" fill="#263238"/>
<path d="M265.102 65.8117C264.011 65.7309 261.766 65.5008 261.028 64.7228C259.427 63.0319 257.037 62.1457 254.9 62.7126C252.764 63.2788 251.044 65.4154 251.075 67.789C248.464 68.3514 246.255 70.5223 245.512 73.2533C244.77 75.9844 245.527 79.1657 247.416 81.2582C247.91 81.806 248.666 83.0694 248.666 83.0694C248.666 83.0694 247.686 84.2924 247.31 85.1245C245.569 88.9795 250.295 90.4563 250.295 90.4563C250.308 93.0478 252.697 93.0356 254.23 93.028C255.703 93.0204 256.61 97.1062 257.803 96.9477L256.591 84.3275C256.738 84.3862 256.919 84.4243 257.15 84.4281C260.038 84.4799 259.285 79.0148 258.349 77.6013C259.164 76.5078 259.987 75.3999 260.514 74.1152C261.042 72.8312 261.076 69.6217 260.627 68.2729C261.634 68.1251 265.581 65.8467 265.102 65.8117Z" fill="#263238"/>
<path d="M257.024 84.995C256.574 83.266 254.428 82.4941 253.096 83.6844C252.364 84.3374 251.928 85.4362 252.389 87.2757C253.62 92.1807 258.29 89.9343 258.264 89.791C258.247 89.7026 257.55 87.0204 257.024 84.995Z" fill="#FFBE9D"/>
<path d="M256.299 88.3082C256.273 88.2983 256.228 88.3897 256.101 88.4918C255.976 88.5916 255.745 88.6968 255.465 88.6656C254.899 88.6054 254.257 87.8921 254.012 87.0135C253.887 86.5701 253.874 86.122 253.944 85.7303C254.003 85.3341 254.172 85.0247 254.422 84.9135C254.667 84.7885 254.891 84.8982 254.985 85.0209C255.086 85.1413 255.079 85.2472 255.107 85.2495C255.124 85.2587 255.192 85.1406 255.102 84.9485C255.057 84.8563 254.971 84.755 254.832 84.6894C254.69 84.6232 254.505 84.6178 254.329 84.6834C253.957 84.8045 253.704 85.2373 253.627 85.6679C253.529 86.1052 253.534 86.6112 253.673 87.1096C253.953 88.0903 254.69 88.8881 255.451 88.9155C255.818 88.9193 256.08 88.7425 256.2 88.5894C256.32 88.4293 256.318 88.3128 256.299 88.3082Z" fill="#EB996E"/>
<path d="M283.335 78.1431C283.305 78.1058 283.779 77.801 284.405 77.0352C285.018 76.2762 285.764 74.9839 285.937 73.2244C286.02 72.355 285.978 71.3758 285.663 70.3989C285.349 69.4281 284.787 68.4512 283.921 67.6923C282.23 66.1546 279.429 65.4429 276.917 66.3283C276.687 66.4022 276.475 66.5165 276.258 66.6064C276.05 66.7154 275.853 66.8381 275.659 66.947L275.357 67.117L275.352 66.7809C275.345 66.1904 275.123 65.6181 274.736 65.18C274.353 64.7388 273.857 64.4035 273.329 64.1741C272.258 63.7032 271.108 63.6948 270.057 63.9349C267.954 64.4126 266.17 65.3743 264.485 65.5678C262.816 65.7812 261.43 65.3667 260.684 64.8043C260.298 64.5353 260.082 64.2351 259.939 64.0423C259.816 63.8312 259.758 63.7192 259.769 63.7131C259.809 63.6811 260.014 64.181 260.768 64.6831C261.506 65.1838 262.841 65.5404 264.448 65.3004C265.246 65.1823 266.099 64.8973 267.007 64.562C267.916 64.2297 268.888 63.8312 269.982 63.5874C270.528 63.4708 271.102 63.3847 271.704 63.4152C272.301 63.4464 272.904 63.5821 273.479 63.8236C274.052 64.069 274.598 64.4302 275.032 64.927C275.471 65.4185 275.741 66.0928 275.747 66.784L275.441 66.6179C275.648 66.4998 275.858 66.3694 276.079 66.2529C276.31 66.1561 276.537 66.0349 276.781 65.9564C279.454 65.0184 282.384 65.7819 284.165 67.4218C285.075 68.2325 285.662 69.2795 285.977 70.3037C286.293 71.3354 286.32 72.3565 286.215 73.2572C285.998 75.0783 285.187 76.3897 284.522 77.1365C284.186 77.5129 283.891 77.7758 283.673 77.9252C283.459 78.0783 283.343 78.1545 283.335 78.1431Z" fill="#455A64"/>
<path d="M282.337 60.9173C282.309 60.973 281.816 60.5318 280.758 60.3756C280.237 60.3077 279.578 60.3108 278.882 60.5455C278.188 60.7611 277.456 61.2214 276.951 61.9498L276.765 62.2188L276.65 61.914C276.034 60.2704 274.233 58.7075 272.002 58.4622C270.327 58.2694 268.802 59.0245 267.534 59.7538C266.257 60.5013 265.091 61.2328 263.992 61.5864C262.906 61.9681 261.944 62.01 261.311 61.9018C260.994 61.8462 260.755 61.7715 260.6 61.706C260.445 61.6389 260.367 61.5978 260.372 61.5848C260.384 61.549 260.712 61.6862 261.33 61.7479C261.946 61.8058 262.857 61.7243 263.896 61.322C264.948 60.9463 266.063 60.214 267.349 59.4375C267.996 59.0588 268.695 58.6702 269.484 58.3951C270.266 58.1139 271.153 57.973 272.043 58.0675C274.438 58.3319 276.338 60.0159 276.969 61.7914L276.668 61.7555C277.242 60.9577 278.052 60.4845 278.799 60.2773C279.549 60.0509 280.247 60.0769 280.79 60.1782C281.337 60.2849 281.734 60.4799 281.985 60.6346C282.232 60.7985 282.347 60.9051 282.337 60.9173Z" fill="#455A64"/>
<path d="M272.308 87.2345C271.963 86.9008 271.446 86.7918 270.969 86.8459C270.521 86.897 269.969 87.297 269.685 87.7832C269.678 87.7923 269.672 87.8022 269.666 87.8121C269.654 87.8335 269.635 87.8525 269.623 87.8746L269.642 87.8617C269.538 88.0346 269.477 88.2373 269.498 88.437C269.547 88.8873 269.889 89.2653 270.294 89.4672C270.938 89.7895 271.79 89.6958 272.29 89.1776C272.79 88.6602 272.825 87.7344 272.308 87.2345Z" fill="#3B37FF"/>
<path d="M272.688 89.6044C272.629 89.6158 272.555 89.378 272.352 89.0588C272.154 88.741 271.799 88.3425 271.291 88.1101C270.782 87.8799 270.248 87.8739 269.879 87.9341C269.505 87.9912 269.277 88.091 269.246 88.0392C269.219 87.9996 269.406 87.8022 269.811 87.662C270.207 87.521 270.841 87.4715 271.455 87.7496C272.068 88.0301 272.447 88.5406 272.601 88.9315C272.762 89.3285 272.736 89.599 272.688 89.6044Z" fill="#263238"/>
<path d="M257.136 90.5469C257.173 90.5233 257.354 90.9287 257.068 91.5063C256.926 91.7806 256.663 92.0839 256.256 92.2409C255.849 92.4047 255.328 92.343 254.912 92.0809C254.496 91.8202 254.216 91.376 254.187 90.9379C254.152 90.5028 254.313 90.1347 254.498 89.8878C254.896 89.3803 255.339 89.3689 255.334 89.4123C255.36 89.4725 254.999 89.5853 254.731 90.044C254.603 90.2681 254.505 90.5751 254.55 90.8982C254.588 91.2183 254.802 91.5398 255.123 91.7448C255.447 91.9467 255.83 92.0001 256.134 91.8957C256.444 91.7966 256.679 91.5756 256.826 91.3638C257.124 90.9234 257.07 90.5492 257.136 90.5469Z" fill="#3B37FF"/>
<path d="M254.562 90.2536C254.605 90.2734 254.54 90.5134 254.208 90.6757C254.047 90.7504 253.822 90.7976 253.575 90.7374C253.326 90.6795 253.088 90.4944 252.952 90.2421C252.815 89.9899 252.789 89.6897 252.878 89.4489C252.962 89.2089 253.125 89.0473 253.276 88.9528C253.593 88.7639 253.83 88.8401 253.823 88.8865C253.828 88.946 253.637 88.9848 253.447 89.1753C253.253 89.359 253.109 89.7133 253.301 90.0524C253.48 90.3984 253.856 90.4723 254.115 90.4105C254.378 90.3557 254.515 90.2178 254.562 90.2536Z" fill="#3B37FF"/>
<path d="M262.943 157.928C262.943 157.928 281.809 159.022 292.961 159.124C301.599 159.203 305.449 156.909 307.176 151.359C308.626 146.699 305.51 137.764 305.51 137.764C299.669 137.793 296.065 138.599 292.306 140.36L293.308 144.446L262.889 147.069L262.943 157.928Z" fill="#FFBE9D"/>
<path d="M299.649 148.806C299.545 148.877 298.658 147.224 296.801 145.979C294.964 144.705 293.101 144.484 293.129 144.361C293.134 144.314 293.602 144.303 294.339 144.467C295.074 144.628 296.067 145.001 297.025 145.652C297.979 146.306 298.69 147.093 299.109 147.718C299.53 148.343 299.69 148.784 299.649 148.806Z" fill="#EB996E"/>
<path d="M256.034 140.333C256.034 140.333 250.198 141.733 245.914 144.598L250.47 156.99C251.993 161.057 256.656 163.056 260.35 160.946C266.088 157.668 268.111 148.095 268.111 148.095L274.418 120.756L263.971 114.211L256.034 140.333Z" fill="#FFBE9D"/>
<path d="M263.971 114.211L264.392 105.219L262.06 96.1126C261.93 95.6081 261.867 94.9787 262.275 94.6716C262.702 94.3508 263.341 94.3668 263.684 94.7166C264.323 95.3696 267.369 103.368 267.369 103.368C267.369 103.368 271.992 100.589 272.817 100.454C273.643 100.318 274.671 102.806 274.736 103.003C274.801 103.199 274.745 104.674 274.745 104.674C274.745 104.674 277.604 104.759 277.86 105.151C278.116 105.544 278.19 107.577 278.19 107.577C278.19 107.577 279.398 107.965 279.593 108.881C279.788 109.799 280.177 111.306 279.607 111.637C279.037 111.968 277.834 112.63 277.834 112.63C277.834 112.63 277.349 117.295 277.224 117.719C277.099 118.144 274.419 120.756 274.419 120.756L263.971 114.211Z" fill="#FFBE9D"/>
<path d="M254.254 161.134C254.267 161.109 254.539 161.296 255.13 161.488C255.714 161.685 256.64 161.863 257.823 161.702C258.993 161.544 260.434 161.03 261.723 159.903C262.994 158.754 264.28 157.23 265.349 155.313C265.881 154.355 266.36 153.302 266.761 152.165C267.173 151.03 267.44 149.799 267.739 148.512C268.337 145.944 268.981 143.18 269.666 140.242C271.041 134.364 272.579 127.793 274.235 120.715L274.247 120.662L274.287 120.623C274.811 120.109 275.338 119.579 275.86 119.034C276.12 118.761 276.38 118.485 276.629 118.201C276.75 118.059 276.878 117.913 276.975 117.771C277.064 117.679 277.067 117.495 277.103 117.301C277.31 115.775 277.47 114.199 277.64 112.611L277.65 112.511L277.739 112.461C278.216 112.193 278.7 111.922 279.192 111.647C279.302 111.581 279.465 111.502 279.534 111.447C279.594 111.398 279.648 111.312 279.671 111.192C279.727 110.959 279.709 110.676 279.68 110.402C279.611 109.865 279.485 109.242 279.342 108.746C279.152 108.283 278.629 107.95 278.129 107.767L277.997 107.719L277.992 107.587C277.973 107.146 277.943 106.691 277.893 106.24C277.867 106.014 277.838 105.786 277.792 105.571C277.768 105.468 277.739 105.351 277.704 105.289C277.681 105.238 277.691 105.276 277.657 105.244C277.617 105.226 277.584 105.204 277.529 105.19C276.682 104.957 275.684 104.923 274.739 104.876L274.54 104.866L274.547 104.67C274.561 104.2 274.581 103.675 274.56 103.181C274.572 103.051 274.454 102.853 274.382 102.67C274.3 102.487 274.212 102.305 274.121 102.127C273.936 101.772 273.734 101.424 273.497 101.121C273.379 100.973 273.249 100.828 273.11 100.741C272.955 100.648 272.889 100.627 272.705 100.694C272.351 100.819 271.985 101.01 271.63 101.187C270.208 101.927 268.826 102.735 267.471 103.54L267.273 103.658L267.187 103.445C266.466 101.64 265.755 99.8586 265.054 98.1022C264.703 97.2243 264.355 96.3526 264.01 95.4877C263.884 95.0503 263.578 94.8035 263.172 94.7036C262.769 94.6008 262.37 94.725 262.181 95.0671C262.086 95.2287 262.044 95.423 262.065 95.6097C262.087 95.7796 262.171 96.0364 262.22 96.2452C262.336 96.6848 262.451 97.1222 262.566 97.5573C262.794 98.4283 263.021 99.2916 263.246 100.147C263.695 101.857 264.135 103.534 264.567 105.177L264.574 105.204L264.572 105.231C264.42 108.36 264.275 111.363 264.136 114.222L264.135 114.244L264.129 114.263C261.25 123.633 258.862 131.405 257.187 136.852C256.346 139.551 255.685 141.674 255.228 143.139C255.001 143.849 254.826 144.399 254.701 144.788C254.579 145.16 254.504 145.348 254.504 145.348C254.504 145.348 254.547 145.15 254.653 144.773C254.767 144.381 254.927 143.826 255.133 143.11C255.57 141.638 256.202 139.506 257.006 136.796C258.647 131.338 260.99 123.553 263.814 114.165L263.807 114.206C263.936 111.346 264.073 108.343 264.215 105.213L264.221 105.267C263.786 103.626 263.341 101.949 262.888 100.24C262.662 99.3846 262.433 98.522 262.202 97.6511C262.087 97.216 261.971 96.7786 261.855 96.3389C261.8 96.1057 261.73 95.9297 261.688 95.6478C261.659 95.3811 261.716 95.1052 261.852 94.872C261.99 94.6381 262.202 94.4484 262.47 94.3531C262.736 94.2647 263.004 94.2731 263.258 94.328C263.51 94.3882 263.756 94.5009 263.956 94.6831C264.159 94.8507 264.298 95.1395 264.366 95.3399C264.713 96.2048 265.062 97.0757 265.413 97.9536C266.117 99.7092 266.83 101.491 267.552 103.295L267.268 103.2C268.63 102.39 270.008 101.582 271.449 100.832C271.816 100.65 272.168 100.461 272.58 100.316C272.692 100.283 272.802 100.243 272.963 100.262C273.102 100.281 273.231 100.337 273.324 100.406C273.529 100.538 273.672 100.705 273.807 100.872C274.07 101.21 274.279 101.573 274.472 101.943C274.567 102.128 274.658 102.315 274.742 102.506C274.813 102.702 274.941 102.864 274.953 103.153C274.977 103.693 274.956 104.2 274.941 104.683L274.749 104.477C275.73 104.53 276.679 104.546 277.659 104.815C277.719 104.83 277.789 104.867 277.855 104.9C277.915 104.929 278.037 105.037 278.052 105.1C278.126 105.246 278.145 105.362 278.177 105.485C278.229 105.727 278.258 105.961 278.285 106.195C278.336 106.662 278.366 107.118 278.385 107.572L278.248 107.391C278.837 107.614 279.42 107.956 279.704 108.595C279.888 109.223 279.985 109.752 280.069 110.359C280.098 110.657 280.126 110.958 280.05 111.285C280.018 111.443 279.935 111.628 279.774 111.756C279.615 111.871 279.516 111.907 279.385 111.987C278.891 112.262 278.405 112.535 277.925 112.803L278.025 112.653C277.854 114.245 277.692 115.813 277.481 117.358L277.432 117.654C277.425 117.744 277.353 117.913 277.291 117.986C277.17 118.163 277.044 118.304 276.916 118.454C276.659 118.746 276.397 119.024 276.133 119.299C275.606 119.847 275.076 120.376 274.547 120.894L274.599 120.802C272.923 127.875 271.367 134.443 269.975 140.317C269.277 143.251 268.62 146.013 268.01 148.578C267.706 149.856 267.426 151.105 267.003 152.252C266.589 153.401 266.098 154.463 265.552 155.429C264.455 157.361 263.142 158.89 261.842 160.041C260.507 161.183 259.033 161.685 257.839 161.827C256.632 161.971 255.693 161.769 255.109 161.551C254.814 161.442 254.598 161.341 254.461 161.257C254.322 161.18 254.251 161.139 254.254 161.134Z" fill="#EB996E"/>
<path d="M274.742 104.659C274.739 104.715 274.484 104.744 274.082 104.763C273.681 104.786 273.13 104.797 272.564 104.943C272 105.088 271.544 105.371 271.271 105.633C270.992 105.893 270.87 106.114 270.814 106.09C270.769 106.076 270.8 105.798 271.061 105.446C271.315 105.095 271.824 104.722 272.464 104.558C273.101 104.396 273.687 104.434 274.092 104.482C274.501 104.536 274.745 104.606 274.742 104.659Z" fill="#EB996E"/>
<path d="M272.506 104.743C272.403 104.705 272.397 104.469 272.491 104.217C272.586 103.965 272.745 103.792 272.848 103.831C272.951 103.869 272.957 104.104 272.863 104.357C272.769 104.608 272.609 104.781 272.506 104.743Z" fill="#EB996E"/>
<path d="M278.313 107.51C278.311 107.625 277.292 107.744 276.051 107.822C275.437 107.877 274.975 108.097 274.793 108.428C274.591 108.74 274.658 108.998 274.601 109.015C274.564 109.05 274.357 108.758 274.542 108.302C274.627 108.087 274.814 107.849 275.087 107.697C275.355 107.543 275.68 107.467 276.003 107.429C277.284 107.346 278.315 107.406 278.313 107.51Z" fill="#EB996E"/>
<path d="M277.804 110.251C277.914 110.257 277.977 110.82 277.946 111.51C277.915 112.2 277.801 112.755 277.692 112.75C277.582 112.745 277.519 112.182 277.55 111.492C277.581 110.802 277.695 110.246 277.804 110.251Z" fill="#EB996E"/>
<path d="M280.973 130.775L281.65 128.439C281.786 127.97 282.377 127.822 282.718 128.17L283.602 129.072L284.155 126.875C284.3 126.296 285.09 126.216 285.349 126.755L286.596 129.356L280.973 130.775Z" fill="white"/>
<path d="M286.608 130.356C286.635 130.463 285.43 130.852 283.917 131.227C282.404 131.602 281.157 131.819 281.13 131.712C281.104 131.606 282.308 131.216 283.822 130.841C285.334 130.467 286.582 130.25 286.608 130.356Z" fill="white"/>
<path d="M241.293 117.33C241.312 117.346 241.01 117.624 240.616 118.236C240.225 118.847 239.793 119.827 239.583 121.113C239.359 122.396 239.349 123.956 239.446 125.678C239.529 127.403 239.669 129.296 239.88 131.277C240.298 135.242 240.941 138.798 241.489 141.352C241.76 142.63 242.004 143.658 242.172 144.369C242.247 144.685 242.312 144.954 242.369 145.188C242.412 145.375 242.427 145.476 242.427 145.476C242.427 145.476 242.391 145.38 242.337 145.196C242.273 144.965 242.199 144.698 242.112 144.385C241.924 143.678 241.664 142.652 241.378 141.376C240.802 138.826 240.141 135.266 239.721 131.295C239.51 129.311 239.375 127.413 239.299 125.686C239.21 123.961 239.231 122.388 239.472 121.094C239.699 119.797 240.153 118.81 240.564 118.202C240.979 117.593 241.293 117.33 241.293 117.33Z" fill="white"/>
<path d="M257.329 106.971C257.331 106.976 257.272 107.008 257.158 107.065C257.002 107.139 256.837 107.218 256.655 107.305C256.218 107.512 255.589 107.819 254.833 108.237C253.31 109.055 251.281 110.32 249.107 111.815C246.932 113.311 245.003 114.724 243.595 115.731C242.947 116.19 242.39 116.584 241.921 116.916C241.755 117.03 241.603 117.133 241.46 117.23C241.354 117.3 241.297 117.335 241.294 117.33C241.291 117.326 241.342 117.282 241.441 117.204C241.578 117.1 241.724 116.988 241.885 116.866C242.345 116.523 242.892 116.114 243.528 115.64C244.919 114.611 246.838 113.182 249.016 111.684C251.194 110.187 253.239 108.933 254.779 108.138C255.545 107.732 256.184 107.439 256.629 107.248C256.816 107.171 256.985 107.101 257.145 107.036C257.264 106.988 257.327 106.966 257.329 106.971Z" fill="white"/>
<path d="M293.67 111.928C293.666 111.932 293.622 111.898 293.542 111.832C293.433 111.737 293.321 111.639 293.199 111.535C292.9 111.281 292.453 110.925 291.865 110.54C290.701 109.749 288.961 108.859 286.966 108.061C284.969 107.263 283.103 106.696 281.743 106.323C281.065 106.134 280.511 105.996 280.127 105.901C279.972 105.862 279.827 105.824 279.687 105.789C279.586 105.762 279.534 105.745 279.535 105.74C279.536 105.734 279.591 105.74 279.693 105.758C279.835 105.785 279.982 105.812 280.14 105.841C280.528 105.917 281.087 106.039 281.772 106.214C283.142 106.56 285.019 107.112 287.025 107.914C289.028 108.715 290.771 109.627 291.928 110.447C293.096 111.253 293.67 111.928 293.67 111.928Z" fill="white"/>
<path d="M257.545 170.093C257.541 170.102 257.434 170.069 257.247 169.991C257.062 169.912 256.797 169.784 256.492 169.586C255.893 169.207 255.079 168.464 254.834 167.342C254.582 166.242 254.819 165.204 255.129 164.554C255.283 164.224 255.445 163.976 255.57 163.817C255.695 163.658 255.775 163.579 255.782 163.585C255.808 163.603 255.507 163.941 255.232 164.598C254.955 165.244 254.746 166.249 254.989 167.306C255.22 168.372 255.982 169.096 256.555 169.493C257.139 169.901 257.558 170.065 257.545 170.093Z" fill="white"/>
<path d="M255.119 161.843C255.161 161.83 255.324 162.259 255.482 162.799C255.64 163.34 255.734 163.788 255.692 163.8C255.65 163.812 255.488 163.384 255.33 162.843C255.171 162.304 255.077 161.855 255.119 161.843Z" fill="white"/>
<path d="M265.421 332.688L288.666 332.571L288.244 252.211L288.028 170.472L256.547 170.081L250.888 180.75C248.605 185.055 247.053 189.733 246.533 194.578C246.138 198.271 248.904 210.314 249.871 213.378L258.535 240.857L265.421 332.688Z" fill="#263238"/>
<path d="M294.848 170.582L320.387 240.207C323.386 249.538 322.384 258.79 317.238 267.409L287.586 325.287L270.913 304.43L295.724 252.58L273.851 217.144L277.532 170.656L287.834 170.491L294.848 170.582Z" fill="#263238"/>
<path d="M285.904 193.907C285.904 193.907 285.924 194.027 285.94 194.264C285.956 194.517 285.978 194.866 286.007 195.313C286.057 196.255 286.129 197.611 286.222 199.349C286.393 202.874 286.638 207.942 286.94 214.197C287.229 220.473 287.573 227.936 287.954 236.222C288.14 240.368 288.335 244.719 288.539 249.229C288.684 251.483 288.617 253.782 288.645 256.114C288.652 258.445 288.659 260.811 288.666 263.205C288.698 282.355 288.727 299.689 288.748 312.257C288.74 318.52 288.732 323.593 288.728 327.121C288.716 328.862 288.708 330.22 288.702 331.162C288.695 331.61 288.689 331.959 288.685 332.213C288.679 332.45 288.666 332.571 288.666 332.571C288.666 332.571 288.652 332.45 288.645 332.213C288.639 331.959 288.632 331.61 288.622 331.162C288.61 330.22 288.594 328.862 288.573 327.121C288.548 323.593 288.512 318.52 288.467 312.258C288.416 299.692 288.346 282.361 288.269 263.212C288.262 260.819 288.256 258.454 288.25 256.122C288.224 253.791 288.293 251.492 288.15 249.238C287.955 244.729 287.768 240.378 287.589 236.233C287.239 227.947 286.924 220.483 286.66 214.208C286.41 207.951 286.209 202.882 286.068 199.356C286.007 197.616 285.959 196.259 285.927 195.317C285.915 194.869 285.906 194.52 285.9 194.266C285.896 194.029 285.904 193.907 285.904 193.907Z" fill="#455A64"/>
<path d="M285.323 171.956C285.35 171.953 285.406 172.223 285.483 172.713C285.563 173.203 285.657 173.914 285.758 174.796C285.962 176.558 286.176 179.002 286.299 181.707C286.42 184.414 286.427 186.867 286.383 188.641C286.361 189.528 286.331 190.245 286.297 190.74C286.264 191.235 286.232 191.509 286.205 191.508C286.147 191.507 286.131 190.41 286.103 188.639C286.075 186.868 286.024 184.423 285.902 181.725C285.78 179.027 285.611 176.587 285.48 174.822C285.348 173.056 285.265 171.962 285.323 171.956Z" fill="#455A64"/>
<path d="M280.201 173.524C280.241 173.574 279.804 173.772 279.685 174.393C279.629 174.689 279.691 175.068 279.981 175.322C280.256 175.578 280.736 175.706 281.124 175.531C281.509 175.352 281.727 174.904 281.713 174.528C281.71 174.144 281.463 173.85 281.203 173.698C280.655 173.383 280.22 173.584 280.208 173.521C280.198 173.501 280.281 173.42 280.478 173.363C280.672 173.306 280.988 173.292 281.332 173.449C281.668 173.591 282.049 173.975 282.078 174.509C282.115 175.017 281.857 175.619 281.289 175.89C280.712 176.143 280.087 175.945 279.728 175.585C279.342 175.214 279.3 174.675 279.412 174.327C279.518 173.965 279.736 173.734 279.905 173.624C280.077 173.514 280.192 173.503 280.201 173.524Z" fill="#455A64"/>
<path d="M268.006 172.144C268.028 172.139 268.122 172.393 268.215 172.873C268.31 173.353 268.369 174.068 268.283 174.945C268.199 175.82 267.935 176.854 267.404 177.897C266.877 178.937 266.057 179.975 264.959 180.775C263.849 181.56 262.604 182.005 261.449 182.171C260.29 182.341 259.226 182.261 258.37 182.061C257.512 181.863 256.854 181.579 256.429 181.335C256.004 181.093 255.793 180.922 255.805 180.903C255.843 180.826 256.742 181.47 258.426 181.786C260.068 182.113 262.601 181.965 264.727 180.453C266.838 178.922 267.79 176.57 268.005 174.909C268.244 173.213 267.921 172.155 268.006 172.144Z" fill="#455A64"/>
<path d="M297.906 178.815C297.906 178.853 297.329 178.896 296.442 178.642C295.559 178.394 294.397 177.771 293.443 176.724C292.492 175.672 291.984 174.455 291.823 173.552C291.654 172.645 291.753 172.074 291.791 172.079C291.862 172.078 291.866 172.639 292.095 173.488C292.319 174.337 292.838 175.461 293.736 176.457C294.64 177.447 295.709 178.072 296.532 178.376C297.355 178.687 297.912 178.745 297.906 178.815Z" fill="#455A64"/>
<path d="M306.983 253.877C307.01 253.912 306.543 254.378 305.636 254.948C305.18 255.227 304.605 255.529 303.902 255.706C303.206 255.886 302.364 255.911 301.563 255.644C299.94 255.108 298.927 253.889 298.308 253.053C297.687 252.189 297.375 251.615 297.414 251.587C297.463 251.551 297.862 252.074 298.529 252.88C299.195 253.663 300.199 254.781 301.684 255.266C303.175 255.765 304.604 255.179 305.498 254.705C306.414 254.212 306.945 253.824 306.983 253.877Z" fill="#455A64"/>
<path d="M301.165 258.324C301.076 258.387 299.999 257.026 298.76 255.284C297.521 253.542 296.588 252.078 296.678 252.014C296.767 251.951 297.844 253.312 299.084 255.054C300.323 256.796 301.254 258.261 301.165 258.324Z" fill="#455A64"/>
<path d="M262.114 196.61C262.011 196.65 261.74 196.212 261.508 195.63C261.275 195.048 261.169 194.543 261.271 194.502C261.372 194.462 261.643 194.901 261.877 195.482C262.109 196.064 262.216 196.569 262.114 196.61Z" fill="#FAFAFA"/>
<path d="M276.869 198.717C276.759 198.717 276.67 198.34 276.67 197.875C276.67 197.409 276.76 197.031 276.869 197.031C276.978 197.031 277.067 197.408 277.067 197.875C277.067 198.34 276.978 198.717 276.869 198.717Z" fill="#FAFAFA"/>
<path d="M270.805 206.728C270.695 206.736 270.575 206.27 270.535 205.688C270.496 205.106 270.552 204.628 270.662 204.621C270.771 204.613 270.892 205.079 270.931 205.661C270.971 206.243 270.915 206.721 270.805 206.728Z" fill="#FAFAFA"/>
<path d="M259.725 212.628C259.635 212.696 259.32 212.414 258.912 212.122C258.508 211.824 258.144 211.611 258.179 211.505C258.209 211.402 258.684 211.463 259.145 211.801C259.609 212.136 259.814 212.568 259.725 212.628Z" fill="#FAFAFA"/>
<path d="M279.257 220.076C279.166 220.015 279.281 219.683 279.513 219.334C279.746 218.985 280.008 218.751 280.1 218.812C280.191 218.873 280.076 219.205 279.843 219.554C279.611 219.903 279.348 220.137 279.257 220.076Z" fill="#FAFAFA"/>
<path d="M267.173 222.184C267.063 222.184 266.975 221.555 266.975 220.779C266.975 220.002 267.064 219.374 267.173 219.374C267.282 219.374 267.371 220.003 267.371 220.779C267.371 221.555 267.282 222.184 267.173 222.184Z" fill="#FAFAFA"/>
<path d="M263.255 230.731C263.191 230.82 262.793 230.641 262.365 230.331C261.938 230.02 261.644 229.697 261.708 229.608C261.773 229.52 262.171 229.699 262.598 230.009C263.026 230.319 263.32 230.643 263.255 230.731Z" fill="#FAFAFA"/>
<path d="M275.463 233.706C275.507 233.806 275.26 234.013 274.911 234.169C274.562 234.324 274.243 234.368 274.198 234.268C274.154 234.169 274.401 233.961 274.75 233.806C275.099 233.651 275.418 233.606 275.463 233.706Z" fill="#FAFAFA"/>
<path d="M267.173 247.617C267.074 247.666 266.68 247.077 266.292 246.301C265.905 245.525 265.669 244.857 265.767 244.807C265.866 244.758 266.26 245.347 266.648 246.124C267.035 246.899 267.27 247.568 267.173 247.617Z" fill="#FAFAFA"/>
<path d="M280.662 246.353C280.565 246.301 280.739 245.788 281.049 245.205C281.359 244.623 281.689 244.194 281.786 244.245C281.883 244.297 281.71 244.811 281.399 245.393C281.089 245.974 280.759 246.405 280.662 246.353Z" fill="#FAFAFA"/>
<path d="M274.76 258.156C274.648 258.14 274.657 257.538 274.54 256.823C274.431 256.107 274.238 255.537 274.339 255.486C274.43 255.435 274.81 255.974 274.932 256.761C275.058 257.547 274.863 258.178 274.76 258.156Z" fill="#FAFAFA"/>
<path d="M268.438 264.901C268.356 264.975 267.976 264.688 267.588 264.262C267.2 263.835 266.951 263.429 267.033 263.356C267.113 263.282 267.494 263.568 267.882 263.995C268.269 264.422 268.518 264.828 268.438 264.901Z" fill="#FAFAFA"/>
<path d="M283.784 267.461C283.706 267.384 283.986 266.974 284.41 266.544C284.833 266.114 285.24 265.828 285.318 265.904C285.396 265.981 285.116 266.392 284.692 266.823C284.269 267.252 283.862 267.537 283.784 267.461Z" fill="#FAFAFA"/>
<path d="M274.957 277.556C274.849 277.539 274.847 276.959 274.953 276.259C275.059 275.559 275.234 275.005 275.342 275.022C275.45 275.039 275.452 275.619 275.346 276.319C275.239 277.019 275.065 277.573 274.957 277.556Z" fill="#FAFAFA"/>
<path d="M269.017 282.455C268.923 282.511 268.59 282.118 268.273 281.578C267.957 281.038 267.777 280.555 267.873 280.5C267.967 280.444 268.3 280.837 268.616 281.377C268.932 281.917 269.112 282.399 269.017 282.455Z" fill="#FAFAFA"/>
<path d="M283.326 288.64C283.39 288.729 283.002 289.117 282.459 289.505C281.917 289.894 281.424 290.136 281.36 290.048C281.296 289.959 281.685 289.571 282.228 289.183C282.771 288.794 283.262 288.551 283.326 288.64Z" fill="#FAFAFA"/>
<path d="M271.409 296.665C271.302 296.626 271.438 296.012 271.502 295.254C271.572 294.497 271.545 293.869 271.657 293.849C271.76 293.827 271.971 294.471 271.897 295.289C271.827 296.108 271.507 296.705 271.409 296.665Z" fill="#FAFAFA"/>
<path d="M276.166 308.18C276.08 308.249 275.759 307.99 275.449 307.602C275.139 307.214 274.956 306.844 275.042 306.775C275.127 306.707 275.449 306.966 275.759 307.353C276.069 307.742 276.251 308.112 276.166 308.18Z" fill="#FAFAFA"/>
<path d="M270.967 315.909C270.876 315.972 270.457 315.518 270.03 314.897C269.603 314.276 269.331 313.723 269.42 313.661C269.51 313.599 269.93 314.051 270.357 314.672C270.784 315.294 271.056 315.847 270.967 315.909Z" fill="#FAFAFA"/>
<path d="M285.299 306.214C285.196 306.175 285.207 305.892 285.324 305.582C285.441 305.271 285.618 305.051 285.721 305.09C285.824 305.128 285.812 305.411 285.696 305.721C285.579 306.031 285.402 306.252 285.299 306.214Z" fill="#FAFAFA"/>
<path d="M278.976 324.621C278.876 324.569 279.067 324.026 279.215 323.347C279.369 322.67 279.425 322.097 279.538 322.092C279.643 322.083 279.768 322.696 279.602 323.433C279.44 324.172 279.068 324.674 278.976 324.621Z" fill="#FAFAFA"/>
<path d="M283.085 206.852C282.986 206.898 282.745 206.592 282.546 206.167C282.347 205.742 282.266 205.36 282.366 205.314C282.465 205.268 282.707 205.574 282.906 205.999C283.104 206.424 283.184 206.805 283.085 206.852Z" fill="#FAFAFA"/>
<path d="M272.512 183.12C272.572 183.217 272.036 183.645 271.47 184.255C270.898 184.86 270.505 185.422 270.404 185.369C270.31 185.323 270.567 184.633 271.18 183.983C271.789 183.33 272.461 183.029 272.512 183.12Z" fill="#FAFAFA"/>
<path d="M281.926 182.839C281.816 182.861 281.637 182.408 281.372 181.886C281.113 181.361 280.859 180.946 280.943 180.871C281.02 180.798 281.44 181.13 281.727 181.709C282.018 182.286 282.031 182.821 281.926 182.839Z" fill="#FAFAFA"/>
<path d="M252.595 190.582C252.493 190.541 252.597 190.036 252.827 189.453C253.058 188.87 253.327 188.43 253.429 188.47C253.531 188.51 253.427 189.016 253.196 189.599C252.966 190.182 252.696 190.622 252.595 190.582Z" fill="#FAFAFA"/>
<path d="M253.542 202.09C253.472 202.175 253.038 201.928 252.572 201.54C252.107 201.152 251.786 200.769 251.856 200.685C251.926 200.6 252.36 200.847 252.826 201.235C253.292 201.623 253.612 202.005 253.542 202.09Z" fill="#FAFAFA"/>
<path d="M272.793 173.987C272.691 174.027 272.483 173.746 272.327 173.358C272.172 172.97 272.129 172.623 272.231 172.582C272.333 172.541 272.541 172.822 272.696 173.21C272.852 173.598 272.894 173.946 272.793 173.987Z" fill="#FAFAFA"/>
<path d="M291.225 179.613C291.118 179.589 291.127 179.13 291.246 178.588C291.365 178.045 291.548 177.624 291.656 177.647C291.762 177.671 291.753 178.13 291.634 178.672C291.515 179.215 291.332 179.636 291.225 179.613Z" fill="#FAFAFA"/>
<path d="M295.557 188.319C295.456 188.277 295.594 187.709 295.866 187.049C296.138 186.389 296.44 185.888 296.541 185.93C296.642 185.972 296.504 186.541 296.232 187.201C295.96 187.86 295.659 188.361 295.557 188.319Z" fill="#FAFAFA"/>
<path d="M292.466 195.345C292.368 195.394 292.006 194.867 291.656 194.169C291.307 193.47 291.103 192.865 291.201 192.816C291.299 192.767 291.661 193.294 292.011 193.992C292.36 194.69 292.563 195.296 292.466 195.345Z" fill="#FAFAFA"/>
<path d="M299.07 202.371C298.968 202.332 299.042 201.891 299.236 201.387C299.43 200.882 299.67 200.505 299.772 200.545C299.874 200.584 299.801 201.025 299.606 201.529C299.412 202.033 299.172 202.41 299.07 202.371Z" fill="#FAFAFA"/>
<path d="M293.168 209.257C293.075 209.315 292.843 209.11 292.649 208.8C292.454 208.489 292.373 208.191 292.466 208.133C292.559 208.075 292.791 208.279 292.985 208.59C293.179 208.899 293.261 209.199 293.168 209.257Z" fill="#FAFAFA"/>
<path d="M294.428 223.453C294.348 223.528 293.873 223.148 293.369 222.605C292.864 222.061 292.52 221.561 292.6 221.486C292.68 221.411 293.154 221.792 293.659 222.335C294.164 222.878 294.508 223.379 294.428 223.453Z" fill="#FAFAFA"/>
<path d="M302.161 215.299C302.075 215.366 301.659 214.981 301.233 214.437C300.806 213.894 300.529 213.399 300.615 213.331C300.701 213.263 301.117 213.649 301.544 214.192C301.972 214.735 302.248 215.231 302.161 215.299Z" fill="#FAFAFA"/>
<path d="M306.404 226.553C306.305 226.506 306.478 225.934 306.791 225.275C307.103 224.616 307.436 224.121 307.535 224.167C307.634 224.215 307.461 224.786 307.149 225.445C306.837 226.104 306.503 226.6 306.404 226.553Z" fill="#FAFAFA"/>
<path d="M297.384 235.814C297.287 235.873 296.933 235.449 296.443 235.001C295.956 234.547 295.506 234.229 295.557 234.128C295.601 234.031 296.177 234.213 296.712 234.709C297.249 235.203 297.477 235.763 297.384 235.814Z" fill="#FAFAFA"/>
<path d="M297.946 245.369C297.946 245.479 297.569 245.567 297.104 245.567C296.638 245.567 296.261 245.478 296.261 245.369C296.261 245.26 296.638 245.171 297.104 245.171C297.568 245.171 297.946 245.26 297.946 245.369Z" fill="#FAFAFA"/>
<path d="M307.22 242.699C307.124 242.64 307.32 242.165 307.466 241.566C307.619 240.969 307.669 240.458 307.782 240.451C307.887 240.438 308.019 240.995 307.85 241.662C307.686 242.33 307.307 242.759 307.22 242.699Z" fill="#FAFAFA"/>
<path d="M316.434 245.904C316.33 245.94 316.049 245.406 315.805 244.712C315.561 244.017 315.448 243.425 315.552 243.388C315.655 243.352 315.936 243.886 316.18 244.581C316.423 245.275 316.538 245.867 316.434 245.904Z" fill="#FAFAFA"/>
<path d="M314.966 259.008C314.869 258.957 315.104 258.318 315.49 257.58C315.877 256.842 316.269 256.286 316.366 256.336C316.463 256.387 316.228 257.026 315.841 257.764C315.455 258.502 315.062 259.059 314.966 259.008Z" fill="#FAFAFA"/>
<path d="M306.556 266.711C306.455 266.753 306.142 266.225 305.858 265.532C305.573 264.838 305.424 264.243 305.525 264.201C305.627 264.16 305.94 264.688 306.224 265.381C306.509 266.074 306.659 266.67 306.556 266.711Z" fill="#FAFAFA"/>
<path d="M297.244 269.679C297.244 269.788 296.929 269.877 296.541 269.877C296.153 269.877 295.838 269.788 295.838 269.679C295.838 269.57 296.153 269.481 296.541 269.481C296.929 269.481 297.244 269.569 297.244 269.679Z" fill="#FAFAFA"/>
<path d="M302.583 281.904C302.477 281.932 302.265 281.484 302.11 280.901C301.955 280.319 301.915 279.825 302.021 279.797C302.127 279.768 302.339 280.217 302.494 280.799C302.649 281.381 302.689 281.875 302.583 281.904Z" fill="#FAFAFA"/>
<path d="M295.838 277.829C295.745 277.773 295.857 277.412 296.09 277.024C296.323 276.636 296.587 276.367 296.682 276.424C296.776 276.48 296.664 276.841 296.43 277.229C296.197 277.616 295.932 277.885 295.838 277.829Z" fill="#FAFAFA"/>
<path d="M295.698 291.319C295.589 291.332 295.438 290.807 295.36 290.148C295.282 289.488 295.307 288.943 295.416 288.93C295.525 288.917 295.676 289.441 295.754 290.101C295.832 290.761 295.807 291.306 295.698 291.319Z" fill="#FAFAFA"/>
</svg>
