<svg width="166" height="165" viewBox="0 0 166 165" fill="none" xmlns="http://www.w3.org/2000/svg">
<path d="M165.117 155.418L10.8008 0.318359L0.617432 10.5017L24.1174 34.0017C13.9341 46.535 7.66743 62.985 7.66743 81.0017C7.66743 124.085 42.9174 159.335 86.0008 159.335C104.017 159.335 120.467 153.068 133.001 142.885L154.934 164.818L165.117 155.418ZM86.0008 143.668C51.5341 143.668 23.3341 115.468 23.3341 81.0017C23.3341 67.685 28.0341 55.1517 35.0841 44.9684L78.1674 88.0517V120.168H93.8341V103.718L122.034 131.918C111.851 138.968 99.3174 143.668 86.0008 143.668ZM56.2341 26.1684L44.4841 14.4184C57.0174 7.36836 71.1174 2.66836 86.0008 2.66836C129.084 2.66836 164.334 37.9184 164.334 81.0017C164.334 95.885 159.634 109.985 152.584 122.518L140.834 110.768C145.534 102.152 148.667 91.9684 148.667 81.0017C148.667 46.535 120.467 18.335 86.0008 18.335C75.0341 18.335 64.8508 21.4684 56.2341 26.1684ZM78.1674 41.835H93.8341V57.5017H78.1674V41.835Z" fill="#050369" fill-opacity="0.5"/>
</svg>
