<svg width="657" height="642" viewBox="0 0 657 642" fill="none" xmlns="http://www.w3.org/2000/svg">
<path d="M655.595 308.282C668.326 490.43 523.629 642 328.117 642C132.606 642 -114.39 335.994 85.61 263.781C337.176 172.948 228.219 64.9921 359.229 18.087C490.239 -28.8182 644.3 146.693 655.595 308.282Z" fill="white"/>
<path d="M655.135 302.837C668.056 487.696 521.209 641.552 322.731 641.552C273.162 641.552 220.294 622.153 172.034 591.875C123.778 561.6 80.1626 520.468 49.1015 477.051C18.0329 433.623 -0.43764 387.964 1.50093 348.628C2.46975 328.969 8.53504 310.891 20.6731 295.443C32.8128 279.993 51.0476 267.148 76.3963 257.996C140.355 234.903 181.429 210.71 209.138 186.649C236.854 162.582 251.177 138.663 261.655 116.158C265.033 108.903 268.016 101.784 270.917 94.8623C272.509 91.0621 274.076 87.3214 275.671 83.65C280.175 73.2781 284.905 63.4311 291.051 54.2477C303.332 35.9007 321.296 20.1602 354.504 8.27086C420.84 -15.4794 493.1 17.056 550.275 76.1706C607.439 135.273 649.403 220.834 655.135 302.837Z" stroke="white" stroke-width="0.896309"/>
<g clip-path="url(#clip0_19_190)">
<path d="M389.26 271.251H456.853C456.853 271.251 453.493 266.875 449.788 266.329C449.788 266.329 442.582 244.876 430.518 244.723C419.302 244.581 414.805 257.916 414.805 257.916C414.805 257.916 409.609 251.934 404.645 254.67C399.68 257.404 396.869 265.234 396.869 265.234C396.869 265.234 391.286 268.243 389.26 271.251Z" fill="#EBEBEB"/>
<path d="M231.353 252.519H277.261C277.261 252.519 274.979 249.547 272.462 249.176C272.462 249.176 267.569 234.606 259.375 234.502C251.756 234.405 248.703 243.463 248.703 243.463C248.703 243.463 245.174 239.4 241.802 241.258C238.43 243.115 236.521 248.434 236.521 248.434C236.521 248.434 232.729 250.477 231.353 252.519Z" fill="#EBEBEB"/>
<path d="M256.557 289.223H171.081C171.081 289.223 171.081 283.76 182.858 282.691C182.858 282.691 193.608 258.822 210.022 262.028C220.244 264.024 225.47 278.06 225.47 278.06C225.47 278.06 233.194 267.016 239.373 269.153C245.552 271.291 249.22 283.047 249.22 283.047C249.22 283.047 255.592 286.136 256.557 289.223Z" fill="#EBEBEB"/>
<path d="M517.563 206.975H459.441C459.441 206.975 464.926 201.87 467.363 201.87C469.802 201.87 476.916 184.731 486.008 185.461C495.1 186.19 499.923 198.953 499.923 198.953C499.923 198.953 510.973 195.488 517.563 206.975Z" fill="#EBEBEB"/>
<path d="M532.691 299.041H502.435C502.435 299.041 505.29 296.384 506.559 296.384C507.828 296.384 511.532 287.462 516.265 287.841C520.998 288.22 523.508 294.865 523.508 294.865C523.508 294.865 529.261 293.062 532.691 299.041Z" fill="#EBEBEB"/>
<path d="M389.26 325.923H339.557C339.557 325.923 342.028 322.706 344.753 322.303C344.753 322.303 350.051 306.528 358.922 306.416C367.17 306.312 370.476 316.117 370.476 316.117C370.476 316.117 374.297 311.72 377.947 313.73C381.598 315.741 383.665 321.499 383.665 321.499C383.665 321.499 387.77 323.711 389.26 325.923Z" fill="#EBEBEB"/>
<path d="M166.716 377.901C166.716 377.901 237.082 346.304 288.475 346.304C338.783 346.304 407.015 362.267 425.561 365.842C474.268 375.231 536.968 377.901 536.968 377.901H166.716Z" fill="#DBDBDB"/>
<path d="M536.968 377.901C536.968 377.901 498.61 356.719 455.278 356.719C425.034 356.719 381.622 365.247 340.736 370.043C325.171 371.868 244.131 377.9 244.131 377.9H536.968V377.901Z" fill="#C7C7C7"/>
<path d="M421.282 358.114C421.282 358.114 426.626 370.017 417.881 370.017C409.136 370.017 414.804 357.708 414.804 357.708C414.804 357.708 412.779 356.818 415.128 350.177C417.476 343.537 418.525 343.537 419.5 343.537C420.733 343.537 421.88 346.412 421.039 350.825C421.04 350.827 424.116 356.333 421.282 358.114Z" fill="#DBDBDB"/>
<path d="M417.106 377.912L417.949 359.98L418.791 377.912H417.106Z" fill="#A6A6A6"/>
<path d="M417.605 367.499L420.784 363.786L418.291 367.99L417.605 367.499Z" fill="#A6A6A6"/>
<path d="M176.573 356.506C176.573 356.506 182.351 369.376 172.896 369.376C163.44 369.376 169.568 356.067 169.568 356.067C169.568 356.067 167.38 355.104 169.918 347.924C172.457 340.744 173.592 340.744 174.646 340.744C175.978 340.744 177.219 343.853 176.31 348.625C176.31 348.625 179.638 354.58 176.573 356.506Z" fill="#C7C7C7"/>
<path d="M172.057 377.912L172.969 358.523L173.88 377.912H172.057Z" fill="#A6A6A6"/>
<path d="M172.598 366.652L176.034 362.638L173.339 367.183L172.598 366.652Z" fill="#A6A6A6"/>
<path d="M301.319 357.561C301.319 357.561 304.059 356.474 306.233 360.258C308.463 364.138 305.668 366.694 303.45 365.172C303.45 365.172 301.71 368.826 298.231 367.955C294.752 367.086 294.186 364.302 294.186 364.302C294.186 364.302 291.098 364.52 291.012 362.215C290.924 359.909 293.186 357.865 293.186 357.865C293.186 357.865 293.317 352.125 297.057 352.168C300.797 352.211 301.319 357.561 301.319 357.561Z" fill="#EBEBEB"/>
<path d="M298.774 377.906L297.991 360.823L297.208 377.906H298.774Z" fill="#A6A6A6"/>
<path d="M298.327 367.037L300.625 362.451L297.656 366.634L298.327 367.037Z" fill="#A6A6A6"/>
<path d="M526.644 358.114C526.644 358.114 521.3 370.017 530.046 370.017C538.791 370.017 533.122 357.708 533.122 357.708C533.122 357.708 535.147 356.818 532.799 350.177C530.45 343.537 529.401 343.537 528.426 343.537C527.194 343.537 526.046 346.412 526.887 350.825C526.888 350.827 523.811 356.333 526.644 358.114Z" fill="#DBDBDB"/>
<path d="M530.822 377.912L529.979 359.98L529.135 377.912H530.822Z" fill="#A6A6A6"/>
<path d="M530.322 367.499L527.144 363.786L529.636 367.99L530.322 367.499Z" fill="#A6A6A6"/>
<path d="M521.803 357.561C521.803 357.561 524.543 356.474 526.718 360.258C528.948 364.138 526.152 366.694 523.934 365.172C523.934 365.172 522.195 368.826 518.716 367.955C515.236 367.086 514.671 364.302 514.671 364.302C514.671 364.302 511.583 364.52 511.496 362.215C511.409 359.909 513.671 357.865 513.671 357.865C513.671 357.865 513.801 352.125 517.541 352.168C521.281 352.212 521.803 357.561 521.803 357.561Z" fill="#EBEBEB"/>
<path d="M519.259 377.906L518.476 360.823L517.693 377.906H519.259Z" fill="#A6A6A6"/>
<path d="M518.812 367.037L521.109 362.451L518.14 366.634L518.812 367.037Z" fill="#A6A6A6"/>
<path d="M188.614 351.387C188.614 351.387 192.173 349.975 194.998 354.89C197.895 359.93 194.263 363.251 191.382 361.274C191.382 361.274 189.122 366.019 184.604 364.889C180.084 363.76 179.35 360.144 179.35 360.144C179.35 360.144 175.339 360.426 175.226 357.432C175.113 354.439 178.051 351.783 178.051 351.783C178.051 351.783 178.22 344.326 183.078 344.383C187.936 344.438 188.614 351.387 188.614 351.387Z" fill="#EBEBEB"/>
<path d="M185.309 377.813L184.292 355.624L183.276 377.813H185.309Z" fill="#A6A6A6"/>
<path d="M184.728 363.696L187.713 357.738L183.857 363.172L184.728 363.696Z" fill="#A6A6A6"/>
<path d="M478.876 538.844C510.959 538.844 536.968 534.84 536.968 529.901C536.968 524.961 510.959 520.957 478.876 520.957C446.792 520.957 420.784 524.961 420.784 529.901C420.784 534.84 446.792 538.844 478.876 538.844Z" fill="#EBEBEB"/>
<path d="M166.716 377.911L213.009 377.697L259.301 377.619L351.886 377.471L444.471 377.619L490.763 377.696L537.056 377.911L490.763 378.127L444.471 378.205L351.886 378.351L259.301 378.204L213.009 378.126L166.716 377.911Z" fill="#263238"/>
<path d="M523.209 421.578L401.066 438.756C390.554 440.35 384.601 451.677 389.249 461.238L446.695 588.208H239.554L280.803 494.646C285.388 485.228 279.683 474.04 269.367 472.22L180.563 454.997V442.449L296.84 441.48C302.84 441.434 308.293 437.987 310.908 432.587L337.642 385.837H348.597L361.098 403.198C364.964 408.238 369.4 412.184 375.53 412.09L523.208 409.96L523.209 421.578Z" fill="#646464"/>
<path d="M343.72 393.145H342.512L342.812 385.843H343.429L343.72 393.145Z" fill="#EBEBEB"/>
<path d="M345.016 425.121H341.207L342.274 399.124H343.967L345.016 425.121Z" fill="#EBEBEB"/>
<path d="M347.212 479.68H338.976L339.082 477.14L340.766 435.967H345.449L347.106 477.14L347.212 479.68Z" fill="#EBEBEB"/>
<path d="M349.981 548.358H336.18L336.392 543.075L338.27 497.008H347.909L349.77 543.075L349.981 548.358Z" fill="#EBEBEB"/>
<path d="M351.586 588.208H334.549L335.131 574.028H351.013L351.586 588.208Z" fill="#EBEBEB"/>
<path d="M180.562 447.167L187.952 447.475L187.238 448.939L180.562 448.48V447.167Z" fill="#EBEBEB"/>
<path d="M193.358 447.704L212.123 448.498L211.109 450.588L192.644 449.318L193.358 447.704Z" fill="#EBEBEB"/>
<path d="M219.143 448.798L242.838 449.803L241.436 452.687L218.146 451.073L219.143 448.798Z" fill="#EBEBEB"/>
<path d="M279.037 451.329L277.353 455.165L253.032 453.489L254.434 450.288L279.037 451.329Z" fill="#EBEBEB"/>
<path d="M417.195 418.877L418.853 421.593L390.854 423.039L388.958 419.927L417.195 418.877Z" fill="#EBEBEB"/>
<path d="M460.237 417.263L461.534 419.389L431.736 420.923L430.026 418.392L460.229 417.263H460.237Z" fill="#EBEBEB"/>
<path d="M495.925 415.932L496.913 417.554L470.493 418.921L469.153 416.937L495.916 415.932H495.925Z" fill="#EBEBEB"/>
<path d="M523.209 414.918V416.196L503.959 417.193L502.945 415.676L523.209 414.918Z" fill="#EBEBEB"/>
<path d="M329.665 385.84H356.47L343.067 378.096L329.665 385.84Z" fill="#646464"/>
<path d="M180.563 462.772V435.967L166.716 446.725L180.563 462.772Z" fill="#646464"/>
<path d="M523.21 429.609V402.804L537.057 413.561L523.21 429.609Z" fill="#646464"/>
<path d="M309.196 201L299.689 212.362L270.112 220.955V202.243L299.689 192.91L309.196 201Z" fill="#646464"/>
<path d="M299.689 192.91L296.79 192.421L268.035 201.414L268.371 220.955H270.112V202.243L299.689 192.91Z" fill="#37474F"/>
<path d="M332.903 238.463L322.939 247.33L269.637 244.68L270.576 225.99L323.878 228.642L332.903 238.463Z" fill="white"/>
<path d="M323.878 228.642L326.506 230.202L335.01 239.292L323.878 249.116L270.019 246.293L269.637 244.68L322.939 247.33L332.903 238.463L323.878 228.642Z" fill="white"/>
<path opacity="0.1" d="M323.878 228.642L326.506 230.202L335.01 239.292L323.878 249.116L270.019 246.293L269.637 244.68L322.939 247.33L332.903 238.463L323.878 228.642Z" fill="black"/>
<path d="M204.611 225.936L214.838 234.501L268.035 230.252L266.532 211.599L213.335 215.849L204.611 225.936Z" fill="#263238"/>
<path d="M204.611 225.936L214.838 234.501L268.035 230.252L267.827 233.476L215.756 237.582L205.881 229.468L204.611 225.936Z" fill="#37474F"/>
<path d="M274.846 420.547H260.25L263.649 184.649C263.69 181.667 265.348 179.281 267.381 179.281H267.714C269.747 179.281 271.405 181.667 271.446 184.649L274.846 420.547Z" fill="white"/>
<path opacity="0.4" d="M274.846 420.547H260.25L263.649 184.649C263.69 181.667 265.348 179.281 267.381 179.281H267.714C269.747 179.281 271.405 181.667 271.446 184.649L274.846 420.547Z" fill="black"/>
<g opacity="0.3">
<path d="M266.245 188.356C265.938 197.009 265.719 205.665 265.538 214.321C265.343 222.978 265.194 231.635 265.154 240.292C265.115 248.949 265.152 257.608 265.377 266.261L265.606 272.748L265.955 279.227C266.11 281.384 266.309 283.536 266.488 285.692C266.693 287.852 266.846 290.017 266.918 292.183C267.239 300.854 266.776 309.52 266.211 318.159C265.631 326.8 264.917 335.43 264.374 344.07C263.273 361.338 262.855 378.703 264.518 395.954C263.631 387.34 263.217 378.678 263.209 370.017C263.193 361.355 263.564 352.697 264.089 344.053C264.608 335.408 265.299 326.775 265.855 318.137C266.398 309.501 266.835 300.843 266.491 292.201C266.417 290.04 266.248 287.886 266.054 285.735C265.881 283.577 265.689 281.416 265.54 279.255L265.209 272.764L264.999 266.271C264.799 257.611 264.788 248.949 264.855 240.29C264.994 222.97 265.49 205.656 266.245 188.356Z" fill="black"/>
<path d="M266.828 183.364C267.071 186.811 267.285 190.259 267.488 193.708L267.981 204.06C268.28 210.963 268.518 217.87 268.665 224.779C268.769 231.689 268.802 238.601 268.664 245.511C268.537 252.419 268.279 259.334 267.548 266.208L267.902 261.039L268.121 255.863C268.213 254.139 268.224 252.412 268.279 250.686C268.335 248.96 268.361 247.233 268.37 245.507C268.46 238.6 268.374 231.693 268.225 224.788C268.128 217.881 267.938 210.976 267.689 204.072L267.274 193.718C267.142 190.267 267 186.815 266.828 183.364Z" fill="black"/>
<path d="M265.064 370.783C265.606 367.427 266.076 364.06 266.523 360.692C266.987 357.326 267.423 353.955 267.815 350.58C268.612 343.832 269.256 337.065 269.688 330.286C269.965 326.9 270.098 323.505 270.271 320.114C270.349 316.719 270.473 313.323 270.395 309.928L270.373 307.38C270.354 306.532 270.294 305.684 270.257 304.836L270.129 302.292C270.094 301.444 270.047 300.596 269.945 299.753C269.771 298.065 269.639 296.37 269.432 294.685L268.581 289.66C270.123 296.295 270.543 303.13 270.689 309.922C270.791 313.323 270.692 316.724 270.638 320.125C270.489 323.523 270.384 326.924 270.127 330.316C269.644 337.101 268.951 343.869 268.105 350.616C267.273 357.364 266.287 364.095 265.064 370.783Z" fill="black"/>
<path d="M270.291 255.072C269.85 259.08 269.462 263.092 269.124 267.106C268.799 271.121 268.504 275.143 268.487 279.163C268.49 281.167 268.497 283.194 268.911 285.137C269.023 285.608 269.146 286.118 269.394 286.471C269.547 286.641 269.582 286.663 269.738 286.523C269.877 286.378 269.993 286.16 270.086 285.941C270.45 285.039 270.644 284.043 270.798 283.058C271.092 281.077 271.166 279.06 271.092 277.053C271.021 275.045 270.782 273.036 270.292 271.079C271.384 274.965 271.613 279.083 271.126 283.104C270.985 284.108 270.824 285.116 270.434 286.088C270.33 286.33 270.216 286.571 270.008 286.794C269.908 286.898 269.733 287.023 269.511 286.992C269.297 286.956 269.175 286.818 269.085 286.705C268.752 286.225 268.652 285.722 268.523 285.223C268.084 283.216 268.066 281.179 268.048 279.159C268.092 275.115 268.394 271.088 268.783 267.074C269.181 263.061 269.684 259.059 270.291 255.072Z" fill="black"/>
<path d="M271.29 341.66C270.541 349.783 269.723 357.901 268.662 365.993C268.394 368.015 268.118 370.037 267.793 372.053C267.498 374.077 267.029 376.068 266.734 378.077C266.13 382.098 265.848 386.177 265.998 390.237C266.092 392.262 266.268 394.296 266.745 396.253C266.996 397.219 267.317 398.198 267.906 398.967C268.2 399.342 268.588 399.64 269.033 399.697C269.459 399.81 269.74 399.394 269.949 398.956C270.349 398.062 270.534 397.049 270.693 396.054C270.843 395.052 270.939 394.041 271.008 393.027C271.14 390.999 271.161 388.961 271.098 386.928C271.025 384.896 270.888 382.859 270.529 380.863C270.435 380.365 270.329 379.87 270.176 379.392C270.023 378.935 269.839 378.399 269.481 378.172C269.313 378.077 269.089 378.171 268.94 378.339C268.785 378.509 268.668 378.731 268.573 378.958C268.384 379.417 268.264 379.91 268.165 380.406C267.787 382.397 267.704 384.446 267.72 386.479C267.735 387.497 267.783 388.516 267.892 389.529C267.946 390.035 268.017 390.54 268.119 391.038C268.235 391.527 268.331 392.053 268.662 392.448C268.323 392.059 268.217 391.532 268.092 391.045C267.98 390.546 267.9 390.041 267.836 389.535C267.709 388.522 267.642 387.501 267.608 386.481C267.556 384.441 267.594 382.389 267.947 380.364C268.045 379.859 268.162 379.356 268.359 378.87C268.459 378.628 268.578 378.388 268.766 378.179C268.942 377.975 269.28 377.796 269.588 377.956C270.104 378.297 270.235 378.838 270.415 379.315C270.576 379.808 270.687 380.311 270.786 380.814C271.161 382.832 271.312 384.876 271.399 386.918C271.476 388.96 271.468 391.006 271.348 393.049C271.286 394.07 271.197 395.091 271.051 396.108C270.894 397.122 270.723 398.142 270.295 399.119C270.181 399.36 270.051 399.603 269.84 399.813C269.73 399.912 269.609 400.016 269.443 400.062C269.272 400.117 269.115 400.102 268.981 400.087C268.398 400.015 267.921 399.635 267.59 399.219C266.929 398.361 266.602 397.352 266.334 396.358C265.824 394.353 265.648 392.299 265.575 390.254C265.451 386.158 265.76 382.065 266.392 378.025C266.704 375.999 267.183 374.017 267.486 372.005C267.821 369.996 268.108 367.977 268.386 365.958C269.461 357.872 270.406 349.769 271.29 341.66Z" fill="black"/>
<path d="M264.187 420.547C263.922 417.643 263.68 414.737 263.466 411.829L262.863 403.101L262.361 394.367C262.207 391.455 262.081 388.544 261.979 385.631C262.244 388.537 262.487 391.445 262.7 394.352L263.302 403.077L263.803 411.807C263.958 414.718 264.084 417.632 264.187 420.547Z" fill="black"/>
<path d="M268.028 420.547C268.685 418.214 268.889 415.777 268.722 413.388C268.547 410.997 267.913 408.642 266.806 406.519C265.614 404.376 264.932 402.001 264.396 399.64C263.862 397.269 263.527 394.86 263.305 392.448C263.617 394.851 264.092 397.23 264.657 399.578C265.25 401.919 265.978 404.233 267.156 406.333C268.346 408.483 268.972 410.922 269.104 413.364C269.222 415.806 268.882 418.274 268.028 420.547Z" fill="black"/>
<path d="M271.29 349.689C270.921 355.614 270.844 361.557 271.045 367.484C271.161 370.446 271.368 373.408 271.801 376.336C272.289 379.257 272.752 382.204 273.056 385.159C273.362 388.115 273.608 391.084 273.604 394.063C273.593 397.035 273.468 400.038 272.74 402.95C271.868 405.792 271.368 408.71 271.087 411.663C270.808 414.612 270.658 417.58 270.726 420.548C270.462 414.634 270.756 408.598 272.424 402.87C273.111 400.004 273.207 397.02 273.188 394.067C273.131 391.109 272.98 388.149 272.685 385.199C272.408 382.245 271.989 379.318 271.515 376.38C271.096 373.433 270.905 370.462 270.805 367.494C270.616 361.551 270.847 355.608 271.29 349.689Z" fill="black"/>
<path d="M268.581 179.436C268.908 183.003 269.193 186.574 269.431 190.148C269.676 193.722 269.862 197.3 270.05 200.878C270.197 204.457 270.337 208.037 270.393 211.621C270.436 215.202 270.445 218.794 270.14 222.366C270.214 220.575 270.22 218.786 270.183 216.996C270.164 215.207 270.112 213.417 270.055 211.628C269.928 208.051 269.791 204.473 269.61 200.897L268.581 179.436Z" fill="black"/>
</g>
<path d="M229.116 377.912H193.662C193.662 377.912 193.744 372.635 197.229 371.235C200.714 369.835 202.786 372.566 202.786 372.566C202.786 372.566 204.208 362.864 210.703 362.864C217.199 362.864 220.308 371.234 220.308 371.234C220.308 371.234 221.763 368.704 225.368 369.175C228.973 369.646 229.116 377.912 229.116 377.912Z" fill="#37474F"/>
<path d="M272.542 423.246H237.087C237.087 423.246 237.169 417.969 240.654 416.568C244.139 415.169 246.212 417.9 246.212 417.9C246.212 417.9 247.633 408.197 254.129 408.197C260.624 408.197 263.733 416.568 263.733 416.568C263.733 416.568 265.188 414.038 268.794 414.508C272.399 414.98 272.542 423.246 272.542 423.246Z" fill="#37474F"/>
<path d="M537.056 377.912C537.056 377.912 535.969 372.841 533.799 372.059C531.627 371.278 530.307 373.554 530.307 373.554C530.307 373.554 529.796 368.708 526.718 367.259C523.641 365.809 521.33 368.778 521.33 368.778C521.33 368.778 518.969 362.629 514.749 362.629C510.529 362.629 508.401 371.626 508.401 371.626C508.401 371.626 505.911 368.945 503.358 370.459C500.805 371.973 500.805 377.913 500.805 377.913H537.056V377.912Z" fill="#37474F"/>
<path d="M200.016 377.912H167.323C167.323 377.912 168.4 373.303 170.567 372.977C172.736 372.65 173.744 374.788 173.744 374.788C173.744 374.788 173.646 368.359 177.694 367.264C181.743 366.169 185.139 371.849 185.139 371.849C185.139 371.849 187.678 368.61 191.137 368.818C194.597 369.025 195.475 374.376 195.475 374.376C195.475 374.376 198.625 372.518 200.016 377.912Z" fill="#646464"/>
<path d="M299.03 423.246H266.337C266.337 423.246 267.414 418.636 269.581 418.31C271.75 417.984 272.758 420.121 272.758 420.121C272.758 420.121 272.66 413.693 276.708 412.598C280.758 411.502 284.153 417.182 284.153 417.182C284.153 417.182 286.692 413.943 290.151 414.151C293.61 414.359 294.489 419.71 294.489 419.71C294.489 419.71 297.639 417.852 299.03 423.246Z" fill="#646464"/>
<path d="M503.149 377.912H483.062C483.062 377.912 483.109 374.923 485.083 374.129C487.058 373.336 488.231 374.884 488.231 374.884C488.231 374.884 489.036 369.387 492.716 369.387C496.396 369.387 498.157 374.13 498.157 374.13C498.157 374.13 498.982 372.696 501.024 372.963C503.067 373.229 503.149 377.912 503.149 377.912Z" fill="#646464"/>
<path d="M229.463 377.912H249.549C249.549 377.912 249.503 374.923 247.528 374.129C245.554 373.336 244.379 374.884 244.379 374.884C244.379 374.884 243.574 369.387 239.894 369.387C236.214 369.387 234.453 374.13 234.453 374.13C234.453 374.13 233.629 372.696 231.586 372.963C229.544 373.229 229.463 377.912 229.463 377.912Z" fill="#646464"/>
<path d="M492.407 301.236C494.869 301.537 497.224 297.512 498.089 294.614C498.156 294.39 497.626 292.285 497.079 289.687C496.752 288.109 496.427 286.344 496.245 284.712L486.288 288.335C486.288 288.335 487.673 291.644 487.972 294.49C487.994 294.728 487.995 294.952 487.975 295.167C487.975 295.198 487.971 295.237 487.973 295.28C487.907 296.576 490.027 300.944 492.407 301.236Z" fill="#AD6359"/>
<path d="M487.973 295.171L487.976 295.28C488.296 295.294 488.647 295.268 489.028 295.219C494.572 294.479 495.548 287.565 495.712 284.907L486.29 288.337C486.29 288.337 487.676 291.645 487.969 294.493C487.99 294.726 487.998 294.952 487.973 295.171Z" fill="#263238"/>
<path d="M500.289 271.396C501.382 275.808 499.021 286.578 495.784 289.21C491.091 293.024 483.742 293.018 480.586 287.454C477.526 282.06 480.685 268.479 484.27 266.121C489.55 262.651 498.677 264.878 500.289 271.396Z" fill="#AD6359"/>
<path d="M481.312 272.321C481.312 272.321 480.996 274.937 482.668 275.798C482.802 275.867 487.911 288.749 497.165 288.046C497.165 288.046 504.348 280.393 502.788 273.169C501.78 268.5 498.649 267.088 498.649 267.088C498.649 267.088 492.314 261.041 484.662 263.675C477.008 266.311 478.497 271.891 481.312 272.321Z" fill="#263238"/>
<path d="M502.82 296.135C514.789 303.727 536.132 326.065 534.188 331.877C530.269 343.595 514.555 359.23 510.43 362.251C508.031 364.007 490.369 348.135 492.655 345.926C495.326 343.348 511.779 329.477 511.893 328.034C511.979 326.934 503.599 314.691 497.487 304.326C490.398 292.305 497.116 292.517 502.82 296.135Z" fill="#AD6359"/>
<path d="M495.166 344.47C495.166 344.47 487.323 348.973 482.332 352.158C479.548 353.936 475.047 357.409 473.599 359.649C471.433 363.002 464.514 378.406 468.213 380.164C471.562 381.754 475.824 367.766 475.824 367.766C475.824 367.766 470.274 381.501 474.658 382.676C479.041 383.85 481.757 367.405 481.757 367.405C481.757 367.405 476.371 381.645 481.083 382.141C484.644 382.516 487.943 367.76 487.943 367.76C487.943 367.76 483.398 380.031 487.043 380.574C491.071 381.175 494.971 367.745 494.971 367.745C504.47 367.567 510.297 364.087 512.296 359.333C512.698 358.379 495.166 344.47 495.166 344.47Z" fill="#AD6359"/>
<path d="M477.44 362.893C476.73 364.483 476 366.087 475.434 367.734C474.867 369.381 474.358 371.051 473.947 372.743C472.94 376.895 472.958 379.652 472.976 379.482C473.388 375.451 475.324 369.521 475.891 367.873C476.457 366.23 476.94 364.557 477.504 362.911C477.518 362.871 477.457 362.855 477.44 362.893Z" fill="#263238"/>
<path d="M483.426 364.83C482.607 366.9 481.718 368.924 480.989 371.03C480.265 373.126 479.761 375.178 479.183 377.318C479.138 377.483 479.242 377.453 479.294 377.289C479.957 375.173 480.733 373.268 481.422 371.162C482.107 369.062 482.716 366.919 483.477 364.846C483.489 364.813 483.438 364.799 483.426 364.83Z" fill="#263238"/>
<path d="M488.863 365.57C487.449 368.668 486.609 372.024 485.863 375.335C485.826 375.499 485.954 375.446 486.002 375.279C486.938 372.014 487.649 369.447 488.97 365.618C488.991 365.559 488.893 365.505 488.863 365.57Z" fill="#263238"/>
<path d="M496.605 342L514.028 361.848C514.028 361.848 536.008 338.373 535.134 330.445C534.259 322.516 514.937 302.952 504.185 296.258C493.432 289.564 492.165 295.797 496.673 304.334C501.181 312.872 511.226 328.035 510.994 328.433C510.762 328.83 496.605 342 496.605 342Z" fill="white"/>
<path d="M502.063 337.025C501.657 337.439 501.287 337.889 501.049 338.471C501.622 338.233 502.072 337.863 502.495 337.457C502.892 337.034 503.262 336.584 503.509 336.011C502.927 336.249 502.477 336.619 502.063 337.025ZM524.603 325.358C524.206 325.773 523.836 326.222 523.589 326.804C524.171 326.566 524.62 326.196 525.035 325.79C525.441 325.367 525.811 324.917 526.058 324.344C525.476 324.582 525.026 324.952 524.603 325.358ZM514.188 303.965C514.021 304.194 513.871 304.45 513.747 304.732C514.038 304.608 514.303 304.459 514.541 304.282C514.418 304.176 514.303 304.071 514.188 303.965ZM515.194 317.183C514.779 316.787 514.329 316.407 513.747 316.169C513.994 316.751 514.365 317.201 514.761 317.616C515.185 318.021 515.634 318.392 516.208 318.63C515.97 318.056 515.599 317.607 515.194 317.183ZM524.118 337.025C523.694 336.619 523.245 336.249 522.663 336.011C522.91 336.593 523.28 337.042 523.677 337.457C524.1 337.863 524.55 338.233 525.132 338.471C524.885 337.889 524.515 337.439 524.118 337.025ZM504.858 296.884C504.435 296.478 503.985 296.108 503.403 295.869C503.65 296.443 504.021 296.892 504.426 297.316C504.841 297.712 505.29 298.092 505.872 298.33C505.626 297.748 505.255 297.298 504.858 296.884ZM514.7 357.439C514.276 357.043 513.827 356.663 513.253 356.425C513.492 357.007 513.862 357.457 514.268 357.872C514.682 358.277 515.132 358.648 515.714 358.886C515.467 358.312 515.097 357.863 514.7 357.439ZM514.479 342.995C513.897 343.004 513.324 343.065 512.742 343.304C513.324 343.542 513.897 343.595 514.479 343.603C515.061 343.595 515.643 343.542 516.225 343.304C515.643 343.065 515.061 343.004 514.479 342.995ZM535.088 330.111C534.532 329.891 533.968 329.838 533.421 329.829C532.839 329.847 532.257 329.9 531.675 330.138C532.257 330.376 532.839 330.429 533.421 330.446C533.968 330.429 534.532 330.376 535.088 330.164H535.097C535.123 330.155 535.132 330.147 535.158 330.138C535.132 330.129 535.114 330.12 535.088 330.111ZM521.499 310.931C521.446 310.94 521.393 310.967 521.34 310.984C521.446 311.028 521.552 311.063 521.657 311.099C521.613 311.046 521.552 310.993 521.499 310.931ZM513.659 328.392C513.412 328.974 513.359 329.556 513.35 330.138C513.359 330.72 513.421 331.293 513.659 331.875C513.897 331.293 513.95 330.72 513.959 330.138C513.95 329.556 513.897 328.974 513.659 328.392ZM504.638 308.471C504.4 309.053 504.347 309.626 504.329 310.208C504.347 310.79 504.4 311.372 504.638 311.954C504.876 311.372 504.929 310.79 504.947 310.208C504.938 309.626 504.876 309.053 504.638 308.471Z" fill="white"/>
<path opacity="0.1" d="M496.605 342L514.028 361.848C514.028 361.848 536.008 338.373 535.134 330.445C534.259 322.516 514.937 302.952 504.185 296.258C493.432 289.564 492.165 295.797 496.673 304.334C501.181 312.872 511.226 328.035 510.994 328.433C510.762 328.83 496.605 342 496.605 342Z" fill="black"/>
<path d="M508.791 348.371C507.538 347.071 506.315 345.742 505.092 344.413C504.505 343.775 503.911 343.141 503.345 342.485C502.736 341.779 502.053 341.102 501.497 340.354C501.458 340.302 501.518 340.241 501.569 340.283C502.293 340.87 502.939 341.58 503.621 342.215C504.255 342.805 504.862 343.426 505.476 344.038C506.753 345.314 508.03 346.589 509.278 347.894C511.778 350.509 514.194 353.185 516.585 355.9C516.642 355.965 516.552 356.055 516.488 355.994C513.875 353.497 511.3 350.974 508.791 348.371Z" fill="#263238"/>
<path d="M522.912 475.804C522.912 475.804 523.754 509.058 523.754 509.081C523.734 515.228 523.608 520.617 523.282 523.398C523.283 523.413 523.283 523.428 523.276 523.443C523.154 524.492 523.004 525.163 522.816 525.34C522.802 525.355 522.795 525.371 522.78 525.379C520.947 526.612 471.82 527.887 470.093 527.355C468.357 526.83 469.745 521.855 471.613 520.284C473.495 518.713 492.078 509.813 492.078 509.813L491.541 476.576L522.912 475.804Z" fill="#AD6359"/>
<path d="M523.81 502.482C523.81 502.482 523.754 509.058 523.754 509.081C523.734 515.228 523.608 520.617 523.282 523.398C523.283 523.413 523.283 523.428 523.276 523.443C523.094 524.48 522.93 525.164 522.816 525.34C522.802 525.355 522.795 525.371 522.78 525.379C520.947 526.612 471.82 527.887 470.093 527.355C468.357 526.83 469.745 521.855 471.613 520.284C473.495 518.713 492.078 509.813 492.078 509.813L492.043 503.116L523.81 502.482Z" fill="white"/>
<path d="M489.068 509.831C492.34 509.292 496.315 509.878 498.756 512.252C498.85 512.344 498.719 512.477 498.614 512.442C495.42 511.36 492.432 510.646 489.073 510.244C488.835 510.214 488.834 509.87 489.068 509.831Z" fill="#263238"/>
<path d="M486.685 511.199C489.957 510.66 493.932 511.244 496.373 513.62C496.468 513.712 496.335 513.845 496.231 513.81C493.037 512.728 490.049 512.013 486.691 511.611C486.453 511.582 486.451 511.237 486.685 511.199Z" fill="#263238"/>
<path d="M484.304 512.566C487.575 512.028 491.55 512.612 493.991 514.988C494.086 515.08 493.953 515.213 493.849 515.177C490.655 514.095 487.668 513.381 484.309 512.979C484.071 512.95 484.069 512.605 484.304 512.566Z" fill="#263238"/>
<path d="M470.092 527.356C471.823 527.889 520.945 526.615 522.783 525.378C523.49 524.92 523.721 517.751 523.752 509.081C523.751 508.99 523.751 508.901 523.751 508.81L492.05 509.278L492.076 509.815C492.076 509.815 473.492 518.713 471.613 520.287C469.749 521.855 468.36 526.83 470.092 527.356Z" fill="#37474F"/>
<path d="M523.755 508.805V509.086C523.717 517.752 523.493 524.921 522.783 525.379C521.951 525.939 511.304 526.51 499.797 526.921C486.027 527.407 471.034 527.65 470.089 527.36C468.36 526.827 469.752 521.854 471.613 520.284C473.492 518.714 492.075 509.815 492.075 509.815L492.047 509.282L502.619 509.124L523.755 508.805Z" fill="white"/>
<path d="M470.599 525.437C478.874 525.019 512.29 524.113 520.502 524.328C520.569 524.33 520.57 524.375 520.503 524.38C512.31 524.974 478.887 525.609 470.601 525.573C470.428 525.572 470.424 525.446 470.599 525.437Z" fill="#263238"/>
<path opacity="0.1" d="M502.62 509.123C501.844 514.432 500.667 522.256 499.797 526.921C486.028 527.407 471.034 527.65 470.09 527.36C468.361 526.827 469.753 521.854 471.614 520.284C473.493 518.714 492.076 509.815 492.076 509.815L492.048 509.282L502.62 509.123Z" fill="black"/>
<path d="M526.612 509.263L491.063 509.6C491.063 509.6 489.047 451.721 488.893 432.419C488.717 410.373 489.967 344.238 489.967 344.238H516.544C516.544 344.238 523.678 358.812 519.601 375.214L518.474 434.216L526.612 509.263Z" fill="#263238"/>
<path d="M523.976 503.038C523.059 502.871 522.076 502.878 521.146 502.812C520.095 502.737 519.048 502.66 517.996 502.615C515.974 502.529 513.951 502.494 511.927 502.486C507.846 502.47 503.763 502.503 499.683 502.63C497.361 502.702 495.041 502.795 492.723 502.927C492.632 502.932 492.637 503.07 492.727 503.073C496.773 503.221 500.822 503.284 504.87 503.362C508.91 503.439 512.966 503.52 517.006 503.441C518.167 503.418 519.327 503.408 520.486 503.342C521.631 503.277 522.831 503.341 523.964 503.175C524.029 503.164 524.057 503.052 523.976 503.038Z" fill="#37474F"/>
<path d="M493.624 471.089C493.21 461.519 492.903 451.942 492.641 442.366C492.116 423.213 491.985 404.053 492.227 384.894C492.362 374.145 492.649 363.399 492.97 352.654C492.974 352.531 492.787 352.538 492.78 352.659C491.763 371.894 491.376 391.166 491.354 410.426C491.332 429.586 491.733 448.749 492.678 467.887C493.209 478.629 493.863 489.376 494.874 500.084C494.883 500.176 495.024 500.175 495.019 500.079C494.587 490.415 494.041 480.756 493.624 471.089Z" fill="#37474F"/>
<path d="M484.885 481.087C484.885 481.087 484.613 513.228 484.614 513.251C484.595 519.397 484.468 524.786 484.141 527.567C484.142 527.582 484.142 527.597 484.135 527.612C484.013 528.662 483.864 529.331 483.676 529.509C483.662 529.524 483.655 529.539 483.64 529.547C481.806 530.781 432.68 532.056 430.952 531.523C429.217 530.999 430.605 526.023 432.472 524.453C434.354 522.881 452.937 513.982 452.937 513.982L453.513 481.857L484.885 481.087Z" fill="#AD6359"/>
<path d="M484.669 506.652C484.669 506.652 484.612 513.229 484.613 513.251C484.594 519.397 484.467 524.786 484.14 527.567C484.141 527.582 484.141 527.597 484.134 527.612C483.953 528.648 483.789 529.334 483.675 529.509C483.661 529.524 483.654 529.539 483.639 529.547C481.805 530.781 432.679 532.056 430.951 531.523C429.216 530.999 430.604 526.023 432.471 524.453C434.353 522.881 452.936 513.982 452.936 513.982L452.9 507.284L484.669 506.652Z" fill="white"/>
<path d="M449.927 514.001C453.198 513.462 457.174 514.047 459.615 516.423C459.709 516.514 459.578 516.647 459.473 516.612C456.279 515.53 453.291 514.816 449.932 514.414C449.694 514.385 449.692 514.04 449.927 514.001Z" fill="#263238"/>
<path d="M447.544 515.369C450.816 514.83 454.791 515.415 457.232 517.79C457.327 517.882 457.194 518.015 457.09 517.98C453.896 516.898 450.908 516.184 447.55 515.781C447.311 515.752 447.31 515.408 447.544 515.369Z" fill="#263238"/>
<path d="M445.161 516.737C448.433 516.198 452.408 516.783 454.849 519.158C454.944 519.25 454.811 519.383 454.706 519.348C451.512 518.266 448.525 517.551 445.166 517.149C444.929 517.12 444.928 516.774 445.161 516.737Z" fill="#263238"/>
<path d="M430.952 531.526C432.683 532.059 481.805 530.785 483.642 529.548C484.349 529.089 484.581 521.921 484.611 513.252C484.611 513.161 484.611 513.07 484.61 512.98L452.909 513.448L452.936 513.985C452.936 513.985 434.352 522.883 432.473 524.457C430.608 526.024 429.22 530.999 430.952 531.526Z" fill="white"/>
<path d="M431.458 529.607C439.733 529.189 473.149 528.283 481.361 528.499C481.428 528.5 481.429 528.545 481.362 528.551C473.169 529.144 439.746 529.779 431.46 529.743C431.287 529.742 431.283 529.616 431.458 529.607Z" fill="#263238"/>
<path d="M501.126 378.26C501.118 378.283 486.543 424.225 486.279 432.674C486.054 439.875 486.976 513.782 486.976 513.782L450.057 514.002C450.057 514.002 453.176 438.634 453.752 431.127C454.83 417.092 467.125 378.563 475.918 344.238H515.719C515.719 344.238 515.373 362.214 507.198 375.214C507.198 375.214 503.497 376.927 501.126 378.26Z" fill="#263238"/>
<path d="M485.014 506.976C480.75 506.853 476.327 506.728 472.061 506.833C467.832 506.938 463.589 507.004 459.364 507.255C456.968 507.398 454.577 507.478 452.185 507.714C452.106 507.722 452.109 507.838 452.188 507.843C456.45 508.091 460.729 508.042 464.997 508.003C469.232 507.964 473.464 507.919 477.697 507.725C480.094 507.615 482.484 507.494 484.878 507.328C485.136 507.31 485.273 506.983 485.014 506.976Z" fill="#37474F"/>
<path d="M476.942 365.894C475.626 370.286 474.516 374.745 473.339 379.175C472.152 383.641 470.968 388.109 469.792 392.578C467.516 401.224 465.267 409.886 463.562 418.666C461.845 427.502 460.804 436.401 460.611 445.404C460.415 454.555 460.605 463.72 460.668 472.871C460.73 482.074 460.808 491.275 460.967 500.476C460.986 501.621 461.011 502.765 461.053 503.908C461.057 504.019 461.221 504.014 461.224 503.904C461.468 494.752 461.339 485.581 461.309 476.427C461.279 467.272 461.158 458.112 461.236 448.957C461.313 439.847 462.011 430.818 463.583 421.84C465.126 413.031 467.296 404.347 469.547 395.696C470.831 390.761 472.127 385.829 473.408 380.894C474.697 375.925 476.075 370.968 477.208 365.961C477.246 365.788 476.991 365.726 476.942 365.894Z" fill="#37474F"/>
<path d="M491.996 379.148C493.835 379.115 495.668 378.99 497.478 378.65C499.306 378.308 501.014 377.701 502.791 377.178C504.477 376.681 506.269 376.604 507.999 376.326C509.753 376.044 511.503 375.585 513.104 374.805C513.179 374.768 513.243 374.882 513.167 374.92C511.579 375.733 509.98 376.503 508.275 377.041C506.524 377.593 504.694 377.669 502.918 378.104C501.091 378.551 499.331 379.145 497.452 379.362C495.631 379.573 493.789 379.567 491.977 379.269C491.904 379.258 491.929 379.149 491.996 379.148Z" fill="#37474F"/>
<path d="M489.667 415.713C490.016 414.352 490.346 412.986 490.716 411.629C491.462 408.886 492.221 406.14 493.051 403.419C494.699 398.013 496.254 392.574 497.998 387.196C498.986 384.147 499.873 381.059 501.033 378.068C501.062 377.995 501.167 378.027 501.151 378.104C500.568 380.891 499.743 383.619 499.003 386.369C498.265 389.116 497.474 391.85 496.681 394.582C495.107 400.012 493.566 405.453 491.846 410.839C491.364 412.35 490.869 413.855 490.348 415.352C489.815 416.882 489.396 418.461 488.758 419.951C488.723 420.032 488.612 419.998 488.627 419.912C488.872 418.492 489.309 417.108 489.667 415.713Z" fill="#37474F"/>
<path d="M473.749 330.568L470.156 349.793C470.156 349.793 512.718 350.386 522.713 349.683C522.713 349.683 512.262 308.977 501.515 297.309C496.14 291.473 489.828 291.908 485.806 295.988C484.789 297.021 472.645 313.071 471.364 319.203C470.249 324.613 473.749 330.568 473.749 330.568Z" fill="white"/>
<path d="M509.426 310.274C510.446 312.512 511.421 314.774 512.362 317.052C512.212 316.363 512.044 315.68 511.856 315.003C511.828 314.901 511.977 314.87 512.011 314.964C512.38 315.969 512.637 316.999 512.776 318.053C515.787 325.45 518.379 333.033 520.491 340.72C520.889 342.171 521.292 343.627 521.628 345.094C521.977 346.616 522.437 348.137 522.634 349.689C522.645 349.776 522.533 349.804 522.501 349.722C522.007 348.432 521.671 347.064 521.293 345.737C520.931 344.461 520.546 343.19 520.165 341.918C519.388 339.319 518.604 336.721 517.791 334.132C516.183 329.019 514.408 323.958 512.605 318.909C511.574 316.022 510.44 313.168 509.322 310.314C509.3 310.256 509.4 310.217 509.426 310.274Z" fill="#263238"/>
<path d="M502.063 337.025C501.657 337.439 501.287 337.889 501.049 338.471C501.622 338.233 502.072 337.863 502.495 337.457C502.892 337.034 503.262 336.584 503.509 336.011C502.927 336.249 502.477 336.619 502.063 337.025ZM489.012 296.187C488.606 296.601 488.236 297.051 487.997 297.633C488.571 297.386 489.02 297.016 489.444 296.619C489.84 296.196 490.211 295.746 490.458 295.173C489.876 295.411 489.426 295.781 489.012 296.187ZM476.648 332.263C476.243 332.677 475.872 333.127 475.634 333.709C476.216 333.471 476.666 333.101 477.08 332.695C477.486 332.272 477.856 331.822 478.094 331.249C477.512 331.487 477.063 331.857 476.648 332.263ZM479.549 343.083C479.126 342.686 478.676 342.307 478.094 342.069C478.341 342.651 478.712 343.101 479.108 343.515C479.532 343.921 479.982 344.291 480.564 344.529C480.317 343.956 479.946 343.506 479.549 343.083ZM493.474 316.513C493.059 316.116 492.609 315.737 492.027 315.499C492.266 316.081 492.645 316.531 493.042 316.945C493.465 317.351 493.915 317.721 494.488 317.959C494.25 317.386 493.879 316.937 493.474 316.513ZM514.479 342.995C513.897 343.004 513.324 343.065 512.742 343.304C513.324 343.542 513.897 343.595 514.479 343.603C515.061 343.595 515.643 343.542 516.225 343.304C515.643 343.065 515.061 343.004 514.479 342.995ZM504.02 322.325C503.438 322.342 502.856 322.395 502.274 322.633C502.856 322.871 503.438 322.924 504.02 322.942C504.594 322.933 505.176 322.871 505.758 322.633C505.176 322.395 504.594 322.342 504.02 322.325ZM481.322 319.82C480.749 319.838 480.167 319.891 479.585 320.129C480.167 320.367 480.749 320.42 481.322 320.437C481.904 320.42 482.486 320.367 483.068 320.129C482.486 319.891 481.904 319.829 481.322 319.82ZM492.027 342.686C491.445 342.704 490.872 342.757 490.29 342.995C490.872 343.233 491.445 343.286 492.027 343.304C492.609 343.295 493.191 343.233 493.773 342.995C493.191 342.757 492.609 342.704 492.027 342.686ZM493.773 303.912C493.191 303.929 492.609 303.982 492.027 304.22C492.609 304.459 493.191 304.511 493.773 304.529C494.347 304.511 494.929 304.459 495.511 304.22C494.929 303.982 494.347 303.929 493.773 303.912ZM482.221 305.464C481.983 306.046 481.93 306.628 481.913 307.201C481.93 307.783 481.983 308.365 482.221 308.947C482.459 308.365 482.512 307.783 482.53 307.201C482.521 306.628 482.459 306.046 482.221 305.464ZM502.583 349.15C502.468 349.441 502.389 349.732 502.345 350.023H502.821C502.777 349.732 502.698 349.441 502.583 349.15ZM490.881 328.392C490.643 328.974 490.59 329.556 490.581 330.138C490.59 330.72 490.643 331.293 490.881 331.875C491.119 331.293 491.181 330.72 491.19 330.138C491.181 329.556 491.128 328.974 490.881 328.392ZM513.659 328.392C513.412 328.974 513.359 329.556 513.35 330.138C513.359 330.72 513.421 331.293 513.659 331.875C513.897 331.293 513.95 330.72 513.959 330.138C513.95 329.556 513.897 328.974 513.659 328.392ZM504.638 308.471C504.4 309.053 504.347 309.626 504.329 310.208C504.347 310.79 504.4 311.372 504.638 311.954C504.876 311.372 504.929 310.79 504.946 310.208C504.938 309.626 504.876 309.053 504.638 308.471Z" fill="white"/>
<path d="M481.072 302.836C474.76 312.103 468.937 323.818 461.294 336.922C452.764 351.543 445.5 366.685 443.726 369.862C441.444 373.951 466.806 376.296 467.939 373.288C468.665 371.362 474.587 356.795 479.954 343.49C485.322 330.184 488.251 315.251 490.38 305.707C492.84 294.69 485.723 296.008 481.072 302.836Z" fill="#AD6359"/>
<path d="M447.157 363.193C447.157 363.193 446.259 364.598 442.489 371.768C439.883 376.727 436.703 390.47 447.01 402.372C450.959 406.932 455.883 406.153 452.622 400.687C450.324 396.837 448.402 394.366 448.004 392.901C448.004 392.901 454.425 395.322 457.723 393.101C459.197 392.108 463.156 389.305 465.927 386.682C465.927 386.682 465.518 385.925 464.863 385.039C464.863 385.039 469.134 378.788 467.94 373.288L447.157 363.193Z" fill="#AD6359"/>
<path d="M440.757 376.898C441.437 379.754 442.98 385.784 445.957 390.277C449.264 395.269 456.979 403.992 460.638 401.513C463.322 399.695 460.668 396.105 460.668 396.105C460.668 396.105 464.617 399.038 466.682 396.866C468.563 394.887 466.345 392.233 466.345 392.233C466.345 392.233 469.046 393.601 470.491 391.345C472.229 388.632 466.282 386.211 465.668 381.942C465.53 380.984 440.757 376.898 440.757 376.898Z" fill="#AD6359"/>
<path d="M450.647 385.903C451.727 388.485 455.683 393.718 460.544 396.115C460.654 396.169 460.754 396.115 460.665 396.045C455.874 392.269 452.159 387.844 450.695 385.872C450.674 385.846 450.635 385.875 450.647 385.903Z" fill="#263238"/>
<path d="M455.783 382.712C456.943 384.843 461.263 390.055 466.272 392.315C466.383 392.366 466.48 392.305 466.387 392.238C461.219 388.499 457.407 384.559 455.828 382.678C455.807 382.653 455.768 382.685 455.783 382.712Z" fill="#263238"/>
<path d="M445.52 362.387L470.808 372.587C470.808 372.587 480.439 348.494 483.478 340.162C486.517 331.829 490.268 310.94 491.224 303.302C492.18 295.663 486.762 295.126 481.511 301.633C476.26 308.141 463.4 332.428 462.825 333.097C462.253 333.766 445.52 362.387 445.52 362.387Z" fill="white"/>
<path d="M482.221 305.464C481.983 306.046 481.93 306.628 481.913 307.201C481.93 307.783 481.983 308.365 482.221 308.947C482.46 308.365 482.512 307.783 482.53 307.201C482.521 306.628 482.46 306.046 482.221 305.464ZM467.918 337.589C467.671 338.171 467.618 338.753 467.609 339.335C467.618 339.908 467.68 340.49 467.918 341.072C468.156 340.49 468.209 339.908 468.218 339.335C468.209 338.753 468.156 338.171 467.918 337.589ZM481.322 319.82C480.749 319.838 480.167 319.891 479.585 320.129C480.167 320.367 480.749 320.42 481.322 320.437C481.904 320.42 482.486 320.367 483.068 320.129C482.486 319.891 481.904 319.829 481.322 319.82ZM467.918 350.279C467.336 350.288 466.754 350.341 466.172 350.579C466.754 350.817 467.336 350.879 467.918 350.887C468.491 350.879 469.073 350.826 469.655 350.579C469.073 350.341 468.491 350.288 467.918 350.279ZM471.234 368.947C471.542 369.071 471.851 369.15 472.16 369.194C472.23 369.027 472.301 368.859 472.363 368.683C471.983 368.718 471.604 368.789 471.234 368.947ZM454.911 365.235C454.364 365.244 453.809 365.297 453.262 365.508C453.227 365.517 453.2 365.526 453.165 365.544C453.377 365.632 453.597 365.693 453.809 365.729C453.817 365.738 453.826 365.738 453.835 365.738C454.197 365.817 454.549 365.835 454.911 365.843C455.493 365.835 456.066 365.782 456.648 365.544C456.066 365.297 455.493 365.244 454.911 365.235ZM468.13 326.584C467.786 326.258 467.424 325.949 466.974 325.711C466.93 325.781 466.895 325.852 466.851 325.922C467.08 326.346 467.38 326.69 467.698 327.016C468.121 327.422 468.571 327.792 469.144 328.039C468.906 327.457 468.535 327.007 468.13 326.584ZM479.549 343.083C479.126 342.686 478.676 342.307 478.094 342.069C478.341 342.651 478.712 343.101 479.109 343.515C479.532 343.921 479.982 344.291 480.564 344.529C480.317 343.956 479.946 343.506 479.549 343.083ZM457.733 354.979C457.318 354.573 456.869 354.203 456.287 353.965C456.525 354.547 456.895 354.997 457.301 355.411C457.724 355.817 458.174 356.187 458.747 356.425C458.509 355.852 458.138 355.402 457.733 354.979ZM476.648 332.263C476.243 332.677 475.872 333.127 475.634 333.709C476.216 333.471 476.666 333.101 477.08 332.695C477.486 332.272 477.856 331.822 478.094 331.249C477.512 331.487 477.063 331.857 476.648 332.263ZM467.019 360.896C466.613 361.311 466.243 361.76 466.004 362.342C466.578 362.104 467.027 361.725 467.451 361.328C467.847 360.905 468.227 360.455 468.465 359.882C467.883 360.12 467.433 360.491 467.019 360.896ZM447.768 359.185C447.371 359.6 447.001 360.05 446.754 360.632C447.336 360.394 447.786 360.023 448.2 359.618C448.606 359.194 448.976 358.745 449.223 358.171C448.641 358.409 448.191 358.78 447.768 359.185ZM457.662 343.083C457.265 343.506 456.895 343.956 456.648 344.529C457.23 344.291 457.68 343.921 458.094 343.515C458.5 343.101 458.87 342.651 459.117 342.069C458.535 342.316 458.086 342.686 457.662 343.083ZM488.253 297.13C488.156 297.289 488.068 297.457 487.998 297.633C488.289 297.51 488.535 297.36 488.774 297.183C488.606 297.148 488.43 297.13 488.253 297.13Z" fill="white"/>
<path d="M460.387 362.762C458.717 362.075 457.063 361.35 455.409 360.625C454.615 360.277 453.816 359.936 453.034 359.563C452.192 359.161 451.295 358.815 450.485 358.355C450.428 358.323 450.459 358.243 450.523 358.26C451.421 358.506 452.298 358.897 453.179 359.205C453.996 359.491 454.802 359.815 455.609 360.129C457.292 360.783 458.974 361.439 460.641 362.132C463.981 363.521 467.27 365 470.549 366.524C470.629 366.561 470.581 366.679 470.499 366.65C467.102 365.412 463.731 364.137 460.387 362.762Z" fill="#263238"/>
<path d="M477.698 355.195C478.832 351.698 480.056 348.237 481.294 344.78C481.896 343.045 482.558 341.333 483.191 339.61C483.875 337.893 484.371 336.184 484.816 334.396C485.774 330.868 486.524 327.274 487.332 323.697L489.724 312.944C489.259 316.591 488.656 320.216 487.997 323.832C487.325 327.445 486.567 331.042 485.668 334.62C485.203 336.388 484.644 338.205 483.941 339.891C483.271 341.6 482.627 343.32 481.926 345.018C480.556 348.425 479.172 351.827 477.698 355.195Z" fill="#263238"/>
<path d="M488.232 321.743C488.416 320.842 488.722 319.992 489.058 319.153C489.408 318.32 489.788 317.499 490.29 316.729C490.107 317.631 489.801 318.482 489.465 319.32C489.114 320.153 488.734 320.973 488.232 321.743Z" fill="#263238"/>
<path d="M495.478 265.164C496.322 265.253 499.98 264.751 502.496 268.033C504.876 271.138 505.89 280.715 506.429 282.794C506.967 284.874 509.716 285.131 510.413 287.545C511.012 289.621 509.508 290.42 509.384 291.954C509.288 293.145 510.521 294.901 509.475 296.681C508.523 298.3 506.782 297.998 505.745 298.52C504.709 299.042 504.108 301.48 502.184 302.175C500.259 302.869 498.508 301.138 497.482 301.17C496.455 301.203 495.301 304.383 491.939 304.176C488.579 303.971 487.55 301.152 486.152 300.621C484.754 300.09 481.297 301.129 479.674 299.432C478.049 297.735 477.728 295.428 476.995 294.593C476.262 293.757 474.77 293.925 473.839 291.975C472.907 290.025 474.713 288.736 474.935 287.023C475.089 285.83 474.01 284.759 474.714 282.926C475.683 280.405 478.753 280.876 479.865 278.286C480.737 276.254 482.445 267.464 487.687 265.198C491.309 263.633 495.478 265.164 495.478 265.164Z" fill="#263238"/>
<path d="M506.316 282.294C506.486 282.754 506.881 283.084 507.236 283.4L508.348 284.321C509.083 284.924 509.827 285.546 510.322 286.322C510.829 287.072 510.99 288.033 510.7 288.862C510.558 289.28 510.304 289.661 510.022 290.04C509.747 290.423 509.413 290.797 509.221 291.331C509.04 291.911 509.237 292.461 509.39 292.906C509.556 293.369 509.738 293.808 509.878 294.253C510.169 295.133 510.255 296.077 509.846 296.884C509.653 297.279 509.349 297.609 508.946 297.805C508.547 298.006 508.082 298.085 507.614 298.123C507.144 298.166 506.663 298.161 506.18 298.178C505.707 298.2 505.181 298.227 504.789 298.526C505.211 298.28 505.708 298.311 506.179 298.324C506.656 298.347 507.137 298.394 507.626 298.391C508.114 298.382 508.619 298.324 509.094 298.119C509.571 297.92 509.973 297.533 510.222 297.077C510.767 296.164 510.641 295.026 510.357 294.105C510.216 293.631 510.037 293.178 509.887 292.734C509.737 292.287 509.619 291.854 509.744 291.499C510.015 290.727 510.865 290.025 511.173 289.022C511.501 288.03 511.296 286.883 510.671 286.084C510.081 285.263 509.287 284.673 508.511 284.106L507.327 283.285C506.952 282.998 506.539 282.725 506.316 282.294Z" fill="#263238"/>
<path d="M482.901 270.236C482.018 271.727 481.483 273.383 480.796 274.95C480.452 275.734 480.135 276.531 479.738 277.276C479.535 277.639 479.331 278.017 479.071 278.306C479.011 278.387 478.945 278.454 478.877 278.499C478.812 278.553 478.75 278.609 478.649 278.655C478.471 278.755 478.28 278.844 478.088 278.931C477.325 279.292 476.51 279.617 475.75 280.077C474.997 280.529 474.268 281.158 473.9 282.01C473.72 282.428 473.613 282.897 473.661 283.361C473.703 283.826 473.884 284.249 474.079 284.634C474.497 285.39 474.891 286.149 474.935 287.025C475.022 286.152 474.655 285.299 474.325 284.521C474.158 284.13 474.018 283.735 474.007 283.337C473.991 282.939 474.103 282.551 474.283 282.19C474.661 281.477 475.28 280.916 476.006 280.508C476.728 280.088 477.524 279.788 478.321 279.429C478.519 279.335 478.717 279.238 478.912 279.124C479.094 279.023 479.347 278.825 479.468 278.65C479.776 278.288 479.973 277.896 480.182 277.507C480.571 276.721 480.903 275.921 481.189 275.106L482.027 272.661C482.293 271.84 482.544 271.019 482.901 270.236Z" fill="#263238"/>
<path d="M476.162 294.026C476.54 294.513 476.601 295.154 476.753 295.743C476.895 296.341 477.037 296.944 477.211 297.543C477.378 298.144 477.597 298.736 477.894 299.304C478.195 299.865 478.585 300.417 479.155 300.802C480.345 301.528 481.733 301.41 482.932 301.165C483.543 301.04 484.139 300.882 484.736 300.771C485.331 300.646 485.941 300.576 486.543 300.74C485.982 300.454 485.316 300.466 484.699 300.503C484.077 300.563 483.468 300.675 482.863 300.747C481.677 300.899 480.406 300.945 479.455 300.341C478.994 300.043 478.641 299.564 478.349 299.055C478.048 298.545 477.832 297.977 477.61 297.41C477.393 296.84 477.207 296.255 477.011 295.668C476.905 295.377 476.797 295.085 476.676 294.799C476.542 294.524 476.428 294.208 476.162 294.026Z" fill="#263238"/>
<path d="M505.938 302.114C506.313 301.796 504.769 296.598 503.409 295.668C502.048 294.739 493.473 294.645 492.472 296.287C491.471 297.929 492.806 303.172 493.422 303.271C494.036 303.37 495.68 303.22 495.998 302.863C496.315 302.506 495.384 299.21 495.862 298.62C496.49 297.846 501.35 297.929 501.812 298.435C502.273 298.941 502.783 301.861 502.876 302.048C502.966 302.236 505.331 302.627 505.938 302.114Z" fill="white"/>
<path d="M480.801 348.633C482.605 352.237 488.923 356.984 492.702 357.685C496.476 358.381 521.491 362.013 525.575 356.79C529.293 352.038 522.565 317.646 515.542 306.683C514.906 305.687 514.266 304.884 513.633 304.32C513.581 304.27 513.532 304.231 513.484 304.187C506.764 298.538 493.229 301.362 491.528 301.818C488.879 302.534 485.14 304.782 483.19 309.797C481.234 314.812 478.99 345.029 480.801 348.633Z" fill="#646464"/>
<path d="M495.07 346.564C495.435 349.09 499.343 355.079 504.012 356.618C508.674 358.161 525.577 356.792 529.391 353.525C529.818 353.159 530.123 352.402 530.31 351.342C531.643 343.775 527.16 320.744 521.871 313.714C521.297 312.951 520.713 312.372 520.118 312.029C519.383 311.597 518.554 311.224 517.665 310.902C513.373 309.364 507.527 309.06 502.958 310.087C500.01 310.757 497.591 311.98 496.472 313.79C493.622 318.388 494.705 344.042 495.07 346.564Z" fill="white"/>
<path opacity="0.1" d="M495.07 346.564C495.435 349.09 499.343 355.079 504.012 356.618C508.674 358.161 525.577 356.792 529.391 353.525C529.818 353.159 530.123 352.402 530.31 351.342C527.331 353.116 523.864 354.014 520.417 354.297C517.904 354.503 515.351 354.439 512.845 354.192C510.355 353.943 507.802 353.384 505.768 351.793C501.928 348.795 500.646 343.145 500.166 338.426C499.65 333.278 500.041 327.999 500.538 322.863C500.957 318.534 501.638 314.217 502.957 310.086C500.009 310.756 497.59 311.979 496.471 313.789C493.622 318.388 494.705 344.042 495.07 346.564Z" fill="black"/>
<path d="M498.339 336.482L499.488 336.434C499.254 331.121 499.233 316.739 501.892 313.982C504.476 311.298 514.502 310.993 518.635 312.346C519.979 312.787 521.055 313.273 521.87 313.716C521.296 312.949 520.711 312.37 520.119 312.027C519.383 311.598 518.558 311.223 517.664 310.901C512.637 309.841 503.753 310.392 501.061 313.188C497.519 316.861 498.307 335.685 498.339 336.482Z" fill="#263238"/>
<path d="M484.847 331.779L485.994 331.829C487.011 310.486 488.03 309.713 492.318 306.465L492.466 306.35C496.643 303.19 506.415 303.727 510.232 304.46C513.296 305.045 515.395 306.573 515.541 306.683C514.905 305.686 514.265 304.884 513.632 304.319C512.75 303.935 511.67 303.568 510.452 303.333C507.774 302.816 496.748 301.668 491.776 305.44L491.629 305.548C487.103 308.974 485.886 309.896 484.847 331.779Z" fill="#263238"/>
<path d="M477.738 347.954C478.33 350.747 484.765 356.387 487.956 357.624C488.601 357.879 494.005 359.056 494.283 356.873C494.303 356.73 494.318 356.582 494.332 356.433C494.871 350.723 492.677 338.289 492.124 336.61C491.474 334.632 485.396 330.823 481.751 330.005C480.952 329.822 480.265 329.787 479.783 329.943C477.089 330.825 477.369 346.184 477.738 347.954Z" fill="#37474F"/>
</g>
<defs>
<clipPath id="clip0_19_190">
<rect width="440.919" height="440.919" fill="white" transform="translate(131.426 147.288)"/>
</clipPath>
</defs>
</svg>
