<svg width="657" height="642" viewBox="0 0 657 642" fill="none" xmlns="http://www.w3.org/2000/svg">
<path d="M655.595 308.282C668.326 490.43 523.629 642 328.117 642C132.606 642 -114.389 335.994 85.6101 263.781C337.177 172.948 228.219 64.9921 359.229 18.087C490.239 -28.8182 644.3 146.693 655.595 308.282Z" fill="white"/>
<path d="M655.135 302.837C668.056 487.696 521.209 641.552 322.731 641.552C273.162 641.552 220.294 622.153 172.034 591.875C123.778 561.6 80.1626 520.468 49.1015 477.051C18.0329 433.623 -0.43764 387.964 1.50093 348.628C2.46975 328.969 8.53504 310.891 20.6731 295.443C32.8128 279.993 51.0476 267.148 76.3963 257.996C140.355 234.903 181.429 210.71 209.138 186.649C236.854 162.582 251.177 138.663 261.655 116.158C265.033 108.903 268.016 101.784 270.917 94.8623C272.509 91.0621 274.076 87.3214 275.671 83.65C280.175 73.2781 284.905 63.4311 291.051 54.2477C303.332 35.9007 321.296 20.1602 354.504 8.27086C420.84 -15.4794 493.1 17.056 550.275 76.1706C607.439 135.273 649.403 220.834 655.135 302.837Z" stroke="white" stroke-width="0.896309"/>
<path d="M612 513.398H112V513.648H612V513.398Z" fill="#EBEBEB"/>
<path d="M561.901 529.494H528.779V529.744H561.901V529.494Z" fill="#EBEBEB"/>
<path d="M385.222 526.361H372.335V526.611H385.222V526.361Z" fill="#EBEBEB"/>
<path d="M461.667 527.417H434.527V527.667H461.667V527.417Z" fill="#EBEBEB"/>
<path d="M527.778 520.208H471.667V520.458H527.778V520.208Z" fill="#EBEBEB"/>
<path d="M190.986 531.778H164.459V532.028H190.986V531.778Z" fill="#EBEBEB"/>
<path d="M222.889 531.778H199.889V532.028H222.889V531.778Z" fill="#EBEBEB"/>
<path d="M303.814 526.236H243V526.486H303.814V526.236Z" fill="#EBEBEB"/>
<path d="M565.31 468.8H372.212C369.065 468.8 366.505 466.239 366.505 463.092V191.66C366.505 188.513 369.066 185.952 372.212 185.952H565.31C568.458 185.952 571.018 188.513 571.018 191.66V463.092C571.019 466.239 568.458 468.8 565.31 468.8ZM372.212 186.203C369.203 186.203 366.755 188.651 366.755 191.661V463.093C366.755 466.103 369.203 468.551 372.212 468.551H565.31C568.32 468.551 570.768 466.103 570.768 463.093V191.66C570.768 188.651 568.32 186.202 565.31 186.202L372.212 186.203Z" fill="#EBEBEB"/>
<path d="M186.664 382.284H335.048V225.702L186.664 225.702L186.664 382.284Z" fill="#E6E6E6"/>
<path d="M180.369 382.284H332.107V225.702L180.369 225.702L180.369 382.284Z" fill="#F0F0F0"/>
<path d="M186.664 388.134H335.048V382.284H186.664V388.134Z" fill="#E6E6E6"/>
<path d="M169.879 388.134H321.617V382.284H169.879V388.134Z" fill="#F0F0F0"/>
<path d="M323.292 373.469V234.517L189.183 234.517L189.183 373.469H323.292Z" fill="#FAFAFA"/>
<path d="M277.618 373.469L256.342 234.517H231.92L253.196 373.469H277.618Z" fill="white"/>
<path d="M247.949 373.469L226.673 234.517H217.152L238.428 373.469H247.949Z" fill="white"/>
<path d="M190.302 373.469L190.302 234.517H189.183L189.183 373.469H190.302Z" fill="#E6E6E6"/>
<path d="M326.2 298.438H186.274V309.549H326.2V298.438Z" fill="#F0F0F0"/>
<path d="M385.222 513.399H402.285V306.919H385.222V513.399Z" fill="#E6E6E6"/>
<path d="M389.709 513.398H385.222V505.016H394.413L389.709 513.398Z" fill="#F0F0F0"/>
<path d="M523.303 513.399H540.366V306.919H523.303V513.399Z" fill="#E6E6E6"/>
<path d="M385.222 510.473H527.219V306.919H385.222V510.473Z" fill="#F0F0F0"/>
<path d="M391.947 369.233H520.493C522.285 369.233 523.738 367.78 523.738 365.988V313.496C523.738 311.704 522.285 310.251 520.493 310.251H391.947C390.155 310.251 388.702 311.704 388.702 313.496V365.988C388.702 367.78 390.155 369.233 391.947 369.233Z" fill="#E6E6E6"/>
<path d="M522.732 513.398H527.219V505.016H518.028L522.732 513.398Z" fill="#F0F0F0"/>
<path d="M391.947 437.746H520.493C522.285 437.746 523.738 436.293 523.738 434.501V382.01C523.738 380.218 522.285 378.765 520.493 378.765H391.947C390.155 378.765 388.702 380.218 388.702 382.01V434.502C388.702 436.293 390.155 437.746 391.947 437.746Z" fill="#E6E6E6"/>
<path d="M391.947 506.259H520.493C522.285 506.259 523.738 504.806 523.738 503.014V450.522C523.738 448.73 522.285 447.277 520.493 447.277H391.947C390.155 447.277 388.702 448.73 388.702 450.522V503.014C388.702 504.807 390.155 506.259 391.947 506.259Z" fill="#E6E6E6"/>
<path d="M429.08 317.527H480.347C482.51 317.527 484.577 314.312 486.065 308.635H423.363C424.85 314.312 426.917 317.527 429.08 317.527Z" fill="#F0F0F0"/>
<path d="M429.08 386.04H480.347C482.51 386.04 484.577 382.825 486.065 377.148H423.363C424.85 382.825 426.917 386.04 429.08 386.04Z" fill="#F0F0F0"/>
<path d="M429.08 454.554H480.347C482.51 454.554 484.577 451.339 486.065 445.662H423.363C424.85 451.338 426.917 454.554 429.08 454.554Z" fill="#F0F0F0"/>
<path d="M492.479 278.338C492.479 278.338 492.706 307.151 501.405 307.151C510.104 307.151 510.331 278.338 510.331 278.338H492.479Z" fill="#E6E6E6"/>
<path d="M398.667 278.547C398.667 278.547 399.232 307.151 420.899 307.151C442.566 307.151 443.131 278.547 443.131 278.547H398.667Z" fill="#E6E6E6"/>
<path d="M426.37 285.73C426.37 285.73 426.793 307.15 443.019 307.15C459.244 307.15 459.668 285.73 459.668 285.73H426.37Z" fill="#F0F0F0"/>
<path d="M448.036 291.449C448.036 291.449 448.346 307.151 460.24 307.151C472.134 307.151 472.444 291.449 472.444 291.449H448.036Z" fill="#EBEBEB"/>
<path d="M507.037 282.571C506.931 282.571 506.823 282.547 506.721 282.495C505.772 282.012 497.47 277.652 498.033 273.388C498.249 271.753 499.089 270.432 499.83 269.266C500.989 267.444 501.826 266.127 500.377 264.154C498.156 261.13 500.58 258.661 502.719 256.483C503.726 255.458 504.768 254.397 505.355 253.302C506.236 251.658 505.527 250.407 504.547 248.677C503.71 247.198 502.761 245.523 502.722 243.275C502.596 235.92 508.415 232.616 508.663 232.48C508.999 232.295 509.422 232.416 509.609 232.751C509.795 233.087 509.674 233.511 509.338 233.699C509.12 233.82 504.004 236.754 504.116 243.251C504.148 245.144 504.968 246.591 505.76 247.99C506.777 249.785 507.827 251.64 506.583 253.961C505.902 255.232 504.789 256.365 503.713 257.461C501.399 259.817 500.053 261.362 501.5 263.33C503.514 266.072 502.182 268.167 501.006 270.016C500.31 271.111 499.59 272.243 499.414 273.572C499.045 276.366 505.019 280.065 507.352 281.255C507.695 281.43 507.832 281.85 507.657 282.193C507.535 282.432 507.29 282.571 507.037 282.571Z" fill="#E6E6E6"/>
<path d="M512.121 214.667C512.121 214.667 500.967 226.634 508.519 234.187C522.193 234.186 512.121 214.667 512.121 214.667Z" fill="#F0F0F0"/>
<path d="M496.274 218.117C496.274 218.117 497.252 234.447 507.93 234.184C517.357 224.279 496.274 218.117 496.274 218.117Z" fill="#F0F0F0"/>
<path d="M517.029 244.64C517.029 244.64 505.5 243.904 504.755 251.409C510.875 258.878 517.029 244.64 517.029 244.64Z" fill="#F0F0F0"/>
<path d="M495.411 233.747C495.411 233.747 496.771 245.219 504.288 244.595C510.527 237.226 495.411 233.747 495.411 233.747Z" fill="#F0F0F0"/>
<path d="M494.785 254.431C494.785 254.431 501.623 257.402 499.842 261.931C494.128 264.419 494.785 254.431 494.785 254.431Z" fill="#F0F0F0"/>
<path d="M506.078 262.329C506.078 262.329 504.799 267.914 501.126 267.208C498.439 263.243 506.078 262.329 506.078 262.329Z" fill="#F0F0F0"/>
<path d="M510.386 256.755C510.386 256.755 504.62 261.481 501.404 257.828C501.801 251.608 510.386 256.755 510.386 256.755Z" fill="#F0F0F0"/>
<path d="M255.065 420.44H184.202V513.398H255.065V420.44Z" fill="#F5F5F5"/>
<path d="M192.182 504.85V428.987H190.951V504.85H192.182Z" fill="#E6E6E6"/>
<path d="M247.191 428.987H190.951V430.546H247.191V428.987Z" fill="#E6E6E6"/>
<path d="M327.159 420.44H256.296V513.398H327.159V420.44Z" fill="#F5F5F5"/>
<path d="M327.158 513.398H334.223V420.44H327.158V513.398Z" fill="#E0E0E0"/>
<path d="M264.275 504.85V428.987H263.044V504.85H264.275Z" fill="#E6E6E6"/>
<path d="M256.296 513.399V421.687H255.065L255.065 513.399H256.296Z" fill="#E6E6E6"/>
<path d="M319.285 428.987H263.045V430.546H319.285V428.987Z" fill="#E6E6E6"/>
<path d="M251.399 429.767C252.132 429.767 252.726 430.361 252.726 431.093V452.688C252.726 453.421 252.132 454.015 251.399 454.015C250.667 454.015 250.073 453.421 250.073 452.688V431.093C250.073 430.361 250.667 429.767 251.399 429.767Z" fill="#E0E0E0"/>
<path d="M259.961 429.767C260.694 429.767 261.288 430.361 261.288 431.093V452.688C261.288 453.421 260.694 454.015 259.961 454.015C259.228 454.015 258.635 453.421 258.635 452.688V431.093C258.635 430.361 259.229 429.767 259.961 429.767Z" fill="#E0E0E0"/>
<path d="M336.5 417.276H182V421.686H336.5V417.276Z" fill="#EBEBEB"/>
<path d="M336.5 417.276H324.167V421.686H336.5V417.276Z" fill="#E0E0E0"/>
<path d="M362 558.561C469.082 558.561 555.889 553.492 555.889 547.238C555.889 540.984 469.082 535.915 362 535.915C254.918 535.915 168.111 540.984 168.111 547.238C168.111 553.492 254.918 558.561 362 558.561Z" fill="#F5F5F5"/>
<path d="M538.087 235.715L537.744 236.654L557.443 243.854L557.786 242.915L538.087 235.715Z" fill="#407BFF"/>
<path d="M526.8 231.589L526.457 232.528L532.742 234.826L533.086 233.886L526.8 231.589Z" fill="#407BFF"/>
<path d="M464.574 212.559L568.624 250.59C574.509 252.741 577.564 259.316 575.413 265.201L495.751 483.152C493.6 489.037 487.025 492.092 481.14 489.941L377.09 451.91C371.205 449.759 368.15 443.184 370.301 437.299L449.963 219.348C452.114 213.463 458.689 210.408 464.574 212.559Z" fill="#407BFF"/>
<path d="M491.714 481.525L571.278 263.841C572.745 259.828 570.681 255.385 566.667 253.919L461.223 215.379C457.21 213.912 452.767 215.976 451.301 219.99L371.737 437.674C370.27 441.687 372.334 446.13 376.347 447.597L481.791 486.137C485.805 487.602 490.247 485.538 491.714 481.525Z" fill="white"/>
<path d="M525.723 237.42C522.719 241.453 517.423 243.034 512.7 241.308L510.604 240.542C505.881 238.816 502.852 234.192 503.157 229.173L525.723 237.42Z" fill="#407BFF"/>
<path opacity="0.1" d="M488.654 480.447C489.635 480.805 490.731 480.296 491.089 479.315L569.24 265.497C569.599 264.516 569.089 263.42 568.108 263.062C567.127 262.703 566.031 263.213 565.673 264.194L487.522 478.013C487.164 478.993 487.673 480.088 488.654 480.447Z" fill="#263238"/>
<path opacity="0.1" d="M374.771 438.822C375.752 439.18 376.848 438.671 377.206 437.69L455.357 223.872C455.715 222.891 455.206 221.795 454.225 221.437C453.244 221.078 452.148 221.588 451.79 222.569L373.639 436.388C373.281 437.368 373.79 438.464 374.771 438.822Z" fill="#263238"/>
<g opacity="0.9">
<path d="M486.642 463.729L518.794 255.684C519.583 250.582 516.086 245.807 510.984 245.018L412.426 229.786C407.324 228.998 402.549 232.494 401.76 237.597L369.608 445.642C368.82 450.744 372.316 455.519 377.419 456.308L475.977 471.54C481.078 472.328 485.853 468.831 486.642 463.729Z" fill="white"/>
<path d="M477.409 472.149C476.91 472.149 476.406 472.111 475.899 472.033L377.341 456.802C371.974 455.972 368.283 450.932 369.113 445.566L401.265 237.521C401.667 234.921 403.057 232.634 405.179 231.08C407.302 229.525 409.906 228.893 412.501 229.293L511.059 244.524C513.659 244.926 515.946 246.316 517.5 248.438C519.054 250.561 519.689 253.161 519.287 255.76L487.135 463.805C486.385 468.664 482.181 472.149 477.409 472.149ZM410.979 230.174C409.114 230.174 407.303 230.763 405.77 231.886C403.863 233.282 402.614 235.338 402.253 237.673L370.101 445.718C369.74 448.054 370.31 450.39 371.706 452.297C373.102 454.204 375.158 455.453 377.493 455.814L476.051 471.045C480.873 471.788 485.402 468.474 486.147 463.652L518.3 255.607C518.661 253.271 518.091 250.935 516.695 249.028C515.299 247.121 513.243 245.872 510.908 245.511L412.349 230.28C411.891 230.209 411.434 230.174 410.979 230.174Z" fill="#407BFF"/>
<path d="M495.272 327.15C494.781 327.15 494.287 327.112 493.793 327.036L404.055 313.167C401.533 312.777 399.313 311.429 397.805 309.369C396.297 307.31 395.682 304.787 396.071 302.265L402.645 259.727C403.035 257.204 404.383 254.985 406.442 253.477C408.502 251.968 411.027 251.354 413.546 251.743L503.285 265.611C508.492 266.416 512.074 271.307 511.269 276.513L504.695 319.052C504.305 321.574 502.957 323.794 500.897 325.302C499.242 326.514 497.286 327.15 495.272 327.15ZM412.07 252.628C410.267 252.628 408.516 253.197 407.033 254.282C405.19 255.632 403.982 257.619 403.633 259.878L397.059 302.417C396.71 304.676 397.261 306.935 398.611 308.778C399.961 310.622 401.948 311.829 404.207 312.178L493.945 326.047C496.207 326.395 498.463 325.844 500.306 324.495C502.15 323.145 503.357 321.158 503.706 318.899L510.28 276.36C511 271.698 507.794 267.319 503.132 266.598L413.393 252.73C412.952 252.662 412.509 252.628 412.07 252.628Z" fill="#407BFF"/>
<path d="M483.315 391.81C482.717 391.81 482.111 391.765 481.502 391.67L396.26 378.496C389.813 377.5 385.379 371.445 386.375 364.998C387.372 358.551 393.43 354.119 399.873 355.113L485.115 368.287C488.238 368.769 490.986 370.439 492.853 372.989C494.72 375.538 495.482 378.662 495 381.785C494.098 387.623 489.048 391.81 483.315 391.81ZM398.06 355.974C392.812 355.974 388.189 359.807 387.363 365.151C386.451 371.053 390.51 376.596 396.412 377.508L481.654 390.682C487.557 391.591 493.1 387.534 494.011 381.633C494.453 378.774 493.755 375.914 492.046 373.58C490.337 371.246 487.821 369.718 484.963 369.276L399.721 356.102C399.164 356.016 398.608 355.974 398.06 355.974Z" fill="#407BFF"/>
<path d="M478.987 419.823C478.388 419.823 477.782 419.778 477.173 419.683L391.931 406.51C385.484 405.513 381.05 399.458 382.046 393.012C382.528 389.889 384.198 387.141 386.748 385.274C389.298 383.407 392.423 382.644 395.544 383.128L480.786 396.301C487.233 397.297 491.667 403.352 490.671 409.799C489.769 415.636 484.719 419.823 478.987 419.823ZM393.714 383.986C391.431 383.986 389.215 384.706 387.339 386.081C385.005 387.79 383.477 390.306 383.035 393.165C382.123 399.067 386.182 404.61 392.084 405.522L477.326 418.695C483.231 419.603 488.771 415.547 489.683 409.646C490.595 403.744 486.536 398.201 480.634 397.289L395.392 384.116C394.832 384.029 394.271 383.986 393.714 383.986Z" fill="#407BFF"/>
<path d="M474.675 447.839C474.067 447.839 473.455 447.792 472.843 447.697L387.601 434.524C381.154 433.528 376.72 427.473 377.716 421.026C378.713 414.579 384.77 410.144 391.214 411.141L476.456 424.315C479.579 424.797 482.327 426.467 484.194 429.017C486.061 431.567 486.823 434.69 486.341 437.813L485.847 437.737L486.341 437.814C485.859 440.937 484.189 443.685 481.639 445.552C479.59 447.052 477.168 447.839 474.675 447.839ZM389.402 412.001C384.154 412.001 379.531 415.834 378.705 421.178C377.793 427.08 381.852 432.623 387.754 433.535L472.996 446.708C475.855 447.149 478.715 446.452 481.049 444.743C483.383 443.034 484.911 440.518 485.353 437.66C485.795 434.801 485.097 431.941 483.388 429.607C481.679 427.273 479.163 425.745 476.305 425.303L391.063 412.129C390.505 412.043 389.95 412.001 389.402 412.001Z" fill="#407BFF"/>
<path d="M489.744 347.763C489.533 347.763 489.32 347.747 489.105 347.714L446.462 341.124C445.361 340.954 444.393 340.365 443.735 339.467C443.077 338.569 442.809 337.468 442.979 336.368C443.33 334.097 445.463 332.533 447.735 332.885L490.377 339.475C491.478 339.645 492.446 340.233 493.104 341.131C493.762 342.029 494.03 343.13 493.86 344.23C493.543 346.287 491.764 347.763 489.744 347.763ZM447.097 333.835C445.562 333.835 444.21 334.957 443.968 336.52C443.839 337.356 444.043 338.193 444.543 338.876C445.043 339.559 445.779 340.006 446.615 340.135L489.258 346.725C490.095 346.854 490.931 346.65 491.614 346.15C492.297 345.65 492.744 344.914 492.873 344.078C493.002 343.242 492.798 342.405 492.298 341.722C491.798 341.039 491.062 340.592 490.226 340.463L447.583 333.873C447.419 333.848 447.257 333.835 447.097 333.835Z" fill="#263238"/>
<path d="M487.881 359.82C487.67 359.82 487.457 359.804 487.242 359.771L426.653 350.407C425.552 350.237 424.584 349.649 423.926 348.751C423.268 347.852 423 346.752 423.17 345.652C423.34 344.551 423.928 343.583 424.826 342.925C425.724 342.267 426.826 341.999 427.925 342.169L488.514 351.532C490.786 351.883 492.348 354.017 491.997 356.288C491.68 358.345 489.9 359.82 487.881 359.82ZM427.282 343.119C426.615 343.119 425.966 343.33 425.417 343.732C424.734 344.232 424.287 344.968 424.158 345.804C424.029 346.64 424.233 347.477 424.733 348.16C425.233 348.843 425.969 349.29 426.805 349.419L487.394 358.783C489.12 359.054 490.742 357.863 491.009 356.136C491.276 354.409 490.088 352.788 488.362 352.521L427.773 343.158C427.609 343.132 427.445 343.119 427.282 343.119Z" fill="#263238"/>
<path d="M430.877 293.534C435.979 287.969 435.604 279.322 430.039 274.219C424.474 269.117 415.827 269.492 410.725 275.057C405.622 280.622 405.998 289.27 411.562 294.372C417.127 299.474 425.775 299.099 430.877 293.534Z" fill="#407BFF"/>
</g>
<g opacity="0.9">
<path d="M411.336 468.813L416.986 258.374C417.125 253.213 413.053 248.917 407.892 248.779L308.2 246.103C303.039 245.964 298.743 250.036 298.605 255.197L292.955 465.636C292.816 470.797 296.888 475.093 302.049 475.231L401.741 477.907C406.901 478.045 411.197 473.973 411.336 468.813Z" fill="#407BFF"/>
<path opacity="0.1" d="M411.336 468.813L416.986 258.374C417.125 253.213 413.053 248.917 407.892 248.779L308.2 246.103C303.039 245.964 298.743 250.036 298.605 255.197L292.955 465.636C292.816 470.797 296.888 475.093 302.049 475.231L401.741 477.907C406.901 478.045 411.197 473.973 411.336 468.813Z" fill="black"/>
<path opacity="0.2" d="M407.909 419.296L409.064 376.268C409.198 371.269 405.254 367.107 400.255 366.973L309.484 364.536C304.485 364.402 300.323 368.346 300.189 373.345L299.034 416.373C298.9 421.372 302.844 425.534 307.843 425.668L398.614 428.105C403.613 428.239 407.774 424.295 407.909 419.296Z" fill="#263238"/>
<path d="M375.798 453.618C375.624 460.097 380.735 465.49 387.214 465.664C393.693 465.838 399.086 460.727 399.26 454.248C399.434 447.769 394.323 442.376 387.844 442.202C381.365 442.028 375.972 447.139 375.798 453.618Z" fill="white"/>
<path d="M305.795 451.738C305.621 458.217 310.732 463.61 317.211 463.784C323.69 463.958 329.083 458.847 329.257 452.368C329.431 445.889 324.32 440.496 317.841 440.322C311.362 440.149 305.969 445.26 305.795 451.738Z" fill="white"/>
<path d="M340.797 452.678C340.623 459.157 345.734 464.55 352.213 464.724C358.692 464.898 364.085 459.787 364.259 453.308C364.433 446.829 359.322 441.436 352.843 441.262C346.364 441.088 340.971 446.199 340.797 452.678Z" fill="white"/>
<path d="M411.588 282.247C411.756 275.992 406.821 270.785 400.566 270.617L314.343 268.302C308.088 268.134 302.881 273.069 302.713 279.324C302.545 285.579 307.48 290.786 313.735 290.954L399.958 293.269C406.213 293.437 411.42 288.502 411.588 282.247Z" fill="white"/>
<path d="M410.77 312.708C410.938 306.453 406.003 301.246 399.748 301.078L313.525 298.763C307.27 298.595 302.063 303.53 301.895 309.785C301.727 316.04 306.662 321.247 312.917 321.415L399.14 323.73C405.395 323.898 410.602 318.963 410.77 312.708Z" fill="white"/>
<path d="M409.952 343.169C410.12 336.914 405.185 331.707 398.93 331.539L312.707 329.224C306.452 329.056 301.245 333.991 301.077 340.246C300.909 346.501 305.844 351.708 312.099 351.876L398.322 354.191C404.578 354.359 409.784 349.425 409.952 343.169Z" fill="white"/>
</g>
<path d="M225.693 294.136L224.505 295.482L223.259 296.931L220.803 299.896C219.201 301.903 217.621 303.924 216.167 306.002C213.223 310.12 210.608 314.416 208.858 318.675C208.426 319.735 208.057 320.788 207.759 321.823C207.487 322.681 207.318 323.635 207.178 324.709C206.927 326.849 206.956 329.275 207.124 331.758C207.468 336.722 208.419 342.035 209.397 347.138L202.911 349.77C201.391 347.18 200.176 344.652 199.062 341.954C197.952 339.277 197.006 336.504 196.266 333.596C195.518 330.687 194.996 327.637 194.905 324.303C194.853 322.643 194.968 320.862 195.295 319.048C195.606 317.414 196.011 315.839 196.481 314.314C198.429 308.253 201.319 302.975 204.528 298.056C206.157 295.611 207.856 293.243 209.676 290.978C210.581 289.841 211.506 288.723 212.467 287.628C212.947 287.08 213.428 286.53 213.931 285.993C214.446 285.438 214.908 284.949 215.525 284.32L225.693 294.136Z" fill="#263238"/>
<path d="M210.518 347.235L213.224 349.678L203.734 354.657C203.734 354.657 203.109 353.633 202.706 352.131C202.009 349.535 203.735 346.807 206.407 346.197C207.891 345.857 209.42 346.243 210.518 347.235Z" fill="#FFB573"/>
<path d="M216.858 355.834L208.836 359.59L203.733 354.656L213.223 349.678L216.858 355.834Z" fill="#FFB573"/>
<path d="M251.501 257.514C251.46 258.179 251.779 258.726 252.214 258.735C252.649 258.744 253.034 258.212 253.075 257.547C253.116 256.882 252.797 256.335 252.362 256.326C251.927 256.317 251.542 256.849 251.501 257.514Z" fill="#263238"/>
<path d="M251.718 258.725C251.718 258.725 252.994 262.595 254.544 264.481C253.301 265.555 251.332 265.011 251.332 265.011L251.718 258.725Z" fill="#FF5652"/>
<path d="M249.311 253.772C249.408 253.789 249.513 253.77 249.604 253.709C251.064 252.73 252.357 253.234 252.411 253.258C252.606 253.338 252.839 253.241 252.928 253.042C253.017 252.842 252.931 252.616 252.736 252.535C252.667 252.506 251.017 251.84 249.187 253.066C249.004 253.189 248.95 253.432 249.065 253.61C249.123 253.699 249.213 253.755 249.311 253.772Z" fill="#263238"/>
<path d="M232.263 260.052C233.059 266.188 233.334 278.584 228.854 282.053C228.854 282.053 230.309 287.057 241.522 288.455C253.851 289.992 247.806 283.116 247.806 283.116C241.18 280.682 241.673 275.749 243.146 271.242L232.263 260.052Z" fill="#FFB573"/>
<path d="M202.449 530.103C202.477 530.095 202.504 530.086 202.53 530.076C202.738 529.995 202.993 529.79 203.033 529.277C203.054 529.007 202.965 528.769 202.769 528.571C201.918 527.709 199.153 527.878 199.036 527.885C198.958 527.892 198.89 527.94 198.86 528.012C198.83 528.085 198.845 528.166 198.898 528.22C199.476 528.811 201.432 530.377 202.449 530.103ZM199.519 528.258C200.449 528.246 201.98 528.338 202.486 528.851C202.604 528.971 202.656 529.105 202.644 529.263C202.615 529.629 202.454 529.693 202.401 529.713C201.847 529.932 200.436 529.07 199.519 528.258Z" fill="#407BFF"/>
<path d="M200.429 528.065C201.421 527.797 202.493 527.303 202.725 526.735C202.79 526.576 202.845 526.265 202.485 525.975C202.252 525.788 201.971 525.716 201.651 525.763C200.424 525.937 198.948 527.883 198.886 527.966C198.842 528.025 198.833 528.101 198.862 528.165C198.891 528.229 198.953 528.271 199.025 528.274C199.367 528.29 199.886 528.211 200.429 528.065ZM201.554 526.179C201.601 526.166 201.647 526.157 201.692 526.15C201.905 526.119 202.082 526.163 202.233 526.284C202.428 526.441 202.383 526.552 202.364 526.6C202.152 527.119 200.522 527.75 199.459 527.868C199.894 527.352 200.791 526.385 201.554 526.179Z" fill="#407BFF"/>
<path d="M252.795 539.238C253.853 539.238 254.881 539.092 255.243 538.616C255.37 538.449 255.476 538.166 255.262 537.762C255.142 537.536 254.939 537.382 254.661 537.305C253.302 536.931 250.353 538.574 250.229 538.645C250.157 538.686 250.115 538.766 250.125 538.846C250.135 538.926 250.194 538.99 250.273 539.006C250.795 539.111 251.808 539.238 252.795 539.238ZM254.167 537.637C254.304 537.637 254.431 537.651 254.543 537.682C254.721 537.731 254.843 537.82 254.915 537.956C255.044 538.198 254.989 538.318 254.936 538.388C254.53 538.92 252.444 538.932 250.919 538.716C251.699 538.324 253.203 537.637 254.167 537.637Z" fill="#407BFF"/>
<path d="M250.311 539.009C250.338 539.009 250.366 539.004 250.392 538.992C251.406 538.545 253.451 536.761 253.338 535.828C253.311 535.609 253.167 535.337 252.633 535.282C252.237 535.245 251.866 535.355 251.536 535.618C250.452 536.479 250.139 538.702 250.127 538.796C250.118 538.866 250.146 538.933 250.2 538.974C250.231 538.997 250.271 539.009 250.311 539.009ZM252.459 535.665C252.497 535.665 252.536 535.667 252.576 535.672C252.926 535.708 252.943 535.846 252.948 535.891C253.016 536.451 251.618 537.853 250.578 538.463C250.711 537.814 251.059 536.484 251.77 535.919C251.985 535.749 252.211 535.665 252.459 535.665Z" fill="#407BFF"/>
<path d="M241.247 538.814H249.497L251.093 519.708H242.843L241.247 538.814Z" fill="#FFB573"/>
<path d="M189.76 527.781L197.605 529.31L204.849 510.631L197.004 509.102L189.76 527.781Z" fill="#FFB573"/>
<path d="M199.049 526.945L191.29 522.184C191.008 522.011 190.635 522.062 190.393 522.307L185.007 527.762C184.448 528.328 184.554 529.253 185.213 529.641C187.952 531.255 189.372 531.9 192.785 533.994C194.884 535.282 199.202 538.744 202.326 540.115C205.382 541.455 207.341 538.52 206.196 537.674C201.062 533.881 200.592 530.684 199.892 528.069C199.766 527.596 199.462 527.198 199.049 526.945Z" fill="#263238"/>
<path d="M249.481 537.859H240.471C240.134 537.859 239.832 538.093 239.746 538.423L237.819 545.756C237.619 546.516 238.167 547.237 238.946 547.223C242.198 547.168 246.902 546.977 250.987 546.977C255.763 546.977 256.536 547.237 262.138 547.237C265.525 547.237 266.604 543.813 265.199 543.503C258.802 542.091 256.88 541.94 251.442 538.501C250.852 538.128 250.193 537.859 249.481 537.859Z" fill="#263238"/>
<path d="M261.356 310.637C261.242 313.444 261.049 316.533 260.754 319.936C259.974 329.19 258.496 340.723 255.983 355.053H211.859C211.833 348.79 216.618 320.05 213.191 290.518C212.718 286.441 215.718 282.627 219.832 282.106C222.07 281.822 224.579 281.568 227.04 281.45C232.688 281.18 240.86 281.001 245.795 281.45C248.786 281.729 251.688 282.235 253.951 282.701C257.147 283.359 259.581 285.819 260.256 289.008C261.095 292.968 261.807 299.656 261.356 310.637Z" fill="#263238"/>
<path opacity="0.3" d="M252.411 355.178C252.404 355.178 252.397 355.177 252.39 355.176C252.322 355.164 252.276 355.099 252.288 355.031C254.602 341.836 256.207 330.025 257.058 319.925C257.337 316.709 257.539 313.582 257.66 310.631C258.127 299.264 257.321 292.612 256.564 289.032C256.549 288.965 256.593 288.898 256.66 288.884C256.731 288.869 256.794 288.913 256.808 288.98C257.899 294.133 258.28 301.623 257.91 310.64C257.79 313.595 257.587 316.725 257.307 319.945C256.455 330.052 254.849 341.871 252.534 355.073C252.523 355.136 252.471 355.178 252.411 355.178Z" fill="black"/>
<path opacity="0.2" d="M253.538 303.92C253.425 310.15 256.638 324.14 259.659 330.53C260.124 326.7 260.487 323.18 260.759 319.94C260.991 317.17 261.165 314.62 261.28 312.26L253.538 303.92Z" fill="black"/>
<path d="M289.484 319.163L296.852 314.78L298.193 324.858C298.193 324.858 292.352 326.495 289.077 324.525L289.484 319.163Z" fill="#FFB573"/>
<path d="M306.544 315.503L304.114 323.546L298.193 324.857L296.852 314.78L306.544 315.503Z" fill="#FFB573"/>
<path d="M259.115 287.02C259.503 287.899 259.746 288.538 260.002 289.201C260.254 289.851 260.477 290.476 260.698 291.094L261.976 294.728C262.817 297.115 263.627 299.47 264.488 301.775C265.345 304.077 266.209 306.349 267.162 308.502C268.092 310.654 269.09 312.74 270.15 314.456C270.677 315.302 271.203 316.07 271.644 316.583C271.859 316.838 272.046 317.023 272.13 317.11C272.169 317.15 272.19 317.182 272.157 317.176C272.118 317.169 272.164 317.197 272.222 317.228L272.365 317.323C272.806 317.566 273.546 317.822 274.418 317.988C275.294 318.159 276.302 318.228 277.367 318.278C281.648 318.403 286.681 317.658 291.428 316.903L291.666 316.865C293.6 316.558 295.417 317.876 295.724 319.81C295.954 321.256 295.271 322.638 294.105 323.371C292.844 324.161 291.697 324.815 290.449 325.442C289.22 326.072 287.957 326.637 286.663 327.164C284.07 328.208 281.352 329.076 278.363 329.601C276.867 329.876 275.297 330.022 273.607 330.023C271.918 330.013 270.093 329.862 268.108 329.242L267.355 328.981C267.112 328.897 266.86 328.805 266.536 328.648C265.921 328.366 265.395 328.058 264.899 327.741C263.919 327.106 263.131 326.443 262.438 325.789C261.066 324.476 260.021 323.193 259.108 321.912C255.553 316.824 253.388 311.876 251.316 306.889C250.316 304.399 249.378 301.917 248.517 299.451L247.254 295.802L246.658 294.061C246.472 293.516 246.269 292.949 246.151 292.647L246.073 292.448C244.651 288.815 246.443 284.717 250.076 283.295C253.612 281.912 257.592 283.585 259.115 287.02Z" fill="#263238"/>
<path opacity="0.2" d="M251.091 519.714L250.27 529.562H242.016L242.838 519.714H251.091Z" fill="black"/>
<path opacity="0.2" d="M197 509.106L204.849 510.636L201.111 520.264L193.262 518.734L197 509.106Z" fill="black"/>
<path d="M229.416 255.641C229.415 263.822 228.998 268.627 232.864 272.907C238.679 279.345 248.986 275.814 251.435 267.698C253.639 260.393 253.27 248.241 245.479 244.823C237.802 241.455 229.417 247.459 229.416 255.641Z" fill="#FFB573"/>
<path d="M247.91 259.75C248.613 257.833 251.406 249.583 246.219 247C241.032 244.417 234.189 243.625 229.99 245.458C225.791 247.291 222.685 254 222.685 254C222.685 254 224.654 268.125 232.926 270.667C241.198 273.208 250.511 263.417 247.91 259.75Z" fill="#263238"/>
<path d="M245.912 248.056C247.062 247.778 248.378 246.784 248.378 246.784C251.36 243.869 246.065 241.917 240.806 241.444C234.861 240.91 226.328 243.277 222.942 247.666C226.153 249.316 241.331 249.389 245.912 248.056Z" fill="#263238"/>
<path d="M245.417 247.238C246.419 247.306 247.74 246.823 247.74 246.823C251.765 244.855 247.135 242.188 243.008 240.433C238.342 238.449 230.832 238.2 226.956 240.961C229.121 243.16 241.368 247.156 245.417 247.238Z" fill="#263238"/>
<path d="M244.318 258.616C244.302 260.534 245.067 262.36 246.055 263.568C247.541 265.385 249.293 264.328 249.725 262.177C250.114 260.241 249.809 256.963 247.911 255.932C246.041 254.915 244.336 256.424 244.318 258.616Z" fill="#FFB573"/>
<path d="M240.334 355.054C240.334 355.054 241.694 417.483 233.381 440.502C220.214 476.964 205.922 519.283 205.922 519.283L190.864 515.93C190.864 515.93 202.957 469.881 209.593 439.167C215.554 411.575 210.946 377.591 211.86 355.054C222.139 355.054 240.334 355.054 240.334 355.054Z" fill="#407BFF"/>
<g opacity="0.3">
<path d="M240.334 355.054C240.334 355.054 241.694 417.483 233.381 440.502C220.214 476.964 205.922 519.283 205.922 519.283L190.864 515.93C190.864 515.93 202.957 469.881 209.593 439.167C215.554 411.575 210.946 377.591 211.86 355.054C222.139 355.054 240.334 355.054 240.334 355.054Z" fill="white"/>
</g>
<path opacity="0.2" d="M240.401 368.964C236.286 367.747 233.022 368.206 232.028 371.911C229.436 381.584 235 407.092 237.815 418.762C239.828 402.042 240.33 382.044 240.401 368.964Z" fill="black"/>
<path d="M209.983 514.708C210.045 514.722 206.253 519.599 206.253 519.599L189.8 515.936L191.68 510.288L209.983 514.708Z" fill="#407BFF"/>
<path d="M255.988 355.054C255.988 355.054 265.152 407.507 265.006 432.667C264.843 460.883 253.421 527.655 253.421 527.655H239.445C239.445 527.655 241.206 460.534 241.627 434.834C242.086 406.816 226.981 355.054 226.981 355.054H255.988Z" fill="#407BFF"/>
<g opacity="0.3">
<path d="M255.988 355.054C255.988 355.054 265.152 407.507 265.006 432.667C264.843 460.883 253.421 527.655 253.421 527.655H239.445C239.445 527.655 241.206 460.534 241.627 434.834C242.086 406.816 226.981 355.054 226.981 355.054H255.988Z" fill="white"/>
</g>
<path d="M256.337 522.088C256.401 522.088 255.313 527.89 255.313 527.89H238.312L238.062 522.712L256.337 522.088Z" fill="#407BFF"/>
<path d="M240.271 372.958C240.227 372.958 240.183 372.946 240.144 372.923L234.325 369.485C234.259 369.445 234.214 369.378 234.204 369.301L233.009 359.988C233 359.917 233.022 359.845 233.07 359.791C233.117 359.737 233.186 359.706 233.258 359.706H244.425C244.552 359.706 244.658 359.801 244.674 359.927L245.738 369.01C245.748 369.101 245.708 369.191 245.633 369.244L240.417 372.911C240.372 372.943 240.321 372.958 240.271 372.958ZM234.684 369.118L240.259 372.411L245.221 368.923L244.2 360.209H233.54L234.684 369.118Z" fill="white"/>
</svg>
