<svg width="283" height="283" viewBox="0 0 283 283" fill="none" xmlns="http://www.w3.org/2000/svg">
<circle cx="141.5" cy="141.5" r="141.5" fill="#ADABFF" fill-opacity="0.17"/>
<g clip-path="url(#clip0_920_1073)">
<path d="M142 61.8889C126.353 61.8889 111.058 66.5287 98.0483 75.2215C85.0385 83.9144 74.8987 96.2698 68.9109 110.725C62.9232 125.181 61.3565 141.088 64.409 156.434C67.4616 171.78 74.9962 185.876 86.0601 196.94C97.124 208.004 111.22 215.538 126.566 218.591C141.912 221.644 157.819 220.077 172.275 214.089C186.73 208.101 199.086 197.962 207.779 184.952C216.471 171.942 221.111 156.647 221.111 141C221.111 120.018 212.776 99.8962 197.94 85.06C183.104 70.2238 162.982 61.8889 142 61.8889ZM142 210.222C128.309 210.222 114.926 206.162 103.542 198.556C92.1587 190.95 83.2863 180.139 78.0471 167.49C72.8078 154.841 71.437 140.923 74.1079 127.495C76.7789 114.068 83.3717 101.733 93.0526 92.0525C102.733 82.3716 115.068 75.7788 128.495 73.1079C141.923 70.4369 155.842 71.8077 168.49 77.047C181.139 82.2863 191.95 91.1587 199.556 102.542C207.162 113.926 211.222 127.309 211.222 141C211.222 159.359 203.929 176.966 190.948 189.947C177.966 202.929 160.359 210.222 142 210.222Z" fill="#110DD9"/>
<path d="M191.444 111.828C190.518 110.907 189.265 110.39 187.958 110.39C186.652 110.39 185.399 110.907 184.472 111.828L129.589 166.464L99.9224 136.797C99.0176 135.82 97.7617 135.243 96.4311 135.192C95.1005 135.141 93.8041 135.62 92.8272 136.525C91.8502 137.43 91.2727 138.686 91.2217 140.017C91.1707 141.347 91.6504 142.644 92.5552 143.621L129.589 180.556L191.444 118.849C191.908 118.389 192.275 117.842 192.526 117.24C192.777 116.637 192.907 115.991 192.907 115.338C192.907 114.686 192.777 114.039 192.526 113.437C192.275 112.834 191.908 112.287 191.444 111.828Z" fill="#110DD9"/>
</g>
<defs>
<clipPath id="clip0_920_1073">
<rect width="178" height="178" fill="white" transform="translate(53 52)"/>
</clipPath>
</defs>
</svg>
