<svg width="500" height="500" viewBox="0 0 500 500" fill="none" xmlns="http://www.w3.org/2000/svg">
<g clip-path="url(#clip0_238_4550)">
<path d="M252.345 332.295V455.493" stroke="white" stroke-width="2.8347" stroke-miterlimit="10" stroke-linecap="round" stroke-linejoin="round" stroke-dasharray="8.5 28.35 42.52 8.5 28.35 42.52"/>
<path d="M251.939 33.113V161.324" stroke="white" stroke-width="2.8347" stroke-miterlimit="10" stroke-linecap="round" stroke-linejoin="round" stroke-dasharray="8.5 28.35 53.86 8.5 28.35 53.86"/>
<path d="M290.49 284.152L400.792 394.453" stroke="white" stroke-width="2.8347" stroke-miterlimit="10" stroke-linecap="round" stroke-linejoin="round" stroke-dasharray="14.17 14.17 56.69 14.17 14.17 56.69"/>
<path d="M102.869 95.041L226.06 218.232" stroke="white" stroke-width="2.8347" stroke-miterlimit="10" stroke-linecap="round" stroke-linejoin="round" stroke-dasharray="14.17 14.17 56.69 14.17 14.17 56.69"/>
<path d="M416.593 243.417H461.189" stroke="white" stroke-width="2.8347" stroke-miterlimit="10" stroke-linecap="round" stroke-linejoin="round" stroke-dasharray="14.17 28.35 99.21 14.17 28.35 99.21"/>
<path d="M38.8101 243.417H82.3291" stroke="white" stroke-width="2.8347" stroke-miterlimit="10" stroke-linecap="round" stroke-linejoin="round" stroke-dasharray="14.17 28.35 99.21 14.17 28.35 99.21"/>
<path d="M198.015 298.644L102.981 393.678" stroke="white" stroke-width="2.8347" stroke-miterlimit="10" stroke-linecap="round" stroke-linejoin="round" stroke-dasharray="14.17 14.17 56.69 14.17 14.17 56.69"/>
<path d="M401.412 94.7729L295.686 200.498" stroke="white" stroke-width="2.8347" stroke-miterlimit="10" stroke-linecap="round" stroke-linejoin="round" stroke-dasharray="14.17 14.17 42.52 14.17 14.17 42.52"/>
<path d="M279.039 304.045L333.522 441.493" stroke="white" stroke-width="2.8347" stroke-miterlimit="10" stroke-linecap="round" stroke-linejoin="round" stroke-dasharray="8.5 14.17 42.52 8.5 14.17 42.52"/>
<path d="M176.549 45.4929L230.045 180.447" stroke="white" stroke-width="2.8347" stroke-miterlimit="10" stroke-linecap="round" stroke-linejoin="round" stroke-dasharray="8.5 14.17 42.52 8.5 14.17 42.52"/>
<path d="M225.057 312.256L168.203 446.493" stroke="white" stroke-width="2.8347" stroke-miterlimit="10" stroke-linecap="round" stroke-linejoin="round" stroke-dasharray="8.5 14.17 42.52 8.5 14.17 42.52"/>
<path d="M337.06 49.437L287.12 167.35" stroke="white" stroke-width="2.8347" stroke-miterlimit="10" stroke-linecap="round" stroke-linejoin="round" stroke-dasharray="8.5 14.17 28.35 8.5 14.17 28.35"/>
<path d="M95.663 312.256L55.522 325.434" stroke="white" stroke-width="2.8347" stroke-miterlimit="10" stroke-linecap="round" stroke-linejoin="round" stroke-dasharray="8.5 14.17 42.52 8.5 14.17 42.52"/>
<path d="M451.521 167.36L381.663 193.692" stroke="white" stroke-width="2.8347" stroke-miterlimit="10" stroke-linecap="round" stroke-linejoin="round" stroke-dasharray="8.5 14.17 42.52 8.5 14.17 42.52"/>
<path d="M451.522 331.868L354.994 293.133" stroke="white" stroke-width="2.8347" stroke-miterlimit="10" stroke-linecap="round" stroke-linejoin="round" stroke-dasharray="8.5 14.17 42.52 8.5 14.17 42.52"/>
<path d="M150.04 202.159L55.522 161.493" stroke="white" stroke-width="2.8347" stroke-miterlimit="10" stroke-linecap="round" stroke-linejoin="round" stroke-dasharray="8.5 14.17 42.52 8.5 14.17 42.52"/>
<path d="M419.932 208.576C400.596 208.08 382.375 251.872 370.648 252.12C369.571 252.139 368.636 251.92 367.845 251.472H367.835C367.816 251.461 367.807 251.452 367.797 251.443C367.769 251.434 367.731 251.405 367.673 251.358C367.119 251.052 366.643 250.614 366.224 250.089L366.196 250.06C363.726 246.961 363.336 240.735 363.965 234.042C364.66 234.433 365.558 234.7 366.692 234.7C367.693 234.709 368.875 234.509 370.277 234.023C377.884 231.411 382.471 211.149 378.934 207.297C378.923 207.297 378.923 207.297 378.923 207.297C378.304 206.115 376.845 204.551 373.394 203.836C363.373 201.738 354.677 215.44 353.8 231.782C353.543 236.607 354.248 240.802 355.689 244.206C352.915 254.427 345.668 279.875 342.073 280.57C341.482 280.685 341.044 280.561 340.738 280.217C338.708 277.995 342.283 266.459 344.448 251.622C345.982 241.116 348.795 228.053 348.957 219.024C349.062 213.379 348.128 209.308 345.201 208.45C337.583 206.2 326.856 233.03 326.856 233.03C326.856 233.03 330.85 211.196 324.11 211.616C321.165 211.797 318.027 215.267 315.386 219.148C314.708 212.751 312.144 209.146 306.147 212.693C306.147 212.693 307.767 214.686 304.021 228.034C303.897 228.501 303.753 228.968 303.621 229.445C301.894 230.932 299.74 232.248 297.118 232.897C297.184 230.847 297.156 228.874 297.042 227.033C296.575 219.606 294.63 215.487 292.589 213.38C292.551 213.332 292.303 213.066 291.883 212.722C291.017 212.017 290.158 211.655 289.424 211.521C287.279 211.044 284.266 211.768 281.062 216.937C277.287 223.029 277.04 230.218 280.501 234.585C278.774 235.205 276.773 236.902 274.675 240.64C272.491 244.53 271.681 248.735 272.005 252.473C268.82 259.966 263.539 271.207 260.42 271.456C255.739 271.827 254.119 263.724 259.486 245.502C262.213 236.226 264.177 230.448 265.799 226.872C266.027 226.376 266.246 225.928 266.455 225.509C266.799 225.08 267.352 224.736 268.221 225.042C269.965 225.671 266.723 241.136 265.475 242.881C265.475 242.881 271.09 243.386 272.711 232.908C274.332 222.42 270.137 219.521 266.466 220.551L266.455 220.561C263.224 220.666 257.971 223.145 251.62 234.653C243.211 249.908 243.469 265.86 249.618 272.514C247.673 282.383 242.906 304.416 239.197 304.236C239.035 304.226 238.892 304.17 238.758 304.045C234.801 300.689 240.446 252.415 250.505 221.304C252.611 214.802 254.843 208.289 257.065 202.159C257.132 201.977 257.17 201.892 257.17 201.892C258.904 200.585 260.641 199.079 262.355 197.344C272.167 187.409 279.203 171.887 275.828 168.893C273.883 167.167 271.052 167.205 268.992 167.548C268.229 167.663 267.4 167.863 266.523 168.178C266.474 168.187 266.455 168.197 266.437 168.206C261.183 170.113 254.222 176.186 248.064 193.244C247.006 196.162 245.89 199.442 244.746 202.979C228.537 204.886 224.18 198.994 224.18 198.994C221.139 204.486 230.416 211.131 242.992 208.557C238.577 222.887 233.953 240.478 230.702 257.059C226.335 265.516 217.487 281.581 212.519 283.087C211.07 283.526 209.812 283.479 208.791 282.964C208.295 282.736 207.857 282.383 207.476 281.934C207.466 281.925 207.457 281.915 207.447 281.896C205.216 279.207 204.921 272.953 207.238 263.6C208.115 263.981 209.25 264.267 210.737 264.371C211.233 264.4 211.729 264.391 212.224 264.314C217.735 263.541 223.007 256.428 226.345 243.394C229.977 229.169 223.227 227.434 220.462 227.634C218.774 227.758 216.181 229.57 214.426 230.952C211.852 230.37 204.139 230.113 197.712 245.312C195.357 245.512 192.592 245.455 189.76 244.778C193.011 222.305 192.735 194.425 187.557 190.288C182.818 186.493 171.425 185.549 166.066 193.93H166.056C166.056 193.93 158.219 205.066 161.632 225.089C163.691 237.197 173.426 244.968 184.115 247.961C183.381 252.3 182.484 256.61 181.416 260.795C173.683 291.048 158.219 312.263 151.163 314.046C144.117 315.838 148.436 295.139 153.213 283.992C155.273 279.178 155.94 274.868 155.511 271.806C154.958 267.783 152.507 265.905 148.894 267.841C148.894 267.841 141.572 278.605 137.739 290.456C133.019 298.684 125.907 308.925 119.776 308.781C117.936 308.743 116.411 308.41 115.238 307.742C115.229 307.742 115.21 307.732 115.2 307.732C109.909 304.7 111.911 294.813 124.554 273.98C134.088 258.277 143.108 242.65 145.997 231.761V231.751C146.703 229.129 147.046 226.793 146.96 224.791C146.817 221.607 145.597 219.261 142.975 218.031C132.783 213.245 99.7841 229.377 101.157 239.484C101.28 240.428 101.72 241.324 102.491 242.144C102.491 242.144 122.952 225.926 134.308 221.95C136.864 221.054 138.952 220.777 140.248 221.445C140.668 221.654 140.992 221.922 141.221 222.227C144.997 227.108 126.853 243.193 116.364 256.246C105.218 270.119 94.0721 306.283 113.409 313.101C123.096 316.524 130.495 310.07 135.472 302.775C135.415 308.992 137.484 314.55 143.433 317.887C164.133 329.481 184.374 274.439 188.694 251.241C188.837 250.507 188.97 249.763 189.094 249.011C191.488 249.344 193.871 249.44 196.179 249.297C188.971 269.366 189.839 285.908 204.397 288.769C214.075 290.676 223.285 278.053 228.605 268.852C225.287 289.886 225.077 307.295 231.684 311.062C243.297 317.669 250.705 288.084 253.346 275.079C254.176 275.403 255.053 275.622 255.988 275.698C263.94 276.375 270.166 265.077 273.36 257.725C275.181 261.644 278.7 264.18 283.438 263.723C291.446 262.951 295.718 249.812 296.843 237.426C298.825 236.797 300.533 235.958 301.991 235.033C298.511 247.037 295.574 259.918 307.645 260.233C307.645 260.233 307.683 260.157 307.759 259.995V259.985C308.465 258.412 312.346 249.412 314.376 236.463C314.824 233.631 315.177 230.742 315.387 227.987C315.407 227.653 315.425 227.348 315.445 227.072C315.482 226.614 315.502 226.157 315.52 225.718C315.54 225.299 315.548 225.07 315.548 225.07C317.894 220.979 320.668 217.338 322.366 217.557C325.235 217.929 321.612 238.647 325.979 239.143C330.346 239.639 338.708 215.688 342.083 213.19C345.449 210.692 333.092 253.492 332.101 264.477C331.1 275.451 331.719 284.814 342.455 283.317C350.76 282.154 356.3 259.089 358.378 248.725C362.374 253.58 368.571 255.352 375.513 252.998C387.993 248.755 401.342 221.429 410.704 215.184C420.058 208.948 426.046 211.619 426.046 211.619C423.431 207.917 419.932 208.576 419.932 208.576ZM271.031 171.381C275.893 168.788 270.373 187.018 259.054 196.838C263.365 185.502 267.617 176.063 271.031 171.381ZM178.46 237.141C169.507 224.689 172.71 198.202 181.234 193.692C181.348 193.634 181.454 193.587 181.548 193.549C181.711 193.464 181.873 193.396 182.034 193.349C182.13 193.311 182.206 193.292 182.253 193.273C182.282 193.264 182.301 193.254 182.311 193.254C182.32 193.244 182.33 193.244 182.33 193.244C186.582 193.244 188.346 215.889 185.247 240.211V240.249C185.142 241.135 185.018 242.023 184.894 242.909C182.588 241.632 180.367 239.792 178.46 237.141ZM217.818 233.842C218.371 233.108 219.42 232.422 221.374 232.851C225.064 233.671 221.155 248.412 217.227 255.057C215.978 257.183 214.538 258.546 213.127 259.385H213.118C211.192 260.539 209.342 260.663 208.14 260.253C208.179 260.119 208.217 259.995 208.255 259.862C212.021 247.2 216.054 237.751 217.809 233.861C217.818 233.852 217.818 233.842 217.818 233.842ZM290.929 246.876C288.307 258.479 286.639 261.102 284.541 261.102C284.445 261.102 284.36 261.073 284.265 261.016C282.33 259.863 280.137 247.077 285.066 237.818C286.782 238.428 288.813 238.695 291.168 238.524C291.512 238.495 291.846 238.457 292.18 238.419C291.901 241.441 291.492 244.359 290.929 246.876ZM292.493 233.346C286.772 232.993 284.331 228.721 285.056 223.668C285.933 217.566 289.174 211.387 291.539 216.765C292.379 219.998 292.761 226.558 292.493 233.346ZM374.767 208.318C378.38 209.443 375.749 222.506 372.45 228.827C370.848 231.897 368.799 232.612 366.987 232.231C365.996 232.031 365.071 231.487 364.345 230.82C365.318 223.793 367.225 216.709 368.903 212.571C369.295 211.589 369.715 210.76 370.133 210.063C370.4 209.624 370.677 209.243 370.953 208.9C371.639 208.261 372.821 207.708 374.767 208.318Z" fill="white"/>
</g>
<defs>
<clipPath id="clip0_238_4550">
<rect width="500" height="500" fill="white"/>
</clipPath>
</defs>
</svg>
